<svg width="1440" height="1024" viewBox="0 0 1440 1024" fill="none" xmlns="http://www.w3.org/2000/svg">
<rect width="1440" height="1024" fill="#E5E5E5"/>
<rect width="1440" height="1024" fill="white"/>
<rect width="1440" height="60" fill="#C4C4C4"/>
<rect y="964" width="1440" height="60" fill="#C4C4C4"/>
<path d="M58.7969 33.8789C58.4805 36.5859 57.4785 38.6777 55.791 40.1543C54.1152 41.6191 51.8828 42.3516 49.0938 42.3516C46.0703 42.3516 43.6445 41.2676 41.8164 39.0996C40 36.9316 39.0918 34.0312 39.0918 30.3984V27.9375C39.0918 25.5586 39.5137 23.4668 40.3574 21.6621C41.2129 19.8574 42.4199 18.4746 43.9785 17.5137C45.5371 16.541 47.3418 16.0547 49.3926 16.0547C52.1113 16.0547 54.291 16.8164 55.9316 18.3398C57.5723 19.8516 58.5273 21.9492 58.7969 24.6328H55.4043C55.1113 22.5938 54.4727 21.1172 53.4883 20.2031C52.5156 19.2891 51.1504 18.832 49.3926 18.832C47.2363 18.832 45.543 19.6289 44.3125 21.2227C43.0938 22.8164 42.4844 25.084 42.4844 28.0254V30.5039C42.4844 33.2812 43.0645 35.4902 44.2246 37.1309C45.3848 38.7715 47.0078 39.5918 49.0938 39.5918C50.9688 39.5918 52.4043 39.1699 53.4004 38.3262C54.4082 37.4707 55.0762 35.9883 55.4043 33.8789H58.7969ZM62.0488 32.3145C62.0488 30.4512 62.4121 28.7754 63.1387 27.2871C63.877 25.7988 64.8965 24.6504 66.1973 23.8418C67.5098 23.0332 69.0039 22.6289 70.6797 22.6289C73.2695 22.6289 75.3613 23.5254 76.9551 25.3184C78.5605 27.1113 79.3633 29.4961 79.3633 32.4727V32.7012C79.3633 34.5527 79.0059 36.2168 78.291 37.6934C77.5879 39.1582 76.5742 40.3008 75.25 41.1211C73.9375 41.9414 72.4258 42.3516 70.7148 42.3516C68.1367 42.3516 66.0449 41.4551 64.4395 39.6621C62.8457 37.8691 62.0488 35.4961 62.0488 32.543V32.3145ZM65.3184 32.7012C65.3184 34.8105 65.8047 36.5039 66.7773 37.7812C67.7617 39.0586 69.0742 39.6973 70.7148 39.6973C72.3672 39.6973 73.6797 39.0527 74.6523 37.7637C75.625 36.4629 76.1113 34.6465 76.1113 32.3145C76.1113 30.2285 75.6133 28.541 74.6172 27.252C73.6328 25.9512 72.3203 25.3008 70.6797 25.3008C69.0742 25.3008 67.7793 25.9395 66.7949 27.2168C65.8105 28.4941 65.3184 30.3223 65.3184 32.7012ZM86.5176 22.9805L86.623 25.3711C88.0762 23.543 89.9746 22.6289 92.3184 22.6289C96.3379 22.6289 98.3652 24.8965 98.4004 29.4316V42H95.1484V29.4141C95.1367 28.043 94.8203 27.0293 94.1992 26.373C93.5898 25.7168 92.6348 25.3887 91.334 25.3887C90.2793 25.3887 89.3535 25.6699 88.5566 26.2324C87.7598 26.7949 87.1387 27.5332 86.6934 28.4473V42H83.4414V22.9805H86.5176ZM107.717 18.375V22.9805H111.268V25.4941H107.717V37.2891C107.717 38.0508 107.875 38.625 108.191 39.0117C108.508 39.3867 109.047 39.5742 109.809 39.5742C110.184 39.5742 110.699 39.5039 111.355 39.3633V42C110.5 42.2344 109.668 42.3516 108.859 42.3516C107.406 42.3516 106.311 41.9121 105.572 41.0332C104.834 40.1543 104.465 38.9062 104.465 37.2891V25.4941H101.002V22.9805H104.465V18.375H107.717ZM126.824 42C126.637 41.625 126.484 40.957 126.367 39.9961C124.855 41.5664 123.051 42.3516 120.953 42.3516C119.078 42.3516 117.537 41.8242 116.33 40.7695C115.135 39.7031 114.537 38.3555 114.537 36.7266C114.537 34.7461 115.287 33.2109 116.787 32.1211C118.299 31.0195 120.42 30.4688 123.15 30.4688H126.314V28.9746C126.314 27.8379 125.975 26.9355 125.295 26.2676C124.615 25.5879 123.613 25.248 122.289 25.248C121.129 25.248 120.156 25.541 119.371 26.127C118.586 26.7129 118.193 27.4219 118.193 28.2539H114.924C114.924 27.3047 115.258 26.3906 115.926 25.5117C116.605 24.6211 117.52 23.918 118.668 23.4023C119.828 22.8867 121.1 22.6289 122.482 22.6289C124.674 22.6289 126.391 23.1797 127.633 24.2812C128.875 25.3711 129.52 26.877 129.566 28.7988V37.5527C129.566 39.2988 129.789 40.6875 130.234 41.7188V42H126.824ZM121.428 39.5215C122.447 39.5215 123.414 39.2578 124.328 38.7305C125.242 38.2031 125.904 37.5176 126.314 36.6738V32.7715H123.766C119.781 32.7715 117.789 33.9375 117.789 36.2695C117.789 37.2891 118.129 38.0859 118.809 38.6602C119.488 39.2344 120.361 39.5215 121.428 39.5215ZM139.076 18.375V22.9805H142.627V25.4941H139.076V37.2891C139.076 38.0508 139.234 38.625 139.551 39.0117C139.867 39.3867 140.406 39.5742 141.168 39.5742C141.543 39.5742 142.059 39.5039 142.715 39.3633V42C141.859 42.2344 141.027 42.3516 140.219 42.3516C138.766 42.3516 137.67 41.9121 136.932 41.0332C136.193 40.1543 135.824 38.9062 135.824 37.2891V25.4941H132.361V22.9805H135.824V18.375H139.076ZM145.229 32.3145C145.229 30.4512 145.592 28.7754 146.318 27.2871C147.057 25.7988 148.076 24.6504 149.377 23.8418C150.689 23.0332 152.184 22.6289 153.859 22.6289C156.449 22.6289 158.541 23.5254 160.135 25.3184C161.74 27.1113 162.543 29.4961 162.543 32.4727V32.7012C162.543 34.5527 162.186 36.2168 161.471 37.6934C160.768 39.1582 159.754 40.3008 158.43 41.1211C157.117 41.9414 155.605 42.3516 153.895 42.3516C151.316 42.3516 149.225 41.4551 147.619 39.6621C146.025 37.8691 145.229 35.4961 145.229 32.543V32.3145ZM148.498 32.7012C148.498 34.8105 148.984 36.5039 149.957 37.7812C150.941 39.0586 152.254 39.6973 153.895 39.6973C155.547 39.6973 156.859 39.0527 157.832 37.7637C158.805 36.4629 159.291 34.6465 159.291 32.3145C159.291 30.2285 158.793 28.541 157.797 27.252C156.812 25.9512 155.5 25.3008 153.859 25.3008C152.254 25.3008 150.959 25.9395 149.975 27.2168C148.99 28.4941 148.498 30.3223 148.498 32.7012ZM177.695 36.9551C177.695 36.0762 177.361 35.3965 176.693 34.916C176.037 34.4238 174.883 34.002 173.23 33.6504C171.59 33.2988 170.283 32.877 169.311 32.3848C168.35 31.8926 167.635 31.3066 167.166 30.627C166.709 29.9473 166.48 29.1387 166.48 28.2012C166.48 26.6426 167.137 25.3242 168.449 24.2461C169.773 23.168 171.461 22.6289 173.512 22.6289C175.668 22.6289 177.414 23.1855 178.75 24.2988C180.098 25.4121 180.771 26.8359 180.771 28.5703H177.502C177.502 27.6797 177.121 26.9121 176.359 26.2676C175.609 25.623 174.66 25.3008 173.512 25.3008C172.328 25.3008 171.402 25.5586 170.734 26.0742C170.066 26.5898 169.732 27.2637 169.732 28.0957C169.732 28.8809 170.043 29.4727 170.664 29.8711C171.285 30.2695 172.404 30.6504 174.021 31.0137C175.65 31.377 176.969 31.8105 177.977 32.3145C178.984 32.8184 179.729 33.4277 180.209 34.1426C180.701 34.8457 180.947 35.707 180.947 36.7266C180.947 38.4258 180.268 39.791 178.908 40.8223C177.549 41.8418 175.785 42.3516 173.617 42.3516C172.094 42.3516 170.746 42.082 169.574 41.543C168.402 41.0039 167.482 40.2539 166.814 39.293C166.158 38.3203 165.83 37.2715 165.83 36.1465H169.082C169.141 37.2363 169.574 38.1035 170.383 38.748C171.203 39.3809 172.281 39.6973 173.617 39.6973C174.848 39.6973 175.832 39.4512 176.57 38.959C177.32 38.4551 177.695 37.7871 177.695 36.9551ZM185.254 40.2949C185.254 39.7324 185.418 39.2637 185.746 38.8887C186.086 38.5137 186.59 38.3262 187.258 38.3262C187.926 38.3262 188.43 38.5137 188.77 38.8887C189.121 39.2637 189.297 39.7324 189.297 40.2949C189.297 40.834 189.121 41.2852 188.77 41.6484C188.43 42.0117 187.926 42.1934 187.258 42.1934C186.59 42.1934 186.086 42.0117 185.746 41.6484C185.418 41.2852 185.254 40.834 185.254 40.2949ZM202.305 39.6973C203.465 39.6973 204.479 39.3457 205.346 38.6426C206.213 37.9395 206.693 37.0605 206.787 36.0059H209.863C209.805 37.0957 209.43 38.1328 208.738 39.1172C208.047 40.1016 207.121 40.8867 205.961 41.4727C204.812 42.0586 203.594 42.3516 202.305 42.3516C199.715 42.3516 197.652 41.4902 196.117 39.7676C194.594 38.0332 193.832 35.666 193.832 32.666V32.1211C193.832 30.2695 194.172 28.623 194.852 27.1816C195.531 25.7402 196.504 24.6211 197.77 23.8242C199.047 23.0273 200.553 22.6289 202.287 22.6289C204.42 22.6289 206.189 23.2676 207.596 24.5449C209.014 25.8223 209.77 27.4805 209.863 29.5195H206.787C206.693 28.2891 206.225 27.2812 205.381 26.4961C204.549 25.6992 203.518 25.3008 202.287 25.3008C200.635 25.3008 199.352 25.8984 198.438 27.0938C197.535 28.2773 197.084 29.9941 197.084 32.2441V32.8594C197.084 35.0508 197.535 36.7383 198.438 37.9219C199.34 39.1055 200.629 39.6973 202.305 39.6973ZM212.658 32.3145C212.658 30.4512 213.021 28.7754 213.748 27.2871C214.486 25.7988 215.506 24.6504 216.807 23.8418C218.119 23.0332 219.613 22.6289 221.289 22.6289C223.879 22.6289 225.971 23.5254 227.564 25.3184C229.17 27.1113 229.973 29.4961 229.973 32.4727V32.7012C229.973 34.5527 229.615 36.2168 228.9 37.6934C228.197 39.1582 227.184 40.3008 225.859 41.1211C224.547 41.9414 223.035 42.3516 221.324 42.3516C218.746 42.3516 216.654 41.4551 215.049 39.6621C213.455 37.8691 212.658 35.4961 212.658 32.543V32.3145ZM215.928 32.7012C215.928 34.8105 216.414 36.5039 217.387 37.7812C218.371 39.0586 219.684 39.6973 221.324 39.6973C222.977 39.6973 224.289 39.0527 225.262 37.7637C226.234 36.4629 226.721 34.6465 226.721 32.3145C226.721 30.2285 226.223 28.541 225.227 27.252C224.242 25.9512 222.93 25.3008 221.289 25.3008C219.684 25.3008 218.389 25.9395 217.404 27.2168C216.42 28.4941 215.928 30.3223 215.928 32.7012ZM237.109 22.9805L237.197 25.0898C238.592 23.4492 240.473 22.6289 242.84 22.6289C245.5 22.6289 247.311 23.6484 248.271 25.6875C248.904 24.7734 249.725 24.0352 250.732 23.4727C251.752 22.9102 252.953 22.6289 254.336 22.6289C258.508 22.6289 260.629 24.8379 260.699 29.2559V42H257.447V29.4492C257.447 28.0898 257.137 27.0762 256.516 26.4082C255.895 25.7285 254.852 25.3887 253.387 25.3887C252.18 25.3887 251.178 25.752 250.381 26.4785C249.584 27.1934 249.121 28.1602 248.992 29.3789V42H245.723V29.5371C245.723 26.7715 244.369 25.3887 241.662 25.3887C239.529 25.3887 238.07 26.2969 237.285 28.1133V42H234.033V22.9805H237.109Z" fill="black"/>
<path d="M127.104 126.32H116.381L113.973 133H110.492L120.266 107.406H123.219L133.01 133H129.547L127.104 126.32ZM117.4 123.543H126.102L121.742 111.572L117.4 123.543ZM135.154 123.332C135.154 120.414 135.846 118.07 137.229 116.301C138.611 114.52 140.422 113.629 142.66 113.629C144.887 113.629 146.65 114.391 147.951 115.914V106H151.203V133H148.215L148.057 130.961C146.756 132.555 144.945 133.352 142.625 133.352C140.422 133.352 138.623 132.449 137.229 130.645C135.846 128.84 135.154 126.484 135.154 123.578V123.332ZM138.406 123.701C138.406 125.857 138.852 127.545 139.742 128.764C140.633 129.982 141.863 130.592 143.434 130.592C145.496 130.592 147.002 129.666 147.951 127.814V119.078C146.979 117.285 145.484 116.389 143.469 116.389C141.875 116.389 140.633 117.004 139.742 118.234C138.852 119.465 138.406 121.287 138.406 123.701ZM159.799 133H156.547V113.98H159.799V133ZM156.283 108.936C156.283 108.408 156.441 107.963 156.758 107.6C157.086 107.236 157.566 107.055 158.199 107.055C158.832 107.055 159.312 107.236 159.641 107.6C159.969 107.963 160.133 108.408 160.133 108.936C160.133 109.463 159.969 109.902 159.641 110.254C159.312 110.605 158.832 110.781 158.199 110.781C157.566 110.781 157.086 110.605 156.758 110.254C156.441 109.902 156.283 109.463 156.283 108.936ZM172.648 130.697C173.809 130.697 174.822 130.346 175.689 129.643C176.557 128.939 177.037 128.061 177.131 127.006H180.207C180.148 128.096 179.773 129.133 179.082 130.117C178.391 131.102 177.465 131.887 176.305 132.473C175.156 133.059 173.938 133.352 172.648 133.352C170.059 133.352 167.996 132.49 166.461 130.768C164.938 129.033 164.176 126.666 164.176 123.666V123.121C164.176 121.27 164.516 119.623 165.195 118.182C165.875 116.74 166.848 115.621 168.113 114.824C169.391 114.027 170.896 113.629 172.631 113.629C174.764 113.629 176.533 114.268 177.939 115.545C179.357 116.822 180.113 118.48 180.207 120.52H177.131C177.037 119.289 176.568 118.281 175.725 117.496C174.893 116.699 173.861 116.301 172.631 116.301C170.979 116.301 169.695 116.898 168.781 118.094C167.879 119.277 167.428 120.994 167.428 123.244V123.859C167.428 126.051 167.879 127.738 168.781 128.922C169.684 130.105 170.973 130.697 172.648 130.697ZM187.396 133H184.145V113.98H187.396V133ZM183.881 108.936C183.881 108.408 184.039 107.963 184.355 107.6C184.684 107.236 185.164 107.055 185.797 107.055C186.43 107.055 186.91 107.236 187.238 107.6C187.566 107.963 187.73 108.408 187.73 108.936C187.73 109.463 187.566 109.902 187.238 110.254C186.91 110.605 186.43 110.781 185.797 110.781C185.164 110.781 184.684 110.605 184.355 110.254C184.039 109.902 183.881 109.463 183.881 108.936ZM191.756 123.314C191.756 121.451 192.119 119.775 192.846 118.287C193.584 116.799 194.604 115.65 195.904 114.842C197.217 114.033 198.711 113.629 200.387 113.629C202.977 113.629 205.068 114.525 206.662 116.318C208.268 118.111 209.07 120.496 209.07 123.473V123.701C209.07 125.553 208.713 127.217 207.998 128.693C207.295 130.158 206.281 131.301 204.957 132.121C203.645 132.941 202.133 133.352 200.422 133.352C197.844 133.352 195.752 132.455 194.146 130.662C192.553 128.869 191.756 126.496 191.756 123.543V123.314ZM195.025 123.701C195.025 125.811 195.512 127.504 196.484 128.781C197.469 130.059 198.781 130.697 200.422 130.697C202.074 130.697 203.387 130.053 204.359 128.764C205.332 127.463 205.818 125.646 205.818 123.314C205.818 121.229 205.32 119.541 204.324 118.252C203.34 116.951 202.027 116.301 200.387 116.301C198.781 116.301 197.486 116.939 196.502 118.217C195.518 119.494 195.025 121.322 195.025 123.701ZM216.225 113.98L216.33 116.371C217.783 114.543 219.682 113.629 222.025 113.629C226.045 113.629 228.072 115.896 228.107 120.432V133H224.855V120.414C224.844 119.043 224.527 118.029 223.906 117.373C223.297 116.717 222.342 116.389 221.041 116.389C219.986 116.389 219.061 116.67 218.264 117.232C217.467 117.795 216.846 118.533 216.4 119.447V133H213.148V113.98H216.225ZM240.904 133.352C238.326 133.352 236.229 132.508 234.611 130.82C232.994 129.121 232.186 126.854 232.186 124.018V123.42C232.186 121.533 232.543 119.852 233.258 118.375C233.984 116.887 234.992 115.727 236.281 114.895C237.582 114.051 238.988 113.629 240.5 113.629C242.973 113.629 244.895 114.443 246.266 116.072C247.637 117.701 248.322 120.033 248.322 123.068V124.422H235.438C235.484 126.297 236.029 127.814 237.072 128.975C238.127 130.123 239.463 130.697 241.08 130.697C242.229 130.697 243.201 130.463 243.998 129.994C244.795 129.525 245.492 128.904 246.09 128.131L248.076 129.678C246.482 132.127 244.092 133.352 240.904 133.352ZM240.5 116.301C239.188 116.301 238.086 116.781 237.195 117.742C236.305 118.691 235.754 120.027 235.543 121.75H245.07V121.504C244.977 119.852 244.531 118.574 243.734 117.672C242.938 116.758 241.859 116.301 240.5 116.301ZM268.924 133.352C266.346 133.352 264.248 132.508 262.631 130.82C261.014 129.121 260.205 126.854 260.205 124.018V123.42C260.205 121.533 260.562 119.852 261.277 118.375C262.004 116.887 263.012 115.727 264.301 114.895C265.602 114.051 267.008 113.629 268.52 113.629C270.992 113.629 272.914 114.443 274.285 116.072C275.656 117.701 276.342 120.033 276.342 123.068V124.422H263.457C263.504 126.297 264.049 127.814 265.092 128.975C266.146 130.123 267.482 130.697 269.1 130.697C270.248 130.697 271.221 130.463 272.018 129.994C272.814 129.525 273.512 128.904 274.109 128.131L276.096 129.678C274.502 132.127 272.111 133.352 268.924 133.352ZM268.52 116.301C267.207 116.301 266.105 116.781 265.215 117.742C264.324 118.691 263.773 120.027 263.562 121.75H273.09V121.504C272.996 119.852 272.551 118.574 271.754 117.672C270.957 116.758 269.879 116.301 268.52 116.301ZM295.326 128.588L300.037 113.98H303.359L296.539 133H294.061L287.17 113.98H290.492L295.326 128.588ZM310.021 133H306.77V113.98H310.021V133ZM306.506 108.936C306.506 108.408 306.664 107.963 306.98 107.6C307.309 107.236 307.789 107.055 308.422 107.055C309.055 107.055 309.535 107.236 309.863 107.6C310.191 107.963 310.355 108.408 310.355 108.936C310.355 109.463 310.191 109.902 309.863 110.254C309.535 110.605 309.055 110.781 308.422 110.781C307.789 110.781 307.309 110.605 306.98 110.254C306.664 109.902 306.506 109.463 306.506 108.936ZM326.316 127.955C326.316 127.076 325.982 126.396 325.314 125.916C324.658 125.424 323.504 125.002 321.852 124.65C320.211 124.299 318.904 123.877 317.932 123.385C316.971 122.893 316.256 122.307 315.787 121.627C315.33 120.947 315.102 120.139 315.102 119.201C315.102 117.643 315.758 116.324 317.07 115.246C318.395 114.168 320.082 113.629 322.133 113.629C324.289 113.629 326.035 114.186 327.371 115.299C328.719 116.412 329.393 117.836 329.393 119.57H326.123C326.123 118.68 325.742 117.912 324.98 117.268C324.23 116.623 323.281 116.301 322.133 116.301C320.949 116.301 320.023 116.559 319.355 117.074C318.688 117.59 318.354 118.264 318.354 119.096C318.354 119.881 318.664 120.473 319.285 120.871C319.906 121.27 321.025 121.65 322.643 122.014C324.271 122.377 325.59 122.811 326.598 123.314C327.605 123.818 328.35 124.428 328.83 125.143C329.322 125.846 329.568 126.707 329.568 127.727C329.568 129.426 328.889 130.791 327.529 131.822C326.17 132.842 324.406 133.352 322.238 133.352C320.715 133.352 319.367 133.082 318.195 132.543C317.023 132.004 316.104 131.254 315.436 130.293C314.779 129.32 314.451 128.271 314.451 127.146H317.703C317.762 128.236 318.195 129.104 319.004 129.748C319.824 130.381 320.902 130.697 322.238 130.697C323.469 130.697 324.453 130.451 325.191 129.959C325.941 129.455 326.316 128.787 326.316 127.955ZM345.547 131.119C344.281 132.607 342.424 133.352 339.975 133.352C337.947 133.352 336.4 132.766 335.334 131.594C334.279 130.41 333.746 128.664 333.734 126.355V113.98H336.986V126.268C336.986 129.15 338.158 130.592 340.502 130.592C342.986 130.592 344.639 129.666 345.459 127.814V113.98H348.711V133H345.617L345.547 131.119ZM365.41 133C365.223 132.625 365.07 131.957 364.953 130.996C363.441 132.566 361.637 133.352 359.539 133.352C357.664 133.352 356.123 132.824 354.916 131.77C353.721 130.703 353.123 129.355 353.123 127.727C353.123 125.746 353.873 124.211 355.373 123.121C356.885 122.02 359.006 121.469 361.736 121.469H364.9V119.975C364.9 118.838 364.561 117.936 363.881 117.268C363.201 116.588 362.199 116.248 360.875 116.248C359.715 116.248 358.742 116.541 357.957 117.127C357.172 117.713 356.779 118.422 356.779 119.254H353.51C353.51 118.305 353.844 117.391 354.512 116.512C355.191 115.621 356.105 114.918 357.254 114.402C358.414 113.887 359.686 113.629 361.068 113.629C363.26 113.629 364.977 114.18 366.219 115.281C367.461 116.371 368.105 117.877 368.152 119.799V128.553C368.152 130.299 368.375 131.688 368.82 132.719V133H365.41ZM360.014 130.521C361.033 130.521 362 130.258 362.914 129.73C363.828 129.203 364.49 128.518 364.9 127.674V123.771H362.352C358.367 123.771 356.375 124.938 356.375 127.27C356.375 128.289 356.715 129.086 357.395 129.66C358.074 130.234 358.947 130.521 360.014 130.521ZM376.783 133H373.531V106H376.783V133ZM385.537 133H382.285V113.98H385.537V133ZM382.021 108.936C382.021 108.408 382.18 107.963 382.496 107.6C382.824 107.236 383.305 107.055 383.938 107.055C384.57 107.055 385.051 107.236 385.379 107.6C385.707 107.963 385.871 108.408 385.871 108.936C385.871 109.463 385.707 109.902 385.379 110.254C385.051 110.605 384.57 110.781 383.938 110.781C383.305 110.781 382.824 110.605 382.496 110.254C382.18 109.902 382.021 109.463 382.021 108.936ZM393.816 130.346H404.943V133H389.844V130.609L400.338 116.67H390.002V113.98H404.416V116.283L393.816 130.346ZM416.229 133.352C413.65 133.352 411.553 132.508 409.936 130.82C408.318 129.121 407.51 126.854 407.51 124.018V123.42C407.51 121.533 407.867 119.852 408.582 118.375C409.309 116.887 410.316 115.727 411.605 114.895C412.906 114.051 414.312 113.629 415.824 113.629C418.297 113.629 420.219 114.443 421.59 116.072C422.961 117.701 423.646 120.033 423.646 123.068V124.422H410.762C410.809 126.297 411.354 127.814 412.396 128.975C413.451 130.123 414.787 130.697 416.404 130.697C417.553 130.697 418.525 130.463 419.322 129.994C420.119 129.525 420.816 128.904 421.414 128.131L423.4 129.678C421.807 132.127 419.416 133.352 416.229 133.352ZM415.824 116.301C414.512 116.301 413.41 116.781 412.52 117.742C411.629 118.691 411.078 120.027 410.867 121.75H420.395V121.504C420.301 119.852 419.855 118.574 419.059 117.672C418.262 116.758 417.184 116.301 415.824 116.301ZM447.43 127.955C447.43 127.076 447.096 126.396 446.428 125.916C445.771 125.424 444.617 125.002 442.965 124.65C441.324 124.299 440.018 123.877 439.045 123.385C438.084 122.893 437.369 122.307 436.9 121.627C436.443 120.947 436.215 120.139 436.215 119.201C436.215 117.643 436.871 116.324 438.184 115.246C439.508 114.168 441.195 113.629 443.246 113.629C445.402 113.629 447.148 114.186 448.484 115.299C449.832 116.412 450.506 117.836 450.506 119.57H447.236C447.236 118.68 446.855 117.912 446.094 117.268C445.344 116.623 444.395 116.301 443.246 116.301C442.062 116.301 441.137 116.559 440.469 117.074C439.801 117.59 439.467 118.264 439.467 119.096C439.467 119.881 439.777 120.473 440.398 120.871C441.02 121.27 442.139 121.65 443.756 122.014C445.385 122.377 446.703 122.811 447.711 123.314C448.719 123.818 449.463 124.428 449.943 125.143C450.436 125.846 450.682 126.707 450.682 127.727C450.682 129.426 450.002 130.791 448.643 131.822C447.283 132.842 445.52 133.352 443.352 133.352C441.828 133.352 440.48 133.082 439.309 132.543C438.137 132.004 437.217 131.254 436.549 130.293C435.893 129.32 435.564 128.271 435.564 127.146H438.816C438.875 128.236 439.309 129.104 440.117 129.748C440.938 130.381 442.016 130.697 443.352 130.697C444.582 130.697 445.566 130.451 446.305 129.959C447.055 129.455 447.43 128.787 447.43 127.955ZM462.811 133.352C460.232 133.352 458.135 132.508 456.518 130.82C454.9 129.121 454.092 126.854 454.092 124.018V123.42C454.092 121.533 454.449 119.852 455.164 118.375C455.891 116.887 456.898 115.727 458.188 114.895C459.488 114.051 460.895 113.629 462.406 113.629C464.879 113.629 466.801 114.443 468.172 116.072C469.543 117.701 470.229 120.033 470.229 123.068V124.422H457.344C457.391 126.297 457.936 127.814 458.979 128.975C460.033 130.123 461.369 130.697 462.986 130.697C464.135 130.697 465.107 130.463 465.904 129.994C466.701 129.525 467.398 128.904 467.996 128.131L469.982 129.678C468.389 132.127 465.998 133.352 462.811 133.352ZM462.406 116.301C461.094 116.301 459.992 116.781 459.102 117.742C458.211 118.691 457.66 120.027 457.449 121.75H466.977V121.504C466.883 119.852 466.438 118.574 465.641 117.672C464.844 116.758 463.766 116.301 462.406 116.301ZM485.75 131.119C484.484 132.607 482.627 133.352 480.178 133.352C478.15 133.352 476.604 132.766 475.537 131.594C474.482 130.41 473.949 128.664 473.938 126.355V113.98H477.189V126.268C477.189 129.15 478.361 130.592 480.705 130.592C483.189 130.592 484.842 129.666 485.662 127.814V113.98H488.914V133H485.82L485.75 131.119ZM504.945 127.955C504.945 127.076 504.611 126.396 503.943 125.916C503.287 125.424 502.133 125.002 500.48 124.65C498.84 124.299 497.533 123.877 496.561 123.385C495.6 122.893 494.885 122.307 494.416 121.627C493.959 120.947 493.73 120.139 493.73 119.201C493.73 117.643 494.387 116.324 495.699 115.246C497.023 114.168 498.711 113.629 500.762 113.629C502.918 113.629 504.664 114.186 506 115.299C507.348 116.412 508.021 117.836 508.021 119.57H504.752C504.752 118.68 504.371 117.912 503.609 117.268C502.859 116.623 501.91 116.301 500.762 116.301C499.578 116.301 498.652 116.559 497.984 117.074C497.316 117.59 496.982 118.264 496.982 119.096C496.982 119.881 497.293 120.473 497.914 120.871C498.535 121.27 499.654 121.65 501.271 122.014C502.9 122.377 504.219 122.811 505.227 123.314C506.234 123.818 506.979 124.428 507.459 125.143C507.951 125.846 508.197 126.707 508.197 127.727C508.197 129.426 507.518 130.791 506.158 131.822C504.799 132.842 503.035 133.352 500.867 133.352C499.344 133.352 497.996 133.082 496.824 132.543C495.652 132.004 494.732 131.254 494.064 130.293C493.408 129.32 493.08 128.271 493.08 127.146H496.332C496.391 128.236 496.824 129.104 497.633 129.748C498.453 130.381 499.531 130.697 500.867 130.697C502.098 130.697 503.082 130.451 503.82 129.959C504.57 129.455 504.945 128.787 504.945 127.955ZM528.992 130.697C530.152 130.697 531.166 130.346 532.033 129.643C532.9 128.939 533.381 128.061 533.475 127.006H536.551C536.492 128.096 536.117 129.133 535.426 130.117C534.734 131.102 533.809 131.887 532.648 132.473C531.5 133.059 530.281 133.352 528.992 133.352C526.402 133.352 524.34 132.49 522.805 130.768C521.281 129.033 520.52 126.666 520.52 123.666V123.121C520.52 121.27 520.859 119.623 521.539 118.182C522.219 116.74 523.191 115.621 524.457 114.824C525.734 114.027 527.24 113.629 528.975 113.629C531.107 113.629 532.877 114.268 534.283 115.545C535.701 116.822 536.457 118.48 536.551 120.52H533.475C533.381 119.289 532.912 118.281 532.068 117.496C531.236 116.699 530.205 116.301 528.975 116.301C527.322 116.301 526.039 116.898 525.125 118.094C524.223 119.277 523.771 120.994 523.771 123.244V123.859C523.771 126.051 524.223 127.738 525.125 128.922C526.027 130.105 527.316 130.697 528.992 130.697ZM539.346 123.314C539.346 121.451 539.709 119.775 540.436 118.287C541.174 116.799 542.193 115.65 543.494 114.842C544.807 114.033 546.301 113.629 547.977 113.629C550.566 113.629 552.658 114.525 554.252 116.318C555.857 118.111 556.66 120.496 556.66 123.473V123.701C556.66 125.553 556.303 127.217 555.588 128.693C554.885 130.158 553.871 131.301 552.547 132.121C551.234 132.941 549.723 133.352 548.012 133.352C545.434 133.352 543.342 132.455 541.736 130.662C540.143 128.869 539.346 126.496 539.346 123.543V123.314ZM542.615 123.701C542.615 125.811 543.102 127.504 544.074 128.781C545.059 130.059 546.371 130.697 548.012 130.697C549.664 130.697 550.977 130.053 551.949 128.764C552.922 127.463 553.408 125.646 553.408 123.314C553.408 121.229 552.91 119.541 551.914 118.252C550.93 116.951 549.617 116.301 547.977 116.301C546.371 116.301 545.076 116.939 544.092 118.217C543.107 119.494 542.615 121.322 542.615 123.701ZM563.814 113.98L563.92 116.371C565.373 114.543 567.271 113.629 569.615 113.629C573.635 113.629 575.662 115.896 575.697 120.432V133H572.445V120.414C572.434 119.043 572.117 118.029 571.496 117.373C570.887 116.717 569.932 116.389 568.631 116.389C567.576 116.389 566.65 116.67 565.854 117.232C565.057 117.795 564.436 118.533 563.99 119.447V133H560.738V113.98H563.814ZM585.014 109.375V113.98H588.564V116.494H585.014V128.289C585.014 129.051 585.172 129.625 585.488 130.012C585.805 130.387 586.344 130.574 587.105 130.574C587.48 130.574 587.996 130.504 588.652 130.363V133C587.797 133.234 586.965 133.352 586.156 133.352C584.703 133.352 583.607 132.912 582.869 132.033C582.131 131.154 581.762 129.906 581.762 128.289V116.494H578.299V113.98H581.762V109.375H585.014ZM604.121 133C603.934 132.625 603.781 131.957 603.664 130.996C602.152 132.566 600.348 133.352 598.25 133.352C596.375 133.352 594.834 132.824 593.627 131.77C592.432 130.703 591.834 129.355 591.834 127.727C591.834 125.746 592.584 124.211 594.084 123.121C595.596 122.02 597.717 121.469 600.447 121.469H603.611V119.975C603.611 118.838 603.271 117.936 602.592 117.268C601.912 116.588 600.91 116.248 599.586 116.248C598.426 116.248 597.453 116.541 596.668 117.127C595.883 117.713 595.49 118.422 595.49 119.254H592.221C592.221 118.305 592.555 117.391 593.223 116.512C593.902 115.621 594.816 114.918 595.965 114.402C597.125 113.887 598.396 113.629 599.779 113.629C601.971 113.629 603.688 114.18 604.93 115.281C606.172 116.371 606.816 117.877 606.863 119.799V128.553C606.863 130.299 607.086 131.688 607.531 132.719V133H604.121ZM598.725 130.521C599.744 130.521 600.711 130.258 601.625 129.73C602.539 129.203 603.201 128.518 603.611 127.674V123.771H601.062C597.078 123.771 595.086 124.938 595.086 127.27C595.086 128.289 595.426 129.086 596.105 129.66C596.785 130.234 597.658 130.521 598.725 130.521ZM616.373 109.375V113.98H619.924V116.494H616.373V128.289C616.373 129.051 616.531 129.625 616.848 130.012C617.164 130.387 617.703 130.574 618.465 130.574C618.84 130.574 619.355 130.504 620.012 130.363V133C619.156 133.234 618.324 133.352 617.516 133.352C616.062 133.352 614.967 132.912 614.229 132.033C613.49 131.154 613.121 129.906 613.121 128.289V116.494H609.658V113.98H613.121V109.375H616.373ZM622.525 123.314C622.525 121.451 622.889 119.775 623.615 118.287C624.354 116.799 625.373 115.65 626.674 114.842C627.986 114.033 629.48 113.629 631.156 113.629C633.746 113.629 635.838 114.525 637.432 116.318C639.037 118.111 639.84 120.496 639.84 123.473V123.701C639.84 125.553 639.482 127.217 638.768 128.693C638.064 130.158 637.051 131.301 635.727 132.121C634.414 132.941 632.902 133.352 631.191 133.352C628.613 133.352 626.521 132.455 624.916 130.662C623.322 128.869 622.525 126.496 622.525 123.543V123.314ZM625.795 123.701C625.795 125.811 626.281 127.504 627.254 128.781C628.238 130.059 629.551 130.697 631.191 130.697C632.844 130.697 634.156 130.053 635.129 128.764C636.102 127.463 636.588 125.646 636.588 123.314C636.588 121.229 636.09 119.541 635.094 118.252C634.109 116.951 632.797 116.301 631.156 116.301C629.551 116.301 628.256 116.939 627.271 118.217C626.287 119.494 625.795 121.322 625.795 123.701ZM654.992 127.955C654.992 127.076 654.658 126.396 653.99 125.916C653.334 125.424 652.18 125.002 650.527 124.65C648.887 124.299 647.58 123.877 646.607 123.385C645.646 122.893 644.932 122.307 644.463 121.627C644.006 120.947 643.777 120.139 643.777 119.201C643.777 117.643 644.434 116.324 645.746 115.246C647.07 114.168 648.758 113.629 650.809 113.629C652.965 113.629 654.711 114.186 656.047 115.299C657.395 116.412 658.068 117.836 658.068 119.57H654.799C654.799 118.68 654.418 117.912 653.656 117.268C652.906 116.623 651.957 116.301 650.809 116.301C649.625 116.301 648.699 116.559 648.031 117.074C647.363 117.59 647.029 118.264 647.029 119.096C647.029 119.881 647.34 120.473 647.961 120.871C648.582 121.27 649.701 121.65 651.318 122.014C652.947 122.377 654.266 122.811 655.273 123.314C656.281 123.818 657.025 124.428 657.506 125.143C657.998 125.846 658.244 126.707 658.244 127.727C658.244 129.426 657.564 130.791 656.205 131.822C654.846 132.842 653.082 133.352 650.914 133.352C649.391 133.352 648.043 133.082 646.871 132.543C645.699 132.004 644.779 131.254 644.111 130.293C643.455 129.32 643.127 128.271 643.127 127.146H646.379C646.438 128.236 646.871 129.104 647.68 129.748C648.5 130.381 649.578 130.697 650.914 130.697C652.145 130.697 653.129 130.451 653.867 129.959C654.617 129.455 654.992 128.787 654.992 127.955ZM662.375 131.295C662.375 130.732 662.539 130.264 662.867 129.889C663.207 129.514 663.711 129.326 664.379 129.326C665.047 129.326 665.551 129.514 665.891 129.889C666.242 130.264 666.418 130.732 666.418 131.295C666.418 131.834 666.242 132.285 665.891 132.648C665.551 133.012 665.047 133.193 664.379 133.193C663.711 133.193 663.207 133.012 662.867 132.648C662.539 132.285 662.375 131.834 662.375 131.295ZM662.393 115.773C662.393 115.211 662.557 114.742 662.885 114.367C663.225 113.992 663.729 113.805 664.396 113.805C665.064 113.805 665.568 113.992 665.908 114.367C666.26 114.742 666.436 115.211 666.436 115.773C666.436 116.312 666.26 116.764 665.908 117.127C665.568 117.49 665.064 117.672 664.396 117.672C663.729 117.672 663.225 117.49 662.885 117.127C662.557 116.764 662.393 116.312 662.393 115.773Z" fill="black"/>
<line x1="99.9992" y1="149.5" x2="1340" y2="149.5" stroke="black"/>
<path d="M323.212 390.986H316.356V410H313.559V390.986H306.718V388.672H323.212V390.986ZM331.063 410.293C328.915 410.293 327.167 409.59 325.819 408.184C324.472 406.768 323.798 404.878 323.798 402.515V402.017C323.798 400.444 324.096 399.043 324.691 397.812C325.297 396.572 326.137 395.605 327.211 394.912C328.295 394.209 329.467 393.857 330.727 393.857C332.787 393.857 334.389 394.536 335.531 395.894C336.674 397.251 337.245 399.194 337.245 401.724V402.852H326.508C326.547 404.414 327.001 405.679 327.87 406.646C328.749 407.603 329.862 408.081 331.21 408.081C332.167 408.081 332.978 407.886 333.642 407.495C334.306 407.104 334.887 406.587 335.385 405.942L337.04 407.231C335.712 409.272 333.72 410.293 331.063 410.293ZM330.727 396.084C329.633 396.084 328.715 396.484 327.973 397.285C327.23 398.076 326.771 399.189 326.596 400.625H334.535V400.42C334.457 399.043 334.086 397.979 333.422 397.227C332.758 396.465 331.859 396.084 330.727 396.084ZM343.339 410H340.629V387.5H343.339V410ZM354.267 410.293C352.118 410.293 350.37 409.59 349.022 408.184C347.675 406.768 347.001 404.878 347.001 402.515V402.017C347.001 400.444 347.299 399.043 347.895 397.812C348.5 396.572 349.34 395.605 350.414 394.912C351.498 394.209 352.67 393.857 353.93 393.857C355.99 393.857 357.592 394.536 358.734 395.894C359.877 397.251 360.448 399.194 360.448 401.724V402.852H349.711C349.75 404.414 350.204 405.679 351.073 406.646C351.952 407.603 353.065 408.081 354.413 408.081C355.37 408.081 356.181 407.886 356.845 407.495C357.509 407.104 358.09 406.587 358.588 405.942L360.243 407.231C358.915 409.272 356.923 410.293 354.267 410.293ZM353.93 396.084C352.836 396.084 351.918 396.484 351.176 397.285C350.434 398.076 349.975 399.189 349.799 400.625H357.738V400.42C357.66 399.043 357.289 397.979 356.625 397.227C355.961 396.465 355.062 396.084 353.93 396.084ZM364.931 410V396.245H362.426V394.15H364.931V392.524C364.931 390.825 365.385 389.512 366.293 388.584C367.201 387.656 368.485 387.192 370.146 387.192C370.771 387.192 371.391 387.275 372.006 387.441L371.859 389.639C371.4 389.551 370.912 389.507 370.395 389.507C369.516 389.507 368.837 389.766 368.358 390.283C367.88 390.791 367.641 391.523 367.641 392.48V394.15H371.024V396.245H367.641V410H364.931ZM373.31 401.929C373.31 400.376 373.612 398.979 374.218 397.739C374.833 396.499 375.683 395.542 376.767 394.868C377.86 394.194 379.105 393.857 380.502 393.857C382.66 393.857 384.403 394.604 385.731 396.099C387.069 397.593 387.738 399.58 387.738 402.061V402.251C387.738 403.794 387.44 405.181 386.845 406.411C386.259 407.632 385.414 408.584 384.311 409.268C383.217 409.951 381.957 410.293 380.531 410.293C378.383 410.293 376.64 409.546 375.302 408.052C373.974 406.558 373.31 404.58 373.31 402.119V401.929ZM376.034 402.251C376.034 404.009 376.439 405.42 377.25 406.484C378.07 407.549 379.164 408.081 380.531 408.081C381.908 408.081 383.002 407.544 383.812 406.47C384.623 405.386 385.028 403.872 385.028 401.929C385.028 400.19 384.613 398.784 383.783 397.71C382.963 396.626 381.869 396.084 380.502 396.084C379.164 396.084 378.085 396.616 377.265 397.681C376.444 398.745 376.034 400.269 376.034 402.251ZM393.7 394.15L393.788 396.143C394.999 394.619 396.581 393.857 398.534 393.857C401.884 393.857 403.573 395.747 403.603 399.526V410H400.893V399.512C400.883 398.369 400.619 397.524 400.102 396.978C399.594 396.431 398.798 396.157 397.714 396.157C396.835 396.157 396.063 396.392 395.399 396.86C394.735 397.329 394.218 397.944 393.847 398.706V410H391.137V394.15H393.7ZM414.267 410.293C412.118 410.293 410.37 409.59 409.022 408.184C407.675 406.768 407.001 404.878 407.001 402.515V402.017C407.001 400.444 407.299 399.043 407.895 397.812C408.5 396.572 409.34 395.605 410.414 394.912C411.498 394.209 412.67 393.857 413.93 393.857C415.99 393.857 417.592 394.536 418.734 395.894C419.877 397.251 420.448 399.194 420.448 401.724V402.852H409.711C409.75 404.414 410.204 405.679 411.073 406.646C411.952 407.603 413.065 408.081 414.413 408.081C415.37 408.081 416.181 407.886 416.845 407.495C417.509 407.104 418.09 406.587 418.588 405.942L420.243 407.231C418.915 409.272 416.923 410.293 414.267 410.293ZM413.93 396.084C412.836 396.084 411.918 396.484 411.176 397.285C410.434 398.076 409.975 399.189 409.799 400.625H417.738V400.42C417.66 399.043 417.289 397.979 416.625 397.227C415.961 396.465 415.062 396.084 413.93 396.084ZM423.51 408.579C423.51 408.11 423.646 407.72 423.92 407.407C424.203 407.095 424.623 406.938 425.18 406.938C425.736 406.938 426.156 407.095 426.439 407.407C426.732 407.72 426.879 408.11 426.879 408.579C426.879 409.028 426.732 409.404 426.439 409.707C426.156 410.01 425.736 410.161 425.18 410.161C424.623 410.161 424.203 410.01 423.92 409.707C423.646 409.404 423.51 409.028 423.51 408.579ZM423.524 395.645C423.524 395.176 423.661 394.785 423.935 394.473C424.218 394.16 424.638 394.004 425.194 394.004C425.751 394.004 426.171 394.16 426.454 394.473C426.747 394.785 426.894 395.176 426.894 395.645C426.894 396.094 426.747 396.47 426.454 396.772C426.171 397.075 425.751 397.227 425.194 397.227C424.638 397.227 424.218 397.075 423.935 396.772C423.661 396.47 423.524 396.094 423.524 395.645ZM438.202 401.343C438.202 399.136 438.495 397.017 439.081 394.985C439.677 392.954 440.561 391.108 441.732 389.448C442.904 387.788 444.12 386.616 445.38 385.933L445.937 387.72C444.511 388.813 443.339 390.483 442.421 392.729C441.513 394.976 441.015 397.49 440.927 400.273L440.912 401.519C440.912 405.288 441.601 408.56 442.978 411.333C443.808 412.993 444.794 414.292 445.937 415.229L445.38 416.885C444.081 416.162 442.841 414.951 441.659 413.252C439.354 409.932 438.202 405.962 438.202 401.343ZM459.721 402.837H462.68V405.049H459.721V410H456.996V405.049H447.284V403.452L456.835 388.672H459.721V402.837ZM450.36 402.837H456.996V392.378L456.674 392.964L450.36 402.837ZM479.101 410H465.126V408.052L472.509 399.849C473.603 398.608 474.354 397.603 474.765 396.831C475.185 396.05 475.395 395.244 475.395 394.414C475.395 393.301 475.058 392.388 474.384 391.675C473.71 390.962 472.812 390.605 471.688 390.605C470.341 390.605 469.291 390.991 468.539 391.763C467.797 392.524 467.426 393.589 467.426 394.956H464.716C464.716 392.993 465.346 391.406 466.605 390.195C467.875 388.984 469.569 388.379 471.688 388.379C473.671 388.379 475.238 388.901 476.391 389.946C477.543 390.981 478.119 392.363 478.119 394.092C478.119 396.191 476.781 398.691 474.105 401.592L468.393 407.788H479.101V410ZM488.505 401.489C488.505 403.667 488.217 405.757 487.641 407.759C487.074 409.751 486.2 411.592 485.019 413.281C483.847 414.971 482.616 416.172 481.327 416.885L480.756 415.229C482.26 414.077 483.466 412.29 484.374 409.868C485.292 407.437 485.761 404.741 485.78 401.782V401.313C485.78 399.263 485.565 397.358 485.136 395.601C484.706 393.833 484.105 392.251 483.334 390.854C482.572 389.458 481.713 388.369 480.756 387.588L481.327 385.933C482.616 386.646 483.842 387.837 485.004 389.507C486.176 391.177 487.05 393.018 487.626 395.029C488.212 397.041 488.505 399.194 488.505 401.489ZM510.229 400.625C509.662 401.299 508.983 401.841 508.192 402.251C507.411 402.661 506.552 402.866 505.614 402.866C504.384 402.866 503.31 402.563 502.392 401.958C501.483 401.353 500.78 400.503 500.282 399.409C499.784 398.306 499.535 397.09 499.535 395.762C499.535 394.336 499.804 393.052 500.341 391.909C500.888 390.767 501.659 389.893 502.655 389.287C503.651 388.682 504.813 388.379 506.142 388.379C508.251 388.379 509.911 389.17 511.122 390.752C512.343 392.324 512.953 394.473 512.953 397.197V397.988C512.953 402.139 512.133 405.171 510.492 407.085C508.852 408.989 506.376 409.966 503.065 410.015H502.538V407.729H503.109C505.346 407.69 507.064 407.109 508.266 405.986C509.467 404.854 510.121 403.066 510.229 400.625ZM506.054 400.625C506.962 400.625 507.797 400.347 508.559 399.79C509.33 399.233 509.892 398.545 510.243 397.725V396.641C510.243 394.863 509.857 393.418 509.086 392.305C508.314 391.191 507.338 390.635 506.156 390.635C504.965 390.635 504.008 391.094 503.285 392.012C502.562 392.92 502.201 394.121 502.201 395.615C502.201 397.07 502.548 398.271 503.241 399.219C503.944 400.156 504.882 400.625 506.054 400.625ZM534.516 400.625C533.949 401.299 533.271 401.841 532.479 402.251C531.698 402.661 530.839 402.866 529.901 402.866C528.671 402.866 527.597 402.563 526.679 401.958C525.771 401.353 525.067 400.503 524.569 399.409C524.071 398.306 523.822 397.09 523.822 395.762C523.822 394.336 524.091 393.052 524.628 391.909C525.175 390.767 525.946 389.893 526.942 389.287C527.938 388.682 529.101 388.379 530.429 388.379C532.538 388.379 534.198 389.17 535.409 390.752C536.63 392.324 537.24 394.473 537.24 397.197V397.988C537.24 402.139 536.42 405.171 534.779 407.085C533.139 408.989 530.663 409.966 527.353 410.015H526.825V407.729H527.396C529.633 407.69 531.352 407.109 532.553 405.986C533.754 404.854 534.408 403.066 534.516 400.625ZM530.341 400.625C531.249 400.625 532.084 400.347 532.846 399.79C533.617 399.233 534.179 398.545 534.53 397.725V396.641C534.53 394.863 534.145 393.418 533.373 392.305C532.602 391.191 531.625 390.635 530.443 390.635C529.252 390.635 528.295 391.094 527.572 392.012C526.85 392.92 526.488 394.121 526.488 395.615C526.488 397.07 526.835 398.271 527.528 399.219C528.231 400.156 529.169 400.625 530.341 400.625ZM551.361 400.625C550.795 401.299 550.116 401.841 549.325 402.251C548.544 402.661 547.685 402.866 546.747 402.866C545.517 402.866 544.442 402.563 543.524 401.958C542.616 401.353 541.913 400.503 541.415 399.409C540.917 398.306 540.668 397.09 540.668 395.762C540.668 394.336 540.937 393.052 541.474 391.909C542.021 390.767 542.792 389.893 543.788 389.287C544.784 388.682 545.946 388.379 547.274 388.379C549.384 388.379 551.044 389.17 552.255 390.752C553.476 392.324 554.086 394.473 554.086 397.197V397.988C554.086 402.139 553.266 405.171 551.625 407.085C549.984 408.989 547.509 409.966 544.198 410.015H543.671V407.729H544.242C546.479 407.69 548.197 407.109 549.398 405.986C550.6 404.854 551.254 403.066 551.361 400.625ZM547.187 400.625C548.095 400.625 548.93 400.347 549.691 399.79C550.463 399.233 551.024 398.545 551.376 397.725V396.641C551.376 394.863 550.99 393.418 550.219 392.305C549.447 391.191 548.471 390.635 547.289 390.635C546.098 390.635 545.141 391.094 544.418 392.012C543.695 392.92 543.334 394.121 543.334 395.615C543.334 397.07 543.681 398.271 544.374 399.219C545.077 400.156 546.015 400.625 547.187 400.625ZM568.207 400.625C567.641 401.299 566.962 401.841 566.171 402.251C565.39 402.661 564.53 402.866 563.593 402.866C562.362 402.866 561.288 402.563 560.37 401.958C559.462 401.353 558.759 400.503 558.261 399.409C557.763 398.306 557.514 397.09 557.514 395.762C557.514 394.336 557.782 393.052 558.319 391.909C558.866 390.767 559.638 389.893 560.634 389.287C561.63 388.682 562.792 388.379 564.12 388.379C566.229 388.379 567.89 389.17 569.101 390.752C570.321 392.324 570.932 394.473 570.932 397.197V397.988C570.932 402.139 570.111 405.171 568.471 407.085C566.83 408.989 564.354 409.966 561.044 410.015H560.517V407.729H561.088C563.324 407.69 565.043 407.109 566.244 405.986C567.445 404.854 568.1 403.066 568.207 400.625ZM564.032 400.625C564.94 400.625 565.775 400.347 566.537 399.79C567.309 399.233 567.87 398.545 568.222 397.725V396.641C568.222 394.863 567.836 393.418 567.064 392.305C566.293 391.191 565.316 390.635 564.135 390.635C562.943 390.635 561.986 391.094 561.264 392.012C560.541 392.92 560.18 394.121 560.18 395.615C560.18 397.07 560.526 398.271 561.22 399.219C561.923 400.156 562.86 400.625 564.032 400.625ZM585.053 400.625C584.486 401.299 583.808 401.841 583.017 402.251C582.235 402.661 581.376 402.866 580.438 402.866C579.208 402.866 578.134 402.563 577.216 401.958C576.308 401.353 575.604 400.503 575.106 399.409C574.608 398.306 574.359 397.09 574.359 395.762C574.359 394.336 574.628 393.052 575.165 391.909C575.712 390.767 576.483 389.893 577.479 389.287C578.476 388.682 579.638 388.379 580.966 388.379C583.075 388.379 584.735 389.17 585.946 390.752C587.167 392.324 587.777 394.473 587.777 397.197V397.988C587.777 402.139 586.957 405.171 585.316 407.085C583.676 408.989 581.2 409.966 577.89 410.015H577.362V407.729H577.934C580.17 407.69 581.889 407.109 583.09 405.986C584.291 404.854 584.945 403.066 585.053 400.625ZM580.878 400.625C581.786 400.625 582.621 400.347 583.383 399.79C584.154 399.233 584.716 398.545 585.067 397.725V396.641C585.067 394.863 584.682 393.418 583.91 392.305C583.139 391.191 582.162 390.635 580.98 390.635C579.789 390.635 578.832 391.094 578.109 392.012C577.387 392.92 577.025 394.121 577.025 395.615C577.025 397.07 577.372 398.271 578.065 399.219C578.769 400.156 579.706 400.625 580.878 400.625ZM597.431 402.046H590.282V399.834H597.431V402.046ZM610.189 400.625C609.623 401.299 608.944 401.841 608.153 402.251C607.372 402.661 606.513 402.866 605.575 402.866C604.345 402.866 603.271 402.563 602.353 401.958C601.444 401.353 600.741 400.503 600.243 399.409C599.745 398.306 599.496 397.09 599.496 395.762C599.496 394.336 599.765 393.052 600.302 391.909C600.849 390.767 601.62 389.893 602.616 389.287C603.612 388.682 604.774 388.379 606.103 388.379C608.212 388.379 609.872 389.17 611.083 390.752C612.304 392.324 612.914 394.473 612.914 397.197V397.988C612.914 402.139 612.094 405.171 610.453 407.085C608.812 408.989 606.337 409.966 603.026 410.015H602.499V407.729H603.07C605.307 407.69 607.025 407.109 608.227 405.986C609.428 404.854 610.082 403.066 610.189 400.625ZM606.015 400.625C606.923 400.625 607.758 400.347 608.52 399.79C609.291 399.233 609.853 398.545 610.204 397.725V396.641C610.204 394.863 609.818 393.418 609.047 392.305C608.275 391.191 607.299 390.635 606.117 390.635C604.926 390.635 603.969 391.094 603.246 392.012C602.523 392.92 602.162 394.121 602.162 395.615C602.162 397.07 602.509 398.271 603.202 399.219C603.905 400.156 604.843 400.625 606.015 400.625ZM627.035 400.625C626.469 401.299 625.79 401.841 624.999 402.251C624.218 402.661 623.358 402.866 622.421 402.866C621.19 402.866 620.116 402.563 619.198 401.958C618.29 401.353 617.587 400.503 617.089 399.409C616.591 398.306 616.342 397.09 616.342 395.762C616.342 394.336 616.61 393.052 617.147 391.909C617.694 390.767 618.466 389.893 619.462 389.287C620.458 388.682 621.62 388.379 622.948 388.379C625.058 388.379 626.718 389.17 627.929 390.752C629.149 392.324 629.76 394.473 629.76 397.197V397.988C629.76 402.139 628.939 405.171 627.299 407.085C625.658 408.989 623.183 409.966 619.872 410.015H619.345V407.729H619.916C622.152 407.69 623.871 407.109 625.072 405.986C626.273 404.854 626.928 403.066 627.035 400.625ZM622.86 400.625C623.769 400.625 624.604 400.347 625.365 399.79C626.137 399.233 626.698 398.545 627.05 397.725V396.641C627.05 394.863 626.664 393.418 625.893 392.305C625.121 391.191 624.145 390.635 622.963 390.635C621.771 390.635 620.814 391.094 620.092 392.012C619.369 392.92 619.008 394.121 619.008 395.615C619.008 397.07 619.354 398.271 620.048 399.219C620.751 400.156 621.688 400.625 622.86 400.625ZM643.881 400.625C643.314 401.299 642.636 401.841 641.845 402.251C641.063 402.661 640.204 402.866 639.267 402.866C638.036 402.866 636.962 402.563 636.044 401.958C635.136 401.353 634.433 400.503 633.935 399.409C633.437 398.306 633.188 397.09 633.188 395.762C633.188 394.336 633.456 393.052 633.993 391.909C634.54 390.767 635.312 389.893 636.308 389.287C637.304 388.682 638.466 388.379 639.794 388.379C641.903 388.379 643.563 389.17 644.774 390.752C645.995 392.324 646.605 394.473 646.605 397.197V397.988C646.605 402.139 645.785 405.171 644.145 407.085C642.504 408.989 640.028 409.966 636.718 410.015H636.19V407.729H636.762C638.998 407.69 640.717 407.109 641.918 405.986C643.119 404.854 643.773 403.066 643.881 400.625ZM639.706 400.625C640.614 400.625 641.449 400.347 642.211 399.79C642.982 399.233 643.544 398.545 643.896 397.725V396.641C643.896 394.863 643.51 393.418 642.738 392.305C641.967 391.191 640.99 390.635 639.809 390.635C638.617 390.635 637.66 391.094 636.938 392.012C636.215 392.92 635.854 394.121 635.854 395.615C635.854 397.07 636.2 398.271 636.894 399.219C637.597 400.156 638.534 400.625 639.706 400.625ZM660.727 400.625C660.16 401.299 659.481 401.841 658.69 402.251C657.909 402.661 657.05 402.866 656.112 402.866C654.882 402.866 653.808 402.563 652.89 401.958C651.981 401.353 651.278 400.503 650.78 399.409C650.282 398.306 650.033 397.09 650.033 395.762C650.033 394.336 650.302 393.052 650.839 391.909C651.386 390.767 652.157 389.893 653.153 389.287C654.149 388.682 655.312 388.379 656.64 388.379C658.749 388.379 660.409 389.17 661.62 390.752C662.841 392.324 663.451 394.473 663.451 397.197V397.988C663.451 402.139 662.631 405.171 660.99 407.085C659.35 408.989 656.874 409.966 653.563 410.015H653.036V407.729H653.607C655.844 407.69 657.562 407.109 658.764 405.986C659.965 404.854 660.619 403.066 660.727 400.625ZM656.552 400.625C657.46 400.625 658.295 400.347 659.057 399.79C659.828 399.233 660.39 398.545 660.741 397.725V396.641C660.741 394.863 660.355 393.418 659.584 392.305C658.812 391.191 657.836 390.635 656.654 390.635C655.463 390.635 654.506 391.094 653.783 392.012C653.061 392.92 652.699 394.121 652.699 395.615C652.699 397.07 653.046 398.271 653.739 399.219C654.442 400.156 655.38 400.625 656.552 400.625Z" fill="black"/>
<path d="M320.531 456.142H311.288V463.7H322.025V466H308.476V444.672H321.879V446.986H311.288V453.842H320.531V456.142ZM327.65 450.15L327.724 451.908C328.886 450.541 330.453 449.857 332.426 449.857C334.643 449.857 336.151 450.707 336.952 452.406C337.479 451.645 338.163 451.029 339.003 450.561C339.853 450.092 340.854 449.857 342.006 449.857C345.482 449.857 347.25 451.698 347.309 455.38V466H344.599V455.541C344.599 454.408 344.34 453.563 343.822 453.007C343.305 452.44 342.436 452.157 341.215 452.157C340.209 452.157 339.374 452.46 338.71 453.065C338.046 453.661 337.66 454.467 337.553 455.482V466H334.828V455.614C334.828 453.31 333.7 452.157 331.444 452.157C329.667 452.157 328.451 452.914 327.797 454.428V466H325.087V450.15H327.65ZM361.195 466C361.039 465.688 360.912 465.131 360.814 464.33C359.555 465.639 358.051 466.293 356.303 466.293C354.74 466.293 353.456 465.854 352.45 464.975C351.454 464.086 350.956 462.963 350.956 461.605C350.956 459.955 351.581 458.676 352.831 457.768C354.091 456.85 355.858 456.391 358.134 456.391H360.771V455.146C360.771 454.198 360.487 453.446 359.921 452.89C359.354 452.323 358.52 452.04 357.416 452.04C356.449 452.04 355.639 452.284 354.984 452.772C354.33 453.261 354.003 453.852 354.003 454.545H351.278C351.278 453.754 351.557 452.992 352.113 452.26C352.68 451.518 353.441 450.932 354.398 450.502C355.365 450.072 356.425 449.857 357.577 449.857C359.403 449.857 360.834 450.316 361.869 451.234C362.904 452.143 363.441 453.397 363.48 454.999V462.294C363.48 463.749 363.666 464.906 364.037 465.766V466H361.195ZM356.698 463.935C357.548 463.935 358.354 463.715 359.115 463.275C359.877 462.836 360.429 462.265 360.771 461.562V458.31H358.646C355.326 458.31 353.666 459.281 353.666 461.225C353.666 462.074 353.949 462.738 354.516 463.217C355.082 463.695 355.81 463.935 356.698 463.935ZM370.673 466H367.963V450.15H370.673V466ZM367.743 445.946C367.743 445.507 367.875 445.136 368.139 444.833C368.412 444.53 368.812 444.379 369.34 444.379C369.867 444.379 370.268 444.53 370.541 444.833C370.814 445.136 370.951 445.507 370.951 445.946C370.951 446.386 370.814 446.752 370.541 447.045C370.268 447.338 369.867 447.484 369.34 447.484C368.812 447.484 368.412 447.338 368.139 447.045C367.875 446.752 367.743 446.386 367.743 445.946ZM377.968 466H375.258V443.5H377.968V466ZM382.23 464.579C382.23 464.11 382.367 463.72 382.641 463.407C382.924 463.095 383.344 462.938 383.9 462.938C384.457 462.938 384.877 463.095 385.16 463.407C385.453 463.72 385.6 464.11 385.6 464.579C385.6 465.028 385.453 465.404 385.16 465.707C384.877 466.01 384.457 466.161 383.9 466.161C383.344 466.161 382.924 466.01 382.641 465.707C382.367 465.404 382.23 465.028 382.23 464.579ZM382.245 451.645C382.245 451.176 382.382 450.785 382.655 450.473C382.938 450.16 383.358 450.004 383.915 450.004C384.472 450.004 384.892 450.16 385.175 450.473C385.468 450.785 385.614 451.176 385.614 451.645C385.614 452.094 385.468 452.47 385.175 452.772C384.892 453.075 384.472 453.227 383.915 453.227C383.358 453.227 382.938 453.075 382.655 452.772C382.382 452.47 382.245 452.094 382.245 451.645ZM399.823 450.15V467.831C399.823 470.878 398.441 472.401 395.678 472.401C395.082 472.401 394.53 472.313 394.022 472.138V469.97C394.335 470.048 394.745 470.087 395.253 470.087C395.858 470.087 396.317 469.921 396.63 469.589C396.952 469.267 397.113 468.7 397.113 467.89V450.15H399.823ZM396.835 445.946C396.835 445.517 396.967 445.15 397.23 444.848C397.504 444.535 397.899 444.379 398.417 444.379C398.944 444.379 399.345 444.53 399.618 444.833C399.892 445.136 400.028 445.507 400.028 445.946C400.028 446.386 399.892 446.752 399.618 447.045C399.345 447.338 398.944 447.484 398.417 447.484C397.89 447.484 397.494 447.338 397.23 447.045C396.967 446.752 396.835 446.386 396.835 445.946ZM403.485 457.929C403.485 456.376 403.788 454.979 404.394 453.739C405.009 452.499 405.858 451.542 406.942 450.868C408.036 450.194 409.281 449.857 410.678 449.857C412.836 449.857 414.579 450.604 415.907 452.099C417.245 453.593 417.914 455.58 417.914 458.061V458.251C417.914 459.794 417.616 461.181 417.021 462.411C416.435 463.632 415.59 464.584 414.486 465.268C413.393 465.951 412.133 466.293 410.707 466.293C408.559 466.293 406.815 465.546 405.478 464.052C404.149 462.558 403.485 460.58 403.485 458.119V457.929ZM406.21 458.251C406.21 460.009 406.615 461.42 407.426 462.484C408.246 463.549 409.34 464.081 410.707 464.081C412.084 464.081 413.178 463.544 413.988 462.47C414.799 461.386 415.204 459.872 415.204 457.929C415.204 456.19 414.789 454.784 413.959 453.71C413.139 452.626 412.045 452.084 410.678 452.084C409.34 452.084 408.261 452.616 407.44 453.681C406.62 454.745 406.21 456.269 406.21 458.251ZM430.541 461.796C430.541 461.063 430.263 460.497 429.706 460.097C429.159 459.687 428.197 459.335 426.82 459.042C425.453 458.749 424.364 458.397 423.554 457.987C422.753 457.577 422.157 457.089 421.767 456.522C421.386 455.956 421.195 455.282 421.195 454.501C421.195 453.202 421.742 452.104 422.836 451.205C423.939 450.307 425.346 449.857 427.055 449.857C428.852 449.857 430.307 450.321 431.42 451.249C432.543 452.177 433.104 453.363 433.104 454.809H430.38C430.38 454.066 430.062 453.427 429.428 452.89C428.803 452.353 428.012 452.084 427.055 452.084C426.068 452.084 425.297 452.299 424.74 452.729C424.184 453.158 423.905 453.72 423.905 454.413C423.905 455.067 424.164 455.561 424.682 455.893C425.199 456.225 426.132 456.542 427.479 456.845C428.837 457.147 429.936 457.509 430.775 457.929C431.615 458.349 432.235 458.856 432.636 459.452C433.046 460.038 433.251 460.756 433.251 461.605C433.251 463.021 432.685 464.159 431.552 465.019C430.419 465.868 428.949 466.293 427.143 466.293C425.873 466.293 424.75 466.068 423.773 465.619C422.797 465.17 422.03 464.545 421.474 463.744C420.927 462.934 420.653 462.06 420.653 461.122H423.363C423.412 462.03 423.773 462.753 424.447 463.29C425.131 463.817 426.029 464.081 427.143 464.081C428.168 464.081 428.988 463.876 429.604 463.466C430.229 463.046 430.541 462.489 430.541 461.796ZM443.358 466.293C441.21 466.293 439.462 465.59 438.114 464.184C436.767 462.768 436.093 460.878 436.093 458.515V458.017C436.093 456.444 436.391 455.043 436.986 453.812C437.592 452.572 438.432 451.605 439.506 450.912C440.59 450.209 441.762 449.857 443.021 449.857C445.082 449.857 446.684 450.536 447.826 451.894C448.969 453.251 449.54 455.194 449.54 457.724V458.852H438.803C438.842 460.414 439.296 461.679 440.165 462.646C441.044 463.603 442.157 464.081 443.505 464.081C444.462 464.081 445.272 463.886 445.937 463.495C446.601 463.104 447.182 462.587 447.68 461.942L449.335 463.231C448.007 465.272 446.015 466.293 443.358 466.293ZM443.021 452.084C441.928 452.084 441.01 452.484 440.268 453.285C439.525 454.076 439.066 455.189 438.891 456.625H446.83V456.42C446.752 455.043 446.381 453.979 445.717 453.227C445.053 452.465 444.154 452.084 443.021 452.084ZM476.098 458.646C475.98 461.01 475.395 462.875 474.34 464.242C473.285 465.609 471.874 466.293 470.106 466.293C468.28 466.293 467.108 465.473 466.591 463.832C466.063 464.662 465.458 465.282 464.774 465.692C464.101 466.093 463.402 466.293 462.68 466.293C461.293 466.293 460.243 465.727 459.53 464.594C458.817 463.461 458.554 461.894 458.739 459.892C458.886 458.28 459.252 456.845 459.838 455.585C460.434 454.315 461.195 453.319 462.123 452.597C463.061 451.874 464.042 451.513 465.067 451.513C465.858 451.513 466.566 451.62 467.191 451.835C467.816 452.04 468.52 452.45 469.301 453.065L468.539 461.181C468.354 463.437 468.979 464.564 470.414 464.564C471.518 464.564 472.411 464.018 473.095 462.924C473.778 461.83 474.149 460.404 474.208 458.646C474.394 454.848 473.686 451.952 472.084 449.96C470.492 447.968 468.065 446.972 464.804 446.972C462.841 446.972 461.098 447.46 459.574 448.437C458.051 449.403 456.85 450.805 455.971 452.641C455.092 454.477 454.599 456.596 454.491 458.998C454.374 461.42 454.667 463.524 455.37 465.312C456.073 467.089 457.143 468.446 458.578 469.384C460.023 470.331 461.767 470.805 463.808 470.805C464.687 470.805 465.565 470.697 466.444 470.482C467.333 470.268 468.07 469.989 468.656 469.647L469.198 471.332C468.593 471.713 467.787 472.025 466.781 472.27C465.785 472.514 464.774 472.636 463.749 472.636C461.308 472.636 459.208 472.084 457.45 470.98C455.692 469.887 454.374 468.305 453.495 466.234C452.626 464.174 452.25 461.762 452.367 458.998C452.484 456.312 453.085 453.9 454.169 451.762C455.253 449.613 456.723 447.958 458.578 446.796C460.434 445.624 462.528 445.038 464.862 445.038C467.294 445.038 469.379 445.585 471.117 446.679C472.855 447.772 474.149 449.35 474.999 451.41C475.849 453.471 476.215 455.883 476.098 458.646ZM461.068 459.892C460.932 461.278 461.059 462.343 461.449 463.085C461.85 463.827 462.479 464.198 463.339 464.198C463.925 464.198 464.486 463.949 465.023 463.451C465.57 462.953 466.02 462.24 466.371 461.312L466.386 461.181L467.06 453.812C466.513 453.529 465.927 453.388 465.302 453.388C464.159 453.388 463.212 453.969 462.46 455.131C461.718 456.293 461.254 457.88 461.068 459.892ZM486.22 466.293C484.071 466.293 482.323 465.59 480.976 464.184C479.628 462.768 478.954 460.878 478.954 458.515V458.017C478.954 456.444 479.252 455.043 479.848 453.812C480.453 452.572 481.293 451.605 482.367 450.912C483.451 450.209 484.623 449.857 485.883 449.857C487.943 449.857 489.545 450.536 490.688 451.894C491.83 453.251 492.401 455.194 492.401 457.724V458.852H481.664C481.703 460.414 482.157 461.679 483.026 462.646C483.905 463.603 485.019 464.081 486.366 464.081C487.323 464.081 488.134 463.886 488.798 463.495C489.462 463.104 490.043 462.587 490.541 461.942L492.196 463.231C490.868 465.272 488.876 466.293 486.22 466.293ZM485.883 452.084C484.789 452.084 483.871 452.484 483.129 453.285C482.387 454.076 481.928 455.189 481.752 456.625H489.691V456.42C489.613 455.043 489.242 453.979 488.578 453.227C487.914 452.465 487.016 452.084 485.883 452.084ZM498.1 450.15L498.173 451.908C499.335 450.541 500.902 449.857 502.875 449.857C505.092 449.857 506.601 450.707 507.401 452.406C507.929 451.645 508.612 451.029 509.452 450.561C510.302 450.092 511.303 449.857 512.455 449.857C515.932 449.857 517.699 451.698 517.758 455.38V466H515.048V455.541C515.048 454.408 514.789 453.563 514.271 453.007C513.754 452.44 512.885 452.157 511.664 452.157C510.658 452.157 509.823 452.46 509.159 453.065C508.495 453.661 508.109 454.467 508.002 455.482V466H505.277V455.614C505.277 453.31 504.149 452.157 501.894 452.157C500.116 452.157 498.9 452.914 498.246 454.428V466H495.536V450.15H498.1ZM531.645 466C531.488 465.688 531.361 465.131 531.264 464.33C530.004 465.639 528.5 466.293 526.752 466.293C525.189 466.293 523.905 465.854 522.899 464.975C521.903 464.086 521.405 462.963 521.405 461.605C521.405 459.955 522.03 458.676 523.28 457.768C524.54 456.85 526.308 456.391 528.583 456.391H531.22V455.146C531.22 454.198 530.937 453.446 530.37 452.89C529.804 452.323 528.969 452.04 527.865 452.04C526.898 452.04 526.088 452.284 525.434 452.772C524.779 453.261 524.452 453.852 524.452 454.545H521.728C521.728 453.754 522.006 452.992 522.562 452.26C523.129 451.518 523.891 450.932 524.848 450.502C525.814 450.072 526.874 449.857 528.026 449.857C529.853 449.857 531.283 450.316 532.318 451.234C533.354 452.143 533.891 453.397 533.93 454.999V462.294C533.93 463.749 534.115 464.906 534.486 465.766V466H531.645ZM527.147 463.935C527.997 463.935 528.803 463.715 529.564 463.275C530.326 462.836 530.878 462.265 531.22 461.562V458.31H529.096C525.775 458.31 524.115 459.281 524.115 461.225C524.115 462.074 524.398 462.738 524.965 463.217C525.531 463.695 526.259 463.935 527.147 463.935ZM541.122 466H538.412V450.15H541.122V466ZM538.192 445.946C538.192 445.507 538.324 445.136 538.588 444.833C538.861 444.53 539.262 444.379 539.789 444.379C540.316 444.379 540.717 444.53 540.99 444.833C541.264 445.136 541.4 445.507 541.4 445.946C541.4 446.386 541.264 446.752 540.99 447.045C540.717 447.338 540.316 447.484 539.789 447.484C539.262 447.484 538.861 447.338 538.588 447.045C538.324 446.752 538.192 446.386 538.192 445.946ZM548.417 466H545.707V443.5H548.417V466ZM552.826 464.579C552.826 464.11 552.963 463.72 553.236 463.407C553.52 463.095 553.939 462.938 554.496 462.938C555.053 462.938 555.473 463.095 555.756 463.407C556.049 463.72 556.195 464.11 556.195 464.579C556.195 465.028 556.049 465.404 555.756 465.707C555.473 466.01 555.053 466.161 554.496 466.161C553.939 466.161 553.52 466.01 553.236 465.707C552.963 465.404 552.826 465.028 552.826 464.579ZM567.035 464.081C568.002 464.081 568.847 463.788 569.569 463.202C570.292 462.616 570.692 461.884 570.771 461.005H573.334C573.285 461.913 572.973 462.777 572.396 463.598C571.82 464.418 571.049 465.072 570.082 465.561C569.125 466.049 568.109 466.293 567.035 466.293C564.877 466.293 563.158 465.575 561.879 464.14C560.609 462.694 559.975 460.722 559.975 458.222V457.768C559.975 456.225 560.258 454.853 560.824 453.651C561.391 452.45 562.201 451.518 563.256 450.854C564.32 450.189 565.575 449.857 567.021 449.857C568.798 449.857 570.272 450.39 571.444 451.454C572.626 452.519 573.256 453.9 573.334 455.6H570.771C570.692 454.574 570.302 453.734 569.599 453.08C568.905 452.416 568.046 452.084 567.021 452.084C565.644 452.084 564.574 452.582 563.812 453.578C563.061 454.564 562.685 455.995 562.685 457.87V458.383C562.685 460.209 563.061 461.615 563.812 462.602C564.564 463.588 565.639 464.081 567.035 464.081ZM575.663 457.929C575.663 456.376 575.966 454.979 576.571 453.739C577.187 452.499 578.036 451.542 579.12 450.868C580.214 450.194 581.459 449.857 582.855 449.857C585.014 449.857 586.757 450.604 588.085 452.099C589.423 453.593 590.092 455.58 590.092 458.061V458.251C590.092 459.794 589.794 461.181 589.198 462.411C588.612 463.632 587.768 464.584 586.664 465.268C585.57 465.951 584.311 466.293 582.885 466.293C580.736 466.293 578.993 465.546 577.655 464.052C576.327 462.558 575.663 460.58 575.663 458.119V457.929ZM578.388 458.251C578.388 460.009 578.793 461.42 579.604 462.484C580.424 463.549 581.518 464.081 582.885 464.081C584.262 464.081 585.355 463.544 586.166 462.47C586.977 461.386 587.382 459.872 587.382 457.929C587.382 456.19 586.967 454.784 586.137 453.71C585.316 452.626 584.223 452.084 582.855 452.084C581.518 452.084 580.438 452.616 579.618 453.681C578.798 454.745 578.388 456.269 578.388 458.251ZM596.039 450.15L596.112 451.908C597.274 450.541 598.842 449.857 600.814 449.857C603.031 449.857 604.54 450.707 605.341 452.406C605.868 451.645 606.552 451.029 607.392 450.561C608.241 450.092 609.242 449.857 610.395 449.857C613.871 449.857 615.639 451.698 615.697 455.38V466H612.987V455.541C612.987 454.408 612.729 453.563 612.211 453.007C611.693 452.44 610.824 452.157 609.604 452.157C608.598 452.157 607.763 452.46 607.099 453.065C606.435 453.661 606.049 454.467 605.941 455.482V466H603.217V455.614C603.217 453.31 602.089 452.157 599.833 452.157C598.056 452.157 596.84 452.914 596.186 454.428V466H593.476V450.15H596.039Z" fill="black"/>
<rect x="270" y="200" width="900" height="70" fill="#C4C4C4"/>
<path d="M317.411 224.672H320.238V239.774C320.238 241.815 319.623 243.412 318.393 244.564C317.172 245.717 315.541 246.293 313.5 246.293C311.381 246.293 309.73 245.751 308.549 244.667C307.367 243.583 306.776 242.064 306.776 240.111H309.589C309.589 241.332 309.921 242.284 310.585 242.968C311.259 243.651 312.23 243.993 313.5 243.993C314.662 243.993 315.6 243.627 316.312 242.895C317.035 242.162 317.401 241.137 317.411 239.818V224.672ZM323.886 237.929C323.886 236.376 324.188 234.979 324.794 233.739C325.409 232.499 326.259 231.542 327.343 230.868C328.437 230.194 329.682 229.857 331.078 229.857C333.236 229.857 334.979 230.604 336.308 232.099C337.646 233.593 338.314 235.58 338.314 238.061V238.251C338.314 239.794 338.017 241.181 337.421 242.411C336.835 243.632 335.99 244.584 334.887 245.268C333.793 245.951 332.533 246.293 331.107 246.293C328.959 246.293 327.216 245.546 325.878 244.052C324.55 242.558 323.886 240.58 323.886 238.119V237.929ZM326.61 238.251C326.61 240.009 327.016 241.42 327.826 242.484C328.646 243.549 329.74 244.081 331.107 244.081C332.484 244.081 333.578 243.544 334.389 242.47C335.199 241.386 335.604 239.872 335.604 237.929C335.604 236.19 335.189 234.784 334.359 233.71C333.539 232.626 332.445 232.084 331.078 232.084C329.74 232.084 328.661 232.616 327.841 233.681C327.021 234.745 326.61 236.269 326.61 238.251ZM351.498 246C351.342 245.688 351.215 245.131 351.117 244.33C349.857 245.639 348.354 246.293 346.605 246.293C345.043 246.293 343.759 245.854 342.753 244.975C341.757 244.086 341.259 242.963 341.259 241.605C341.259 239.955 341.884 238.676 343.134 237.768C344.394 236.85 346.161 236.391 348.437 236.391H351.073V235.146C351.073 234.198 350.79 233.446 350.224 232.89C349.657 232.323 348.822 232.04 347.719 232.04C346.752 232.04 345.941 232.284 345.287 232.772C344.633 233.261 344.306 233.852 344.306 234.545H341.581C341.581 233.754 341.859 232.992 342.416 232.26C342.982 231.518 343.744 230.932 344.701 230.502C345.668 230.072 346.728 229.857 347.88 229.857C349.706 229.857 351.137 230.316 352.172 231.234C353.207 232.143 353.744 233.397 353.783 234.999V242.294C353.783 243.749 353.969 244.906 354.34 245.766V246H351.498ZM347.001 243.935C347.851 243.935 348.656 243.715 349.418 243.275C350.18 242.836 350.731 242.265 351.073 241.562V238.31H348.949C345.629 238.31 343.969 239.281 343.969 241.225C343.969 242.074 344.252 242.738 344.818 243.217C345.385 243.695 346.112 243.935 347.001 243.935ZM353.373 223.969C353.373 225.023 353.07 225.878 352.465 226.532C351.869 227.187 351.122 227.514 350.224 227.514C349.823 227.514 349.477 227.465 349.184 227.367C348.891 227.27 348.505 227.069 348.026 226.767C347.558 226.464 347.216 226.283 347.001 226.225C346.796 226.156 346.557 226.122 346.283 226.122C345.883 226.122 345.541 226.278 345.258 226.591C344.975 226.894 344.833 227.284 344.833 227.763L343.017 227.66C343.017 226.615 343.31 225.751 343.896 225.067C344.491 224.384 345.243 224.042 346.151 224.042C346.493 224.042 346.801 224.091 347.074 224.188C347.348 224.286 347.719 224.477 348.188 224.76C348.656 225.043 349.013 225.229 349.257 225.316C349.511 225.404 349.789 225.448 350.092 225.448C350.512 225.448 350.858 225.282 351.132 224.95C351.415 224.618 351.557 224.232 351.557 223.793L353.373 223.969ZM357.313 237.929C357.313 236.376 357.616 234.979 358.222 233.739C358.837 232.499 359.687 231.542 360.771 230.868C361.864 230.194 363.109 229.857 364.506 229.857C366.664 229.857 368.407 230.604 369.735 232.099C371.073 233.593 371.742 235.58 371.742 238.061V238.251C371.742 239.794 371.444 241.181 370.849 242.411C370.263 243.632 369.418 244.584 368.314 245.268C367.221 245.951 365.961 246.293 364.535 246.293C362.387 246.293 360.644 245.546 359.306 244.052C357.978 242.558 357.313 240.58 357.313 238.119V237.929ZM360.038 238.251C360.038 240.009 360.443 241.42 361.254 242.484C362.074 243.549 363.168 244.081 364.535 244.081C365.912 244.081 367.006 243.544 367.816 242.47C368.627 241.386 369.032 239.872 369.032 237.929C369.032 236.19 368.617 234.784 367.787 233.71C366.967 232.626 365.873 232.084 364.506 232.084C363.168 232.084 362.089 232.616 361.269 233.681C360.448 234.745 360.038 236.269 360.038 238.251Z" fill="black"/>
<path d="M1087.5 254L1067.15 223.25H1107.85L1087.5 254Z" fill="black"/>
<rect x="264" y="494" width="900" height="70" fill="#C4C4C4"/>
<path d="M305.288 531.65V540H302.476V518.672H310.342C312.676 518.672 314.502 519.268 315.82 520.459C317.148 521.65 317.812 523.228 317.812 525.19C317.812 527.261 317.163 528.857 315.864 529.98C314.575 531.094 312.725 531.65 310.312 531.65H305.288ZM305.288 529.351H310.342C311.846 529.351 312.998 528.999 313.799 528.296C314.6 527.583 315 526.558 315 525.22C315 523.95 314.6 522.935 313.799 522.173C312.998 521.411 311.899 521.016 310.503 520.986H305.288V529.351ZM327.349 540.293C325.2 540.293 323.452 539.59 322.104 538.184C320.757 536.768 320.083 534.878 320.083 532.515V532.017C320.083 530.444 320.381 529.043 320.977 527.812C321.582 526.572 322.422 525.605 323.496 524.912C324.58 524.209 325.752 523.857 327.012 523.857C329.072 523.857 330.674 524.536 331.816 525.894C332.959 527.251 333.53 529.194 333.53 531.724V532.852H322.793C322.832 534.414 323.286 535.679 324.155 536.646C325.034 537.603 326.147 538.081 327.495 538.081C328.452 538.081 329.263 537.886 329.927 537.495C330.591 537.104 331.172 536.587 331.67 535.942L333.325 537.231C331.997 539.272 330.005 540.293 327.349 540.293ZM327.012 526.084C325.918 526.084 325 526.484 324.258 527.285C323.516 528.076 323.057 529.189 322.881 530.625H330.82V530.42C330.742 529.043 330.371 527.979 329.707 527.227C329.043 526.465 328.145 526.084 327.012 526.084ZM336.021 531.943C336.021 529.512 336.597 527.559 337.749 526.084C338.901 524.6 340.41 523.857 342.275 523.857C344.131 523.857 345.601 524.492 346.685 525.762V517.5H349.395V540H346.904L346.772 538.301C345.688 539.629 344.18 540.293 342.246 540.293C340.41 540.293 338.911 539.541 337.749 538.037C336.597 536.533 336.021 534.57 336.021 532.148V531.943ZM338.73 532.251C338.73 534.048 339.102 535.454 339.844 536.47C340.586 537.485 341.611 537.993 342.92 537.993C344.639 537.993 345.894 537.222 346.685 535.679V528.398C345.874 526.904 344.629 526.157 342.949 526.157C341.621 526.157 340.586 526.67 339.844 527.695C339.102 528.721 338.73 530.239 338.73 532.251ZM361.274 526.582C360.864 526.514 360.42 526.479 359.941 526.479C358.164 526.479 356.958 527.236 356.323 528.75V540H353.613V524.15H356.25L356.294 525.981C357.183 524.565 358.442 523.857 360.073 523.857C360.601 523.857 361.001 523.926 361.274 524.062V526.582ZM362.769 531.929C362.769 530.376 363.071 528.979 363.677 527.739C364.292 526.499 365.142 525.542 366.226 524.868C367.319 524.194 368.564 523.857 369.961 523.857C372.119 523.857 373.862 524.604 375.19 526.099C376.528 527.593 377.197 529.58 377.197 532.061V532.251C377.197 533.794 376.899 535.181 376.304 536.411C375.718 537.632 374.873 538.584 373.77 539.268C372.676 539.951 371.416 540.293 369.99 540.293C367.842 540.293 366.099 539.546 364.761 538.052C363.433 536.558 362.769 534.58 362.769 532.119V531.929ZM365.493 532.251C365.493 534.009 365.898 535.42 366.709 536.484C367.529 537.549 368.623 538.081 369.99 538.081C371.367 538.081 372.461 537.544 373.271 536.47C374.082 535.386 374.487 533.872 374.487 531.929C374.487 530.19 374.072 528.784 373.242 527.71C372.422 526.626 371.328 526.084 369.961 526.084C368.623 526.084 367.544 526.616 366.724 527.681C365.903 528.745 365.493 530.269 365.493 532.251Z" fill="black"/>
<path d="M1081.5 548L1061.15 517.25H1101.85L1081.5 548Z" fill="black"/>
<rect x="264" y="585" width="900" height="70" fill="#C4C4C4"/>
<rect x="270" y="291" width="900" height="70" fill="#C4C4C4"/>
<path d="M317.411 315.672H320.238V330.774C320.238 332.815 319.623 334.412 318.393 335.564C317.172 336.717 315.541 337.293 313.5 337.293C311.381 337.293 309.73 336.751 308.549 335.667C307.367 334.583 306.776 333.064 306.776 331.111H309.589C309.589 332.332 309.921 333.284 310.585 333.968C311.259 334.651 312.23 334.993 313.5 334.993C314.662 334.993 315.6 334.627 316.312 333.895C317.035 333.162 317.401 332.137 317.411 330.818V315.672ZM323.886 328.929C323.886 327.376 324.188 325.979 324.794 324.739C325.409 323.499 326.259 322.542 327.343 321.868C328.437 321.194 329.682 320.857 331.078 320.857C333.236 320.857 334.979 321.604 336.308 323.099C337.646 324.593 338.314 326.58 338.314 329.061V329.251C338.314 330.794 338.017 332.181 337.421 333.411C336.835 334.632 335.99 335.584 334.887 336.268C333.793 336.951 332.533 337.293 331.107 337.293C328.959 337.293 327.216 336.546 325.878 335.052C324.55 333.558 323.886 331.58 323.886 329.119V328.929ZM326.61 329.251C326.61 331.009 327.016 332.42 327.826 333.484C328.646 334.549 329.74 335.081 331.107 335.081C332.484 335.081 333.578 334.544 334.389 333.47C335.199 332.386 335.604 330.872 335.604 328.929C335.604 327.19 335.189 325.784 334.359 324.71C333.539 323.626 332.445 323.084 331.078 323.084C329.74 323.084 328.661 323.616 327.841 324.681C327.021 325.745 326.61 327.269 326.61 329.251ZM350.941 332.796C350.941 332.063 350.663 331.497 350.106 331.097C349.56 330.687 348.598 330.335 347.221 330.042C345.854 329.749 344.765 329.397 343.954 328.987C343.153 328.577 342.558 328.089 342.167 327.522C341.786 326.956 341.596 326.282 341.596 325.501C341.596 324.202 342.143 323.104 343.236 322.205C344.34 321.307 345.746 320.857 347.455 320.857C349.252 320.857 350.707 321.321 351.82 322.249C352.943 323.177 353.505 324.363 353.505 325.809H350.78C350.78 325.066 350.463 324.427 349.828 323.89C349.203 323.353 348.412 323.084 347.455 323.084C346.469 323.084 345.697 323.299 345.141 323.729C344.584 324.158 344.306 324.72 344.306 325.413C344.306 326.067 344.564 326.561 345.082 326.893C345.6 327.225 346.532 327.542 347.88 327.845C349.237 328.147 350.336 328.509 351.176 328.929C352.016 329.349 352.636 329.856 353.036 330.452C353.446 331.038 353.651 331.756 353.651 332.605C353.651 334.021 353.085 335.159 351.952 336.019C350.819 336.868 349.35 337.293 347.543 337.293C346.273 337.293 345.15 337.068 344.174 336.619C343.197 336.17 342.431 335.545 341.874 334.744C341.327 333.934 341.054 333.06 341.054 332.122H343.764C343.812 333.03 344.174 333.753 344.848 334.29C345.531 334.817 346.43 335.081 347.543 335.081C348.568 335.081 349.389 334.876 350.004 334.466C350.629 334.046 350.941 333.489 350.941 332.796ZM363.759 337.293C361.61 337.293 359.862 336.59 358.515 335.184C357.167 333.768 356.493 331.878 356.493 329.515V329.017C356.493 327.444 356.791 326.043 357.387 324.812C357.992 323.572 358.832 322.605 359.906 321.912C360.99 321.209 362.162 320.857 363.422 320.857C365.482 320.857 367.084 321.536 368.227 322.894C369.369 324.251 369.94 326.194 369.94 328.724V329.852H359.203C359.242 331.414 359.696 332.679 360.565 333.646C361.444 334.603 362.558 335.081 363.905 335.081C364.862 335.081 365.673 334.886 366.337 334.495C367.001 334.104 367.582 333.587 368.08 332.942L369.735 334.231C368.407 336.272 366.415 337.293 363.759 337.293ZM363.422 323.084C362.328 323.084 361.41 323.484 360.668 324.285C359.926 325.076 359.467 326.189 359.291 327.625H367.23V327.42C367.152 326.043 366.781 324.979 366.117 324.227C365.453 323.465 364.555 323.084 363.422 323.084ZM364.74 314.5H368.021L364.096 318.807H361.913L364.74 314.5Z" fill="black"/>
<path d="M1087.5 309L1107.85 339.75H1067.15L1087.5 309Z" fill="black"/>
<path d="M314.253 626.434H305.317L303.311 632H300.41L308.555 610.672H311.016L319.175 632H316.289L314.253 626.434ZM306.167 624.119H313.418L309.785 614.144L306.167 624.119ZM320.962 623.943C320.962 621.512 321.538 619.559 322.69 618.084C323.843 616.6 325.352 615.857 327.217 615.857C329.072 615.857 330.542 616.492 331.626 617.762V609.5H334.336V632H331.846L331.714 630.301C330.63 631.629 329.121 632.293 327.188 632.293C325.352 632.293 323.853 631.541 322.69 630.037C321.538 628.533 320.962 626.57 320.962 624.148V623.943ZM323.672 624.251C323.672 626.048 324.043 627.454 324.785 628.47C325.527 629.485 326.553 629.993 327.861 629.993C329.58 629.993 330.835 629.222 331.626 627.679V620.398C330.815 618.904 329.57 618.157 327.891 618.157C326.562 618.157 325.527 618.67 324.785 619.695C324.043 620.721 323.672 622.239 323.672 624.251ZM341.499 632H338.789V616.15H341.499V632ZM338.569 611.946C338.569 611.507 338.701 611.136 338.965 610.833C339.238 610.53 339.639 610.379 340.166 610.379C340.693 610.379 341.094 610.53 341.367 610.833C341.641 611.136 341.777 611.507 341.777 611.946C341.777 612.386 341.641 612.752 341.367 613.045C341.094 613.338 340.693 613.484 340.166 613.484C339.639 613.484 339.238 613.338 338.965 613.045C338.701 612.752 338.569 612.386 338.569 611.946ZM352.207 630.081C353.174 630.081 354.019 629.788 354.741 629.202C355.464 628.616 355.864 627.884 355.942 627.005H358.506C358.457 627.913 358.145 628.777 357.568 629.598C356.992 630.418 356.221 631.072 355.254 631.561C354.297 632.049 353.281 632.293 352.207 632.293C350.049 632.293 348.33 631.575 347.051 630.14C345.781 628.694 345.146 626.722 345.146 624.222V623.768C345.146 622.225 345.43 620.853 345.996 619.651C346.562 618.45 347.373 617.518 348.428 616.854C349.492 616.189 350.747 615.857 352.192 615.857C353.97 615.857 355.444 616.39 356.616 617.454C357.798 618.519 358.428 619.9 358.506 621.6H355.942C355.864 620.574 355.474 619.734 354.771 619.08C354.077 618.416 353.218 618.084 352.192 618.084C350.815 618.084 349.746 618.582 348.984 619.578C348.232 620.564 347.856 621.995 347.856 623.87V624.383C347.856 626.209 348.232 627.615 348.984 628.602C349.736 629.588 350.811 630.081 352.207 630.081ZM364.497 632H361.787V616.15H364.497V632ZM361.567 611.946C361.567 611.507 361.699 611.136 361.963 610.833C362.236 610.53 362.637 610.379 363.164 610.379C363.691 610.379 364.092 610.53 364.365 610.833C364.639 611.136 364.775 611.507 364.775 611.946C364.775 612.386 364.639 612.752 364.365 613.045C364.092 613.338 363.691 613.484 363.164 613.484C362.637 613.484 362.236 613.338 361.963 613.045C361.699 612.752 361.567 612.386 361.567 611.946ZM368.13 623.929C368.13 622.376 368.433 620.979 369.038 619.739C369.653 618.499 370.503 617.542 371.587 616.868C372.681 616.194 373.926 615.857 375.322 615.857C377.48 615.857 379.224 616.604 380.552 618.099C381.89 619.593 382.559 621.58 382.559 624.061V624.251C382.559 625.794 382.261 627.181 381.665 628.411C381.079 629.632 380.234 630.584 379.131 631.268C378.037 631.951 376.777 632.293 375.352 632.293C373.203 632.293 371.46 631.546 370.122 630.052C368.794 628.558 368.13 626.58 368.13 624.119V623.929ZM370.854 624.251C370.854 626.009 371.26 627.42 372.07 628.484C372.891 629.549 373.984 630.081 375.352 630.081C376.729 630.081 377.822 629.544 378.633 628.47C379.443 627.386 379.849 625.872 379.849 623.929C379.849 622.19 379.434 620.784 378.604 619.71C377.783 618.626 376.689 618.084 375.322 618.084C373.984 618.084 372.905 618.616 372.085 619.681C371.265 620.745 370.854 622.269 370.854 624.251ZM388.521 616.15L388.608 618.143C389.819 616.619 391.401 615.857 393.354 615.857C396.704 615.857 398.394 617.747 398.423 621.526V632H395.713V621.512C395.703 620.369 395.439 619.524 394.922 618.978C394.414 618.431 393.618 618.157 392.534 618.157C391.655 618.157 390.884 618.392 390.22 618.86C389.556 619.329 389.038 619.944 388.667 620.706V632H385.957V616.15H388.521ZM412.295 632C412.139 631.688 412.012 631.131 411.914 630.33C410.654 631.639 409.15 632.293 407.402 632.293C405.84 632.293 404.556 631.854 403.55 630.975C402.554 630.086 402.056 628.963 402.056 627.605C402.056 625.955 402.681 624.676 403.931 623.768C405.19 622.85 406.958 622.391 409.233 622.391H411.87V621.146C411.87 620.198 411.587 619.446 411.021 618.89C410.454 618.323 409.619 618.04 408.516 618.04C407.549 618.04 406.738 618.284 406.084 618.772C405.43 619.261 405.103 619.852 405.103 620.545H402.378C402.378 619.754 402.656 618.992 403.213 618.26C403.779 617.518 404.541 616.932 405.498 616.502C406.465 616.072 407.524 615.857 408.677 615.857C410.503 615.857 411.934 616.316 412.969 617.234C414.004 618.143 414.541 619.397 414.58 620.999V628.294C414.58 629.749 414.766 630.906 415.137 631.766V632H412.295ZM407.798 629.935C408.647 629.935 409.453 629.715 410.215 629.275C410.977 628.836 411.528 628.265 411.87 627.562V624.31H409.746C406.426 624.31 404.766 625.281 404.766 627.225C404.766 628.074 405.049 628.738 405.615 629.217C406.182 629.695 406.909 629.935 407.798 629.935ZM426.489 618.582C426.079 618.514 425.635 618.479 425.156 618.479C423.379 618.479 422.173 619.236 421.538 620.75V632H418.828V616.15H421.465L421.509 617.981C422.397 616.565 423.657 615.857 425.288 615.857C425.815 615.857 426.216 615.926 426.489 616.062V618.582ZM438.999 616.15L439.087 618.143C440.298 616.619 441.88 615.857 443.833 615.857C447.183 615.857 448.872 617.747 448.901 621.526V632H446.191V621.512C446.182 620.369 445.918 619.524 445.4 618.978C444.893 618.431 444.097 618.157 443.013 618.157C442.134 618.157 441.362 618.392 440.698 618.86C440.034 619.329 439.517 619.944 439.146 620.706V632H436.436V616.15H438.999ZM452.271 623.929C452.271 622.376 452.573 620.979 453.179 619.739C453.794 618.499 454.644 617.542 455.728 616.868C456.821 616.194 458.066 615.857 459.463 615.857C461.621 615.857 463.364 616.604 464.692 618.099C466.03 619.593 466.699 621.58 466.699 624.061V624.251C466.699 625.794 466.401 627.181 465.806 628.411C465.22 629.632 464.375 630.584 463.271 631.268C462.178 631.951 460.918 632.293 459.492 632.293C457.344 632.293 455.601 631.546 454.263 630.052C452.935 628.558 452.271 626.58 452.271 624.119V623.929ZM454.995 624.251C454.995 626.009 455.4 627.42 456.211 628.484C457.031 629.549 458.125 630.081 459.492 630.081C460.869 630.081 461.963 629.544 462.773 628.47C463.584 627.386 463.989 625.872 463.989 623.929C463.989 622.19 463.574 620.784 462.744 619.71C461.924 618.626 460.83 618.084 459.463 618.084C458.125 618.084 457.046 618.616 456.226 619.681C455.405 620.745 454.995 622.269 454.995 624.251ZM475.093 628.323L479.019 616.15H481.787L476.104 632H474.038L468.296 616.15H471.064L475.093 628.323ZM483.442 623.929C483.442 622.376 483.745 620.979 484.351 619.739C484.966 618.499 485.815 617.542 486.899 616.868C487.993 616.194 489.238 615.857 490.635 615.857C492.793 615.857 494.536 616.604 495.864 618.099C497.202 619.593 497.871 621.58 497.871 624.061V624.251C497.871 625.794 497.573 627.181 496.978 628.411C496.392 629.632 495.547 630.584 494.443 631.268C493.35 631.951 492.09 632.293 490.664 632.293C488.516 632.293 486.772 631.546 485.435 630.052C484.106 628.558 483.442 626.58 483.442 624.119V623.929ZM486.167 624.251C486.167 626.009 486.572 627.42 487.383 628.484C488.203 629.549 489.297 630.081 490.664 630.081C492.041 630.081 493.135 629.544 493.945 628.47C494.756 627.386 495.161 625.872 495.161 623.929C495.161 622.19 494.746 620.784 493.916 619.71C493.096 618.626 492.002 618.084 490.635 618.084C489.297 618.084 488.218 618.616 487.397 619.681C486.577 620.745 486.167 622.269 486.167 624.251ZM515.068 630.081C516.035 630.081 516.88 629.788 517.603 629.202C518.325 628.616 518.726 627.884 518.804 627.005H521.367C521.318 627.913 521.006 628.777 520.43 629.598C519.854 630.418 519.082 631.072 518.115 631.561C517.158 632.049 516.143 632.293 515.068 632.293C512.91 632.293 511.191 631.575 509.912 630.14C508.643 628.694 508.008 626.722 508.008 624.222V623.768C508.008 622.225 508.291 620.853 508.857 619.651C509.424 618.45 510.234 617.518 511.289 616.854C512.354 616.189 513.608 615.857 515.054 615.857C516.831 615.857 518.306 616.39 519.478 617.454C520.659 618.519 521.289 619.9 521.367 621.6H518.804C518.726 620.574 518.335 619.734 517.632 619.08C516.938 618.416 516.079 618.084 515.054 618.084C513.677 618.084 512.607 618.582 511.846 619.578C511.094 620.564 510.718 621.995 510.718 623.87V624.383C510.718 626.209 511.094 627.615 511.846 628.602C512.598 629.588 513.672 630.081 515.068 630.081ZM523.696 623.929C523.696 622.376 523.999 620.979 524.604 619.739C525.22 618.499 526.069 617.542 527.153 616.868C528.247 616.194 529.492 615.857 530.889 615.857C533.047 615.857 534.79 616.604 536.118 618.099C537.456 619.593 538.125 621.58 538.125 624.061V624.251C538.125 625.794 537.827 627.181 537.231 628.411C536.646 629.632 535.801 630.584 534.697 631.268C533.604 631.951 532.344 632.293 530.918 632.293C528.77 632.293 527.026 631.546 525.688 630.052C524.36 628.558 523.696 626.58 523.696 624.119V623.929ZM526.421 624.251C526.421 626.009 526.826 627.42 527.637 628.484C528.457 629.549 529.551 630.081 530.918 630.081C532.295 630.081 533.389 629.544 534.199 628.47C535.01 627.386 535.415 625.872 535.415 623.929C535.415 622.19 535 620.784 534.17 619.71C533.35 618.626 532.256 618.084 530.889 618.084C529.551 618.084 528.472 618.616 527.651 619.681C526.831 620.745 526.421 622.269 526.421 624.251ZM544.087 616.15L544.175 618.143C545.386 616.619 546.968 615.857 548.921 615.857C552.271 615.857 553.96 617.747 553.989 621.526V632H551.279V621.512C551.27 620.369 551.006 619.524 550.488 618.978C549.98 618.431 549.185 618.157 548.101 618.157C547.222 618.157 546.45 618.392 545.786 618.86C545.122 619.329 544.604 619.944 544.233 620.706V632H541.523V616.15H544.087ZM561.753 612.312V616.15H564.712V618.245H561.753V628.074C561.753 628.709 561.885 629.188 562.148 629.51C562.412 629.822 562.861 629.979 563.496 629.979C563.809 629.979 564.238 629.92 564.785 629.803V632C564.072 632.195 563.379 632.293 562.705 632.293C561.494 632.293 560.581 631.927 559.966 631.194C559.351 630.462 559.043 629.422 559.043 628.074V618.245H556.157V616.15H559.043V612.312H561.753ZM577.676 632C577.52 631.688 577.393 631.131 577.295 630.33C576.035 631.639 574.531 632.293 572.783 632.293C571.221 632.293 569.937 631.854 568.931 630.975C567.935 630.086 567.437 628.963 567.437 627.605C567.437 625.955 568.062 624.676 569.312 623.768C570.571 622.85 572.339 622.391 574.614 622.391H577.251V621.146C577.251 620.198 576.968 619.446 576.401 618.89C575.835 618.323 575 618.04 573.896 618.04C572.93 618.04 572.119 618.284 571.465 618.772C570.811 619.261 570.483 619.852 570.483 620.545H567.759C567.759 619.754 568.037 618.992 568.594 618.26C569.16 617.518 569.922 616.932 570.879 616.502C571.846 616.072 572.905 615.857 574.058 615.857C575.884 615.857 577.314 616.316 578.35 617.234C579.385 618.143 579.922 619.397 579.961 620.999V628.294C579.961 629.749 580.146 630.906 580.518 631.766V632H577.676ZM573.179 629.935C574.028 629.935 574.834 629.715 575.596 629.275C576.357 628.836 576.909 628.265 577.251 627.562V624.31H575.127C571.807 624.31 570.146 625.281 570.146 627.225C570.146 628.074 570.43 628.738 570.996 629.217C571.562 629.695 572.29 629.935 573.179 629.935ZM587.886 612.312V616.15H590.845V618.245H587.886V628.074C587.886 628.709 588.018 629.188 588.281 629.51C588.545 629.822 588.994 629.979 589.629 629.979C589.941 629.979 590.371 629.92 590.918 629.803V632C590.205 632.195 589.512 632.293 588.838 632.293C587.627 632.293 586.714 631.927 586.099 631.194C585.483 630.462 585.176 629.422 585.176 628.074V618.245H582.29V616.15H585.176V612.312H587.886ZM593.013 623.929C593.013 622.376 593.315 620.979 593.921 619.739C594.536 618.499 595.386 617.542 596.47 616.868C597.563 616.194 598.809 615.857 600.205 615.857C602.363 615.857 604.106 616.604 605.435 618.099C606.772 619.593 607.441 621.58 607.441 624.061V624.251C607.441 625.794 607.144 627.181 606.548 628.411C605.962 629.632 605.117 630.584 604.014 631.268C602.92 631.951 601.66 632.293 600.234 632.293C598.086 632.293 596.343 631.546 595.005 630.052C593.677 628.558 593.013 626.58 593.013 624.119V623.929ZM595.737 624.251C595.737 626.009 596.143 627.42 596.953 628.484C597.773 629.549 598.867 630.081 600.234 630.081C601.611 630.081 602.705 629.544 603.516 628.47C604.326 627.386 604.731 625.872 604.731 623.929C604.731 622.19 604.316 620.784 603.486 619.71C602.666 618.626 601.572 618.084 600.205 618.084C598.867 618.084 597.788 618.616 596.968 619.681C596.147 620.745 595.737 622.269 595.737 624.251Z" fill="black"/>
<g filter="url(#filter0_d)">
<line x1="1079.5" y1="639.108" x2="1079.5" y2="604.108" stroke="black"/>
</g>
<line x1="1062.5" y1="621.108" x2="1097.5" y2="621.108" stroke="black"/>
<defs>
<filter id="filter0_d" x="1075" y="604.108" width="9" height="43" filterUnits="userSpaceOnUse" color-interpolation-filters="sRGB">
<feFlood flood-opacity="0" result="BackgroundImageFix"/>
<feColorMatrix in="SourceAlpha" type="matrix" values="0 0 0 0 0 0 0 0 0 0 0 0 0 0 0 0 0 0 127 0" result="hardAlpha"/>
<feOffset dy="4"/>
<feGaussianBlur stdDeviation="2"/>
<feComposite in2="hardAlpha" operator="out"/>
<feColorMatrix type="matrix" values="0 0 0 0 0 0 0 0 0 0 0 0 0 0 0 0 0 0 0.25 0"/>
<feBlend mode="normal" in2="BackgroundImageFix" result="effect1_dropShadow"/>
<feBlend mode="normal" in="SourceGraphic" in2="effect1_dropShadow" result="shape"/>
</filter>
</defs>
</svg>
