<svg width="1440" height="1024" viewBox="0 0 1440 1024" fill="none" xmlns="http://www.w3.org/2000/svg">
<rect width="1440" height="1024" fill="#E5E5E5"/>
<rect width="1440" height="1024" fill="white"/>
<rect width="1440" height="60" fill="#C4C4C4"/>
<rect y="964" width="1440" height="60" fill="#C4C4C4"/>
<path d="M58.7969 33.8789C58.4805 36.5859 57.4785 38.6777 55.791 40.1543C54.1152 41.6191 51.8828 42.3516 49.0938 42.3516C46.0703 42.3516 43.6445 41.2676 41.8164 39.0996C40 36.9316 39.0918 34.0312 39.0918 30.3984V27.9375C39.0918 25.5586 39.5137 23.4668 40.3574 21.6621C41.2129 19.8574 42.4199 18.4746 43.9785 17.5137C45.5371 16.541 47.3418 16.0547 49.3926 16.0547C52.1113 16.0547 54.291 16.8164 55.9316 18.3398C57.5723 19.8516 58.5273 21.9492 58.7969 24.6328H55.4043C55.1113 22.5938 54.4727 21.1172 53.4883 20.2031C52.5156 19.2891 51.1504 18.832 49.3926 18.832C47.2363 18.832 45.543 19.6289 44.3125 21.2227C43.0938 22.8164 42.4844 25.084 42.4844 28.0254V30.5039C42.4844 33.2812 43.0645 35.4902 44.2246 37.1309C45.3848 38.7715 47.0078 39.5918 49.0938 39.5918C50.9688 39.5918 52.4043 39.1699 53.4004 38.3262C54.4082 37.4707 55.0762 35.9883 55.4043 33.8789H58.7969ZM62.0488 32.3145C62.0488 30.4512 62.4121 28.7754 63.1387 27.2871C63.877 25.7988 64.8965 24.6504 66.1973 23.8418C67.5098 23.0332 69.0039 22.6289 70.6797 22.6289C73.2695 22.6289 75.3613 23.5254 76.9551 25.3184C78.5605 27.1113 79.3633 29.4961 79.3633 32.4727V32.7012C79.3633 34.5527 79.0059 36.2168 78.291 37.6934C77.5879 39.1582 76.5742 40.3008 75.25 41.1211C73.9375 41.9414 72.4258 42.3516 70.7148 42.3516C68.1367 42.3516 66.0449 41.4551 64.4395 39.6621C62.8457 37.8691 62.0488 35.4961 62.0488 32.543V32.3145ZM65.3184 32.7012C65.3184 34.8105 65.8047 36.5039 66.7773 37.7812C67.7617 39.0586 69.0742 39.6973 70.7148 39.6973C72.3672 39.6973 73.6797 39.0527 74.6523 37.7637C75.625 36.4629 76.1113 34.6465 76.1113 32.3145C76.1113 30.2285 75.6133 28.541 74.6172 27.252C73.6328 25.9512 72.3203 25.3008 70.6797 25.3008C69.0742 25.3008 67.7793 25.9395 66.7949 27.2168C65.8105 28.4941 65.3184 30.3223 65.3184 32.7012ZM86.5176 22.9805L86.623 25.3711C88.0762 23.543 89.9746 22.6289 92.3184 22.6289C96.3379 22.6289 98.3652 24.8965 98.4004 29.4316V42H95.1484V29.4141C95.1367 28.043 94.8203 27.0293 94.1992 26.373C93.5898 25.7168 92.6348 25.3887 91.334 25.3887C90.2793 25.3887 89.3535 25.6699 88.5566 26.2324C87.7598 26.7949 87.1387 27.5332 86.6934 28.4473V42H83.4414V22.9805H86.5176ZM107.717 18.375V22.9805H111.268V25.4941H107.717V37.2891C107.717 38.0508 107.875 38.625 108.191 39.0117C108.508 39.3867 109.047 39.5742 109.809 39.5742C110.184 39.5742 110.699 39.5039 111.355 39.3633V42C110.5 42.2344 109.668 42.3516 108.859 42.3516C107.406 42.3516 106.311 41.9121 105.572 41.0332C104.834 40.1543 104.465 38.9062 104.465 37.2891V25.4941H101.002V22.9805H104.465V18.375H107.717ZM126.824 42C126.637 41.625 126.484 40.957 126.367 39.9961C124.855 41.5664 123.051 42.3516 120.953 42.3516C119.078 42.3516 117.537 41.8242 116.33 40.7695C115.135 39.7031 114.537 38.3555 114.537 36.7266C114.537 34.7461 115.287 33.2109 116.787 32.1211C118.299 31.0195 120.42 30.4688 123.15 30.4688H126.314V28.9746C126.314 27.8379 125.975 26.9355 125.295 26.2676C124.615 25.5879 123.613 25.248 122.289 25.248C121.129 25.248 120.156 25.541 119.371 26.127C118.586 26.7129 118.193 27.4219 118.193 28.2539H114.924C114.924 27.3047 115.258 26.3906 115.926 25.5117C116.605 24.6211 117.52 23.918 118.668 23.4023C119.828 22.8867 121.1 22.6289 122.482 22.6289C124.674 22.6289 126.391 23.1797 127.633 24.2812C128.875 25.3711 129.52 26.877 129.566 28.7988V37.5527C129.566 39.2988 129.789 40.6875 130.234 41.7188V42H126.824ZM121.428 39.5215C122.447 39.5215 123.414 39.2578 124.328 38.7305C125.242 38.2031 125.904 37.5176 126.314 36.6738V32.7715H123.766C119.781 32.7715 117.789 33.9375 117.789 36.2695C117.789 37.2891 118.129 38.0859 118.809 38.6602C119.488 39.2344 120.361 39.5215 121.428 39.5215ZM139.076 18.375V22.9805H142.627V25.4941H139.076V37.2891C139.076 38.0508 139.234 38.625 139.551 39.0117C139.867 39.3867 140.406 39.5742 141.168 39.5742C141.543 39.5742 142.059 39.5039 142.715 39.3633V42C141.859 42.2344 141.027 42.3516 140.219 42.3516C138.766 42.3516 137.67 41.9121 136.932 41.0332C136.193 40.1543 135.824 38.9062 135.824 37.2891V25.4941H132.361V22.9805H135.824V18.375H139.076ZM145.229 32.3145C145.229 30.4512 145.592 28.7754 146.318 27.2871C147.057 25.7988 148.076 24.6504 149.377 23.8418C150.689 23.0332 152.184 22.6289 153.859 22.6289C156.449 22.6289 158.541 23.5254 160.135 25.3184C161.74 27.1113 162.543 29.4961 162.543 32.4727V32.7012C162.543 34.5527 162.186 36.2168 161.471 37.6934C160.768 39.1582 159.754 40.3008 158.43 41.1211C157.117 41.9414 155.605 42.3516 153.895 42.3516C151.316 42.3516 149.225 41.4551 147.619 39.6621C146.025 37.8691 145.229 35.4961 145.229 32.543V32.3145ZM148.498 32.7012C148.498 34.8105 148.984 36.5039 149.957 37.7812C150.941 39.0586 152.254 39.6973 153.895 39.6973C155.547 39.6973 156.859 39.0527 157.832 37.7637C158.805 36.4629 159.291 34.6465 159.291 32.3145C159.291 30.2285 158.793 28.541 157.797 27.252C156.812 25.9512 155.5 25.3008 153.859 25.3008C152.254 25.3008 150.959 25.9395 149.975 27.2168C148.99 28.4941 148.498 30.3223 148.498 32.7012ZM177.695 36.9551C177.695 36.0762 177.361 35.3965 176.693 34.916C176.037 34.4238 174.883 34.002 173.23 33.6504C171.59 33.2988 170.283 32.877 169.311 32.3848C168.35 31.8926 167.635 31.3066 167.166 30.627C166.709 29.9473 166.48 29.1387 166.48 28.2012C166.48 26.6426 167.137 25.3242 168.449 24.2461C169.773 23.168 171.461 22.6289 173.512 22.6289C175.668 22.6289 177.414 23.1855 178.75 24.2988C180.098 25.4121 180.771 26.8359 180.771 28.5703H177.502C177.502 27.6797 177.121 26.9121 176.359 26.2676C175.609 25.623 174.66 25.3008 173.512 25.3008C172.328 25.3008 171.402 25.5586 170.734 26.0742C170.066 26.5898 169.732 27.2637 169.732 28.0957C169.732 28.8809 170.043 29.4727 170.664 29.8711C171.285 30.2695 172.404 30.6504 174.021 31.0137C175.65 31.377 176.969 31.8105 177.977 32.3145C178.984 32.8184 179.729 33.4277 180.209 34.1426C180.701 34.8457 180.947 35.707 180.947 36.7266C180.947 38.4258 180.268 39.791 178.908 40.8223C177.549 41.8418 175.785 42.3516 173.617 42.3516C172.094 42.3516 170.746 42.082 169.574 41.543C168.402 41.0039 167.482 40.2539 166.814 39.293C166.158 38.3203 165.83 37.2715 165.83 36.1465H169.082C169.141 37.2363 169.574 38.1035 170.383 38.748C171.203 39.3809 172.281 39.6973 173.617 39.6973C174.848 39.6973 175.832 39.4512 176.57 38.959C177.32 38.4551 177.695 37.7871 177.695 36.9551ZM185.254 40.2949C185.254 39.7324 185.418 39.2637 185.746 38.8887C186.086 38.5137 186.59 38.3262 187.258 38.3262C187.926 38.3262 188.43 38.5137 188.77 38.8887C189.121 39.2637 189.297 39.7324 189.297 40.2949C189.297 40.834 189.121 41.2852 188.77 41.6484C188.43 42.0117 187.926 42.1934 187.258 42.1934C186.59 42.1934 186.086 42.0117 185.746 41.6484C185.418 41.2852 185.254 40.834 185.254 40.2949ZM202.305 39.6973C203.465 39.6973 204.479 39.3457 205.346 38.6426C206.213 37.9395 206.693 37.0605 206.787 36.0059H209.863C209.805 37.0957 209.43 38.1328 208.738 39.1172C208.047 40.1016 207.121 40.8867 205.961 41.4727C204.812 42.0586 203.594 42.3516 202.305 42.3516C199.715 42.3516 197.652 41.4902 196.117 39.7676C194.594 38.0332 193.832 35.666 193.832 32.666V32.1211C193.832 30.2695 194.172 28.623 194.852 27.1816C195.531 25.7402 196.504 24.6211 197.77 23.8242C199.047 23.0273 200.553 22.6289 202.287 22.6289C204.42 22.6289 206.189 23.2676 207.596 24.5449C209.014 25.8223 209.77 27.4805 209.863 29.5195H206.787C206.693 28.2891 206.225 27.2812 205.381 26.4961C204.549 25.6992 203.518 25.3008 202.287 25.3008C200.635 25.3008 199.352 25.8984 198.438 27.0938C197.535 28.2773 197.084 29.9941 197.084 32.2441V32.8594C197.084 35.0508 197.535 36.7383 198.438 37.9219C199.34 39.1055 200.629 39.6973 202.305 39.6973ZM212.658 32.3145C212.658 30.4512 213.021 28.7754 213.748 27.2871C214.486 25.7988 215.506 24.6504 216.807 23.8418C218.119 23.0332 219.613 22.6289 221.289 22.6289C223.879 22.6289 225.971 23.5254 227.564 25.3184C229.17 27.1113 229.973 29.4961 229.973 32.4727V32.7012C229.973 34.5527 229.615 36.2168 228.9 37.6934C228.197 39.1582 227.184 40.3008 225.859 41.1211C224.547 41.9414 223.035 42.3516 221.324 42.3516C218.746 42.3516 216.654 41.4551 215.049 39.6621C213.455 37.8691 212.658 35.4961 212.658 32.543V32.3145ZM215.928 32.7012C215.928 34.8105 216.414 36.5039 217.387 37.7812C218.371 39.0586 219.684 39.6973 221.324 39.6973C222.977 39.6973 224.289 39.0527 225.262 37.7637C226.234 36.4629 226.721 34.6465 226.721 32.3145C226.721 30.2285 226.223 28.541 225.227 27.252C224.242 25.9512 222.93 25.3008 221.289 25.3008C219.684 25.3008 218.389 25.9395 217.404 27.2168C216.42 28.4941 215.928 30.3223 215.928 32.7012ZM237.109 22.9805L237.197 25.0898C238.592 23.4492 240.473 22.6289 242.84 22.6289C245.5 22.6289 247.311 23.6484 248.271 25.6875C248.904 24.7734 249.725 24.0352 250.732 23.4727C251.752 22.9102 252.953 22.6289 254.336 22.6289C258.508 22.6289 260.629 24.8379 260.699 29.2559V42H257.447V29.4492C257.447 28.0898 257.137 27.0762 256.516 26.4082C255.895 25.7285 254.852 25.3887 253.387 25.3887C252.18 25.3887 251.178 25.752 250.381 26.4785C249.584 27.1934 249.121 28.1602 248.992 29.3789V42H245.723V29.5371C245.723 26.7715 244.369 25.3887 241.662 25.3887C239.529 25.3887 238.07 26.2969 237.285 28.1133V42H234.033V22.9805H237.109Z" fill="black"/>
<rect x="420" y="162" width="600" height="700" fill="#C4C4C4"/>
<path d="M566.104 227.32H555.381L552.973 234H549.492L559.266 208.406H562.219L572.01 234H568.547L566.104 227.32ZM556.4 224.543H565.102L560.742 212.572L556.4 224.543ZM574.154 224.332C574.154 221.414 574.846 219.07 576.229 217.301C577.611 215.52 579.422 214.629 581.66 214.629C583.887 214.629 585.65 215.391 586.951 216.914V207H590.203V234H587.215L587.057 231.961C585.756 233.555 583.945 234.352 581.625 234.352C579.422 234.352 577.623 233.449 576.229 231.645C574.846 229.84 574.154 227.484 574.154 224.578V224.332ZM577.406 224.701C577.406 226.857 577.852 228.545 578.742 229.764C579.633 230.982 580.863 231.592 582.434 231.592C584.496 231.592 586.002 230.666 586.951 228.814V220.078C585.979 218.285 584.484 217.389 582.469 217.389C580.875 217.389 579.633 218.004 578.742 219.234C577.852 220.465 577.406 222.287 577.406 224.701ZM598.799 234H595.547V214.98H598.799V234ZM595.283 209.936C595.283 209.408 595.441 208.963 595.758 208.6C596.086 208.236 596.566 208.055 597.199 208.055C597.832 208.055 598.312 208.236 598.641 208.6C598.969 208.963 599.133 209.408 599.133 209.936C599.133 210.463 598.969 210.902 598.641 211.254C598.312 211.605 597.832 211.781 597.199 211.781C596.566 211.781 596.086 211.605 595.758 211.254C595.441 210.902 595.283 210.463 595.283 209.936ZM611.648 231.697C612.809 231.697 613.822 231.346 614.689 230.643C615.557 229.939 616.037 229.061 616.131 228.006H619.207C619.148 229.096 618.773 230.133 618.082 231.117C617.391 232.102 616.465 232.887 615.305 233.473C614.156 234.059 612.938 234.352 611.648 234.352C609.059 234.352 606.996 233.49 605.461 231.768C603.938 230.033 603.176 227.666 603.176 224.666V224.121C603.176 222.27 603.516 220.623 604.195 219.182C604.875 217.74 605.848 216.621 607.113 215.824C608.391 215.027 609.896 214.629 611.631 214.629C613.764 214.629 615.533 215.268 616.939 216.545C618.357 217.822 619.113 219.48 619.207 221.52H616.131C616.037 220.289 615.568 219.281 614.725 218.496C613.893 217.699 612.861 217.301 611.631 217.301C609.979 217.301 608.695 217.898 607.781 219.094C606.879 220.277 606.428 221.994 606.428 224.244V224.859C606.428 227.051 606.879 228.738 607.781 229.922C608.684 231.105 609.973 231.697 611.648 231.697ZM626.396 234H623.145V214.98H626.396V234ZM622.881 209.936C622.881 209.408 623.039 208.963 623.355 208.6C623.684 208.236 624.164 208.055 624.797 208.055C625.43 208.055 625.91 208.236 626.238 208.6C626.566 208.963 626.73 209.408 626.73 209.936C626.73 210.463 626.566 210.902 626.238 211.254C625.91 211.605 625.43 211.781 624.797 211.781C624.164 211.781 623.684 211.605 623.355 211.254C623.039 210.902 622.881 210.463 622.881 209.936ZM630.756 224.314C630.756 222.451 631.119 220.775 631.846 219.287C632.584 217.799 633.604 216.65 634.904 215.842C636.217 215.033 637.711 214.629 639.387 214.629C641.977 214.629 644.068 215.525 645.662 217.318C647.268 219.111 648.07 221.496 648.07 224.473V224.701C648.07 226.553 647.713 228.217 646.998 229.693C646.295 231.158 645.281 232.301 643.957 233.121C642.645 233.941 641.133 234.352 639.422 234.352C636.844 234.352 634.752 233.455 633.146 231.662C631.553 229.869 630.756 227.496 630.756 224.543V224.314ZM634.025 224.701C634.025 226.811 634.512 228.504 635.484 229.781C636.469 231.059 637.781 231.697 639.422 231.697C641.074 231.697 642.387 231.053 643.359 229.764C644.332 228.463 644.818 226.646 644.818 224.314C644.818 222.229 644.32 220.541 643.324 219.252C642.34 217.951 641.027 217.301 639.387 217.301C637.781 217.301 636.486 217.939 635.502 219.217C634.518 220.494 634.025 222.322 634.025 224.701ZM655.225 214.98L655.33 217.371C656.783 215.543 658.682 214.629 661.025 214.629C665.045 214.629 667.072 216.896 667.107 221.432V234H663.855V221.414C663.844 220.043 663.527 219.029 662.906 218.373C662.297 217.717 661.342 217.389 660.041 217.389C658.986 217.389 658.061 217.67 657.264 218.232C656.467 218.795 655.846 219.533 655.4 220.447V234H652.148V214.98H655.225ZM679.904 234.352C677.326 234.352 675.229 233.508 673.611 231.82C671.994 230.121 671.186 227.854 671.186 225.018V224.42C671.186 222.533 671.543 220.852 672.258 219.375C672.984 217.887 673.992 216.727 675.281 215.895C676.582 215.051 677.988 214.629 679.5 214.629C681.973 214.629 683.895 215.443 685.266 217.072C686.637 218.701 687.322 221.033 687.322 224.068V225.422H674.438C674.484 227.297 675.029 228.814 676.072 229.975C677.127 231.123 678.463 231.697 680.08 231.697C681.229 231.697 682.201 231.463 682.998 230.994C683.795 230.525 684.492 229.904 685.09 229.131L687.076 230.678C685.482 233.127 683.092 234.352 679.904 234.352ZM679.5 217.301C678.188 217.301 677.086 217.781 676.195 218.742C675.305 219.691 674.754 221.027 674.543 222.75H684.07V222.504C683.977 220.852 683.531 219.574 682.734 218.672C681.938 217.758 680.859 217.301 679.5 217.301ZM711.773 232.119C710.508 233.607 708.65 234.352 706.201 234.352C704.174 234.352 702.627 233.766 701.561 232.594C700.506 231.41 699.973 229.664 699.961 227.355V214.98H703.213V227.268C703.213 230.15 704.385 231.592 706.729 231.592C709.213 231.592 710.865 230.666 711.686 228.814V214.98H714.938V234H711.844L711.773 232.119ZM722.953 214.98L723.041 217.09C724.436 215.449 726.316 214.629 728.684 214.629C731.344 214.629 733.154 215.648 734.115 217.688C734.748 216.773 735.568 216.035 736.576 215.473C737.596 214.91 738.797 214.629 740.18 214.629C744.352 214.629 746.473 216.838 746.543 221.256V234H743.291V221.449C743.291 220.09 742.98 219.076 742.359 218.408C741.738 217.729 740.695 217.389 739.23 217.389C738.023 217.389 737.021 217.752 736.225 218.479C735.428 219.193 734.965 220.16 734.836 221.379V234H731.566V221.537C731.566 218.771 730.213 217.389 727.506 217.389C725.373 217.389 723.914 218.297 723.129 220.113V234H719.877V214.98H722.953ZM768.023 231.697C769.184 231.697 770.197 231.346 771.064 230.643C771.932 229.939 772.412 229.061 772.506 228.006H775.582C775.523 229.096 775.148 230.133 774.457 231.117C773.766 232.102 772.84 232.887 771.68 233.473C770.531 234.059 769.312 234.352 768.023 234.352C765.434 234.352 763.371 233.49 761.836 231.768C760.312 230.033 759.551 227.666 759.551 224.666V224.121C759.551 222.27 759.891 220.623 760.57 219.182C761.25 217.74 762.223 216.621 763.488 215.824C764.766 215.027 766.271 214.629 768.006 214.629C770.139 214.629 771.908 215.268 773.314 216.545C774.732 217.822 775.488 219.48 775.582 221.52H772.506C772.412 220.289 771.943 219.281 771.1 218.496C770.268 217.699 769.236 217.301 768.006 217.301C766.354 217.301 765.07 217.898 764.156 219.094C763.254 220.277 762.803 221.994 762.803 224.244V224.859C762.803 227.051 763.254 228.738 764.156 229.922C765.059 231.105 766.348 231.697 768.023 231.697ZM778.377 224.314C778.377 222.451 778.74 220.775 779.467 219.287C780.205 217.799 781.225 216.65 782.525 215.842C783.838 215.033 785.332 214.629 787.008 214.629C789.598 214.629 791.689 215.525 793.283 217.318C794.889 219.111 795.691 221.496 795.691 224.473V224.701C795.691 226.553 795.334 228.217 794.619 229.693C793.916 231.158 792.902 232.301 791.578 233.121C790.266 233.941 788.754 234.352 787.043 234.352C784.465 234.352 782.373 233.455 780.768 231.662C779.174 229.869 778.377 227.496 778.377 224.543V224.314ZM781.646 224.701C781.646 226.811 782.133 228.504 783.105 229.781C784.09 231.059 785.402 231.697 787.043 231.697C788.695 231.697 790.008 231.053 790.98 229.764C791.953 228.463 792.439 226.646 792.439 224.314C792.439 222.229 791.941 220.541 790.945 219.252C789.961 217.951 788.648 217.301 787.008 217.301C785.402 217.301 784.107 217.939 783.123 219.217C782.139 220.494 781.646 222.322 781.646 224.701ZM802.846 214.98L802.951 217.371C804.404 215.543 806.303 214.629 808.646 214.629C812.666 214.629 814.693 216.896 814.729 221.432V234H811.477V221.414C811.465 220.043 811.148 219.029 810.527 218.373C809.918 217.717 808.963 217.389 807.662 217.389C806.607 217.389 805.682 217.67 804.885 218.232C804.088 218.795 803.467 219.533 803.021 220.447V234H799.77V214.98H802.846ZM824.045 210.375V214.98H827.596V217.494H824.045V229.289C824.045 230.051 824.203 230.625 824.52 231.012C824.836 231.387 825.375 231.574 826.137 231.574C826.512 231.574 827.027 231.504 827.684 231.363V234C826.828 234.234 825.996 234.352 825.188 234.352C823.734 234.352 822.639 233.912 821.9 233.033C821.162 232.154 820.793 230.906 820.793 229.289V217.494H817.33V214.98H820.793V210.375H824.045ZM843.152 234C842.965 233.625 842.812 232.957 842.695 231.996C841.184 233.566 839.379 234.352 837.281 234.352C835.406 234.352 833.865 233.824 832.658 232.77C831.463 231.703 830.865 230.355 830.865 228.727C830.865 226.746 831.615 225.211 833.115 224.121C834.627 223.02 836.748 222.469 839.479 222.469H842.643V220.975C842.643 219.838 842.303 218.936 841.623 218.268C840.943 217.588 839.941 217.248 838.617 217.248C837.457 217.248 836.484 217.541 835.699 218.127C834.914 218.713 834.521 219.422 834.521 220.254H831.252C831.252 219.305 831.586 218.391 832.254 217.512C832.934 216.621 833.848 215.918 834.996 215.402C836.156 214.887 837.428 214.629 838.811 214.629C841.002 214.629 842.719 215.18 843.961 216.281C845.203 217.371 845.848 218.877 845.895 220.799V229.553C845.895 231.299 846.117 232.688 846.562 233.719V234H843.152ZM837.756 231.521C838.775 231.521 839.742 231.258 840.656 230.73C841.57 230.203 842.232 229.518 842.643 228.674V224.771H840.094C836.109 224.771 834.117 225.938 834.117 228.27C834.117 229.289 834.457 230.086 835.137 230.66C835.816 231.234 836.689 231.521 837.756 231.521ZM855.404 210.375V214.98H858.955V217.494H855.404V229.289C855.404 230.051 855.562 230.625 855.879 231.012C856.195 231.387 856.734 231.574 857.496 231.574C857.871 231.574 858.387 231.504 859.043 231.363V234C858.188 234.234 857.355 234.352 856.547 234.352C855.094 234.352 853.998 233.912 853.26 233.033C852.521 232.154 852.152 230.906 852.152 229.289V217.494H848.689V214.98H852.152V210.375H855.404ZM861.557 224.314C861.557 222.451 861.92 220.775 862.646 219.287C863.385 217.799 864.404 216.65 865.705 215.842C867.018 215.033 868.512 214.629 870.188 214.629C872.777 214.629 874.869 215.525 876.463 217.318C878.068 219.111 878.871 221.496 878.871 224.473V224.701C878.871 226.553 878.514 228.217 877.799 229.693C877.096 231.158 876.082 232.301 874.758 233.121C873.445 233.941 871.934 234.352 870.223 234.352C867.645 234.352 865.553 233.455 863.947 231.662C862.354 229.869 861.557 227.496 861.557 224.543V224.314ZM864.826 224.701C864.826 226.811 865.312 228.504 866.285 229.781C867.27 231.059 868.582 231.697 870.223 231.697C871.875 231.697 873.188 231.053 874.16 229.764C875.133 228.463 875.619 226.646 875.619 224.314C875.619 222.229 875.121 220.541 874.125 219.252C873.141 217.951 871.828 217.301 870.188 217.301C868.582 217.301 867.287 217.939 866.303 219.217C865.318 220.494 864.826 222.322 864.826 224.701ZM882.844 232.295C882.844 231.732 883.008 231.264 883.336 230.889C883.676 230.514 884.18 230.326 884.848 230.326C885.516 230.326 886.02 230.514 886.359 230.889C886.711 231.264 886.887 231.732 886.887 232.295C886.887 232.834 886.711 233.285 886.359 233.648C886.02 234.012 885.516 234.193 884.848 234.193C884.18 234.193 883.676 234.012 883.336 233.648C883.008 233.285 882.844 232.834 882.844 232.295ZM882.861 216.773C882.861 216.211 883.025 215.742 883.354 215.367C883.693 214.992 884.197 214.805 884.865 214.805C885.533 214.805 886.037 214.992 886.377 215.367C886.729 215.742 886.904 216.211 886.904 216.773C886.904 217.312 886.729 217.764 886.377 218.127C886.037 218.49 885.533 218.672 884.865 218.672C884.197 218.672 883.693 218.49 883.354 218.127C883.025 217.764 882.861 217.312 882.861 216.773Z" fill="black"/>
<path d="M488.867 327H486.04L475.303 310.564V327H472.476V305.672H475.303L486.069 322.181V305.672H488.867V327ZM492.72 318.929C492.72 317.376 493.022 315.979 493.628 314.739C494.243 313.499 495.093 312.542 496.177 311.868C497.271 311.194 498.516 310.857 499.912 310.857C502.07 310.857 503.813 311.604 505.142 313.099C506.479 314.593 507.148 316.58 507.148 319.061V319.251C507.148 320.794 506.851 322.181 506.255 323.411C505.669 324.632 504.824 325.584 503.721 326.268C502.627 326.951 501.367 327.293 499.941 327.293C497.793 327.293 496.05 326.546 494.712 325.052C493.384 323.558 492.72 321.58 492.72 319.119V318.929ZM495.444 319.251C495.444 321.009 495.85 322.42 496.66 323.484C497.48 324.549 498.574 325.081 499.941 325.081C501.318 325.081 502.412 324.544 503.223 323.47C504.033 322.386 504.438 320.872 504.438 318.929C504.438 317.19 504.023 315.784 503.193 314.71C502.373 313.626 501.279 313.084 499.912 313.084C498.574 313.084 497.495 313.616 496.675 314.681C495.854 315.745 495.444 317.269 495.444 319.251ZM513.096 311.15L513.169 312.908C514.331 311.541 515.898 310.857 517.871 310.857C520.088 310.857 521.597 311.707 522.397 313.406C522.925 312.645 523.608 312.029 524.448 311.561C525.298 311.092 526.299 310.857 527.451 310.857C530.928 310.857 532.695 312.698 532.754 316.38V327H530.044V316.541C530.044 315.408 529.785 314.563 529.268 314.007C528.75 313.44 527.881 313.157 526.66 313.157C525.654 313.157 524.819 313.46 524.155 314.065C523.491 314.661 523.105 315.467 522.998 316.482V327H520.273V316.614C520.273 314.31 519.146 313.157 516.89 313.157C515.112 313.157 513.896 313.914 513.242 315.428V327H510.532V311.15H513.096ZM543.433 327.293C541.284 327.293 539.536 326.59 538.188 325.184C536.841 323.768 536.167 321.878 536.167 319.515V319.017C536.167 317.444 536.465 316.043 537.061 314.812C537.666 313.572 538.506 312.605 539.58 311.912C540.664 311.209 541.836 310.857 543.096 310.857C545.156 310.857 546.758 311.536 547.9 312.894C549.043 314.251 549.614 316.194 549.614 318.724V319.852H538.877C538.916 321.414 539.37 322.679 540.239 323.646C541.118 324.603 542.231 325.081 543.579 325.081C544.536 325.081 545.347 324.886 546.011 324.495C546.675 324.104 547.256 323.587 547.754 322.942L549.409 324.231C548.081 326.272 546.089 327.293 543.433 327.293ZM543.096 313.084C542.002 313.084 541.084 313.484 540.342 314.285C539.6 315.076 539.141 316.189 538.965 317.625H546.904V317.42C546.826 316.043 546.455 314.979 545.791 314.227C545.127 313.465 544.229 313.084 543.096 313.084ZM566.562 325.081C567.529 325.081 568.374 324.788 569.097 324.202C569.819 323.616 570.22 322.884 570.298 322.005H572.861C572.812 322.913 572.5 323.777 571.924 324.598C571.348 325.418 570.576 326.072 569.609 326.561C568.652 327.049 567.637 327.293 566.562 327.293C564.404 327.293 562.686 326.575 561.406 325.14C560.137 323.694 559.502 321.722 559.502 319.222V318.768C559.502 317.225 559.785 315.853 560.352 314.651C560.918 313.45 561.729 312.518 562.783 311.854C563.848 311.189 565.103 310.857 566.548 310.857C568.325 310.857 569.8 311.39 570.972 312.454C572.153 313.519 572.783 314.9 572.861 316.6H570.298C570.22 315.574 569.829 314.734 569.126 314.08C568.433 313.416 567.573 313.084 566.548 313.084C565.171 313.084 564.102 313.582 563.34 314.578C562.588 315.564 562.212 316.995 562.212 318.87V319.383C562.212 321.209 562.588 322.615 563.34 323.602C564.092 324.588 565.166 325.081 566.562 325.081ZM575.19 318.929C575.19 317.376 575.493 315.979 576.099 314.739C576.714 313.499 577.563 312.542 578.647 311.868C579.741 311.194 580.986 310.857 582.383 310.857C584.541 310.857 586.284 311.604 587.612 313.099C588.95 314.593 589.619 316.58 589.619 319.061V319.251C589.619 320.794 589.321 322.181 588.726 323.411C588.14 324.632 587.295 325.584 586.191 326.268C585.098 326.951 583.838 327.293 582.412 327.293C580.264 327.293 578.521 326.546 577.183 325.052C575.854 323.558 575.19 321.58 575.19 319.119V318.929ZM577.915 319.251C577.915 321.009 578.32 322.42 579.131 323.484C579.951 324.549 581.045 325.081 582.412 325.081C583.789 325.081 584.883 324.544 585.693 323.47C586.504 322.386 586.909 320.872 586.909 318.929C586.909 317.19 586.494 315.784 585.664 314.71C584.844 313.626 583.75 313.084 582.383 313.084C581.045 313.084 579.966 313.616 579.146 314.681C578.325 315.745 577.915 317.269 577.915 319.251ZM595.566 311.15L595.64 312.908C596.802 311.541 598.369 310.857 600.342 310.857C602.559 310.857 604.067 311.707 604.868 313.406C605.396 312.645 606.079 312.029 606.919 311.561C607.769 311.092 608.77 310.857 609.922 310.857C613.398 310.857 615.166 312.698 615.225 316.38V327H612.515V316.541C612.515 315.408 612.256 314.563 611.738 314.007C611.221 313.44 610.352 313.157 609.131 313.157C608.125 313.157 607.29 313.46 606.626 314.065C605.962 314.661 605.576 315.467 605.469 316.482V327H602.744V316.614C602.744 314.31 601.616 313.157 599.36 313.157C597.583 313.157 596.367 313.914 595.713 315.428V327H593.003V311.15H595.566ZM632.715 319.251C632.715 321.663 632.163 323.606 631.06 325.081C629.956 326.556 628.462 327.293 626.577 327.293C624.653 327.293 623.14 326.683 622.036 325.462V333.094H619.326V311.15H621.802L621.934 312.908C623.037 311.541 624.57 310.857 626.533 310.857C628.438 310.857 629.941 311.575 631.045 313.011C632.158 314.446 632.715 316.443 632.715 319.002V319.251ZM630.005 318.943C630.005 317.156 629.624 315.745 628.862 314.71C628.101 313.675 627.056 313.157 625.728 313.157C624.087 313.157 622.856 313.885 622.036 315.34V322.913C622.847 324.358 624.087 325.081 625.757 325.081C627.056 325.081 628.086 324.568 628.848 323.543C629.619 322.508 630.005 320.975 630.005 318.943ZM639.116 327H636.406V304.5H639.116V327ZM650.044 327.293C647.896 327.293 646.147 326.59 644.8 325.184C643.452 323.768 642.778 321.878 642.778 319.515V319.017C642.778 317.444 643.076 316.043 643.672 314.812C644.277 313.572 645.117 312.605 646.191 311.912C647.275 311.209 648.447 310.857 649.707 310.857C651.768 310.857 653.369 311.536 654.512 312.894C655.654 314.251 656.226 316.194 656.226 318.724V319.852H645.488C645.527 321.414 645.981 322.679 646.851 323.646C647.729 324.603 648.843 325.081 650.19 325.081C651.147 325.081 651.958 324.886 652.622 324.495C653.286 324.104 653.867 323.587 654.365 322.942L656.021 324.231C654.692 326.272 652.7 327.293 650.044 327.293ZM649.707 313.084C648.613 313.084 647.695 313.484 646.953 314.285C646.211 315.076 645.752 316.189 645.576 317.625H653.516V317.42C653.438 316.043 653.066 314.979 652.402 314.227C651.738 313.465 650.84 313.084 649.707 313.084ZM663.052 307.312V311.15H666.011V313.245H663.052V323.074C663.052 323.709 663.184 324.188 663.447 324.51C663.711 324.822 664.16 324.979 664.795 324.979C665.107 324.979 665.537 324.92 666.084 324.803V327C665.371 327.195 664.678 327.293 664.004 327.293C662.793 327.293 661.88 326.927 661.265 326.194C660.649 325.462 660.342 324.422 660.342 323.074V313.245H657.456V311.15H660.342V307.312H663.052ZM668.179 318.929C668.179 317.376 668.481 315.979 669.087 314.739C669.702 313.499 670.552 312.542 671.636 311.868C672.729 311.194 673.975 310.857 675.371 310.857C677.529 310.857 679.272 311.604 680.601 313.099C681.938 314.593 682.607 316.58 682.607 319.061V319.251C682.607 320.794 682.31 322.181 681.714 323.411C681.128 324.632 680.283 325.584 679.18 326.268C678.086 326.951 676.826 327.293 675.4 327.293C673.252 327.293 671.509 326.546 670.171 325.052C668.843 323.558 668.179 321.58 668.179 319.119V318.929ZM670.903 319.251C670.903 321.009 671.309 322.42 672.119 323.484C672.939 324.549 674.033 325.081 675.4 325.081C676.777 325.081 677.871 324.544 678.682 323.47C679.492 322.386 679.897 320.872 679.897 318.929C679.897 317.19 679.482 315.784 678.652 314.71C677.832 313.626 676.738 313.084 675.371 313.084C674.033 313.084 672.954 313.616 672.134 314.681C671.313 315.745 670.903 317.269 670.903 319.251ZM685.918 325.579C685.918 325.11 686.055 324.72 686.328 324.407C686.611 324.095 687.031 323.938 687.588 323.938C688.145 323.938 688.564 324.095 688.848 324.407C689.141 324.72 689.287 325.11 689.287 325.579C689.287 326.028 689.141 326.404 688.848 326.707C688.564 327.01 688.145 327.161 687.588 327.161C687.031 327.161 686.611 327.01 686.328 326.707C686.055 326.404 685.918 326.028 685.918 325.579ZM685.933 312.645C685.933 312.176 686.069 311.785 686.343 311.473C686.626 311.16 687.046 311.004 687.603 311.004C688.159 311.004 688.579 311.16 688.862 311.473C689.155 311.785 689.302 312.176 689.302 312.645C689.302 313.094 689.155 313.47 688.862 313.772C688.579 314.075 688.159 314.227 687.603 314.227C687.046 314.227 686.626 314.075 686.343 313.772C686.069 313.47 685.933 313.094 685.933 312.645Z" fill="black"/>
<rect x="470.5" y="334.5" width="499" height="48" fill="white" stroke="black"/>
<path d="M488.867 458H486.04L475.303 441.564V458H472.476V436.672H475.303L486.069 453.181V436.672H488.867V458ZM493.174 441.55C493.174 440.007 493.633 438.762 494.551 437.814C495.469 436.857 496.68 436.379 498.184 436.379C499.697 436.379 500.913 436.853 501.831 437.8C502.749 438.737 503.208 440.017 503.208 441.638V442.722C503.208 444.274 502.749 445.524 501.831 446.472C500.923 447.419 499.717 447.893 498.213 447.893C496.709 447.893 495.493 447.419 494.565 446.472C493.638 445.524 493.174 444.245 493.174 442.634V441.55ZM495.562 442.722C495.562 443.698 495.796 444.465 496.265 445.021C496.743 445.578 497.393 445.856 498.213 445.856C499.023 445.856 499.658 445.578 500.117 445.021C500.586 444.455 500.82 443.679 500.82 442.692V441.55C500.82 440.583 500.581 439.821 500.103 439.265C499.634 438.708 498.994 438.43 498.184 438.43C497.393 438.43 496.763 438.698 496.294 439.235C495.825 439.772 495.581 440.515 495.562 441.462V442.722ZM513.872 449.943C513.872 447.512 514.448 445.559 515.601 444.084C516.753 442.6 518.262 441.857 520.127 441.857C521.982 441.857 523.452 442.492 524.536 443.762V435.5H527.246V458H524.756L524.624 456.301C523.54 457.629 522.031 458.293 520.098 458.293C518.262 458.293 516.763 457.541 515.601 456.037C514.448 454.533 513.872 452.57 513.872 450.148V449.943ZM516.582 450.251C516.582 452.048 516.953 453.454 517.695 454.47C518.438 455.485 519.463 455.993 520.771 455.993C522.49 455.993 523.745 455.222 524.536 453.679V446.398C523.726 444.904 522.48 444.157 520.801 444.157C519.473 444.157 518.438 444.67 517.695 445.695C516.953 446.721 516.582 448.239 516.582 450.251ZM538.042 458.293C535.894 458.293 534.146 457.59 532.798 456.184C531.45 454.768 530.776 452.878 530.776 450.515V450.017C530.776 448.444 531.074 447.043 531.67 445.812C532.275 444.572 533.115 443.605 534.189 442.912C535.273 442.209 536.445 441.857 537.705 441.857C539.766 441.857 541.367 442.536 542.51 443.894C543.652 445.251 544.224 447.194 544.224 449.724V450.852H533.486C533.525 452.414 533.979 453.679 534.849 454.646C535.728 455.603 536.841 456.081 538.188 456.081C539.146 456.081 539.956 455.886 540.62 455.495C541.284 455.104 541.865 454.587 542.363 453.942L544.019 455.231C542.69 457.272 540.698 458.293 538.042 458.293ZM537.705 444.084C536.611 444.084 535.693 444.484 534.951 445.285C534.209 446.076 533.75 447.189 533.574 448.625H541.514V448.42C541.436 447.043 541.064 445.979 540.4 445.227C539.736 444.465 538.838 444.084 537.705 444.084ZM561.172 456.081C562.139 456.081 562.983 455.788 563.706 455.202C564.429 454.616 564.829 453.884 564.907 453.005H567.471C567.422 453.913 567.109 454.777 566.533 455.598C565.957 456.418 565.186 457.072 564.219 457.561C563.262 458.049 562.246 458.293 561.172 458.293C559.014 458.293 557.295 457.575 556.016 456.14C554.746 454.694 554.111 452.722 554.111 450.222V449.768C554.111 448.225 554.395 446.853 554.961 445.651C555.527 444.45 556.338 443.518 557.393 442.854C558.457 442.189 559.712 441.857 561.157 441.857C562.935 441.857 564.409 442.39 565.581 443.454C566.763 444.519 567.393 445.9 567.471 447.6H564.907C564.829 446.574 564.438 445.734 563.735 445.08C563.042 444.416 562.183 444.084 561.157 444.084C559.78 444.084 558.711 444.582 557.949 445.578C557.197 446.564 556.821 447.995 556.821 449.87V450.383C556.821 452.209 557.197 453.615 557.949 454.602C558.701 455.588 559.775 456.081 561.172 456.081ZM577.095 458.293C574.946 458.293 573.198 457.59 571.851 456.184C570.503 454.768 569.829 452.878 569.829 450.515V450.017C569.829 448.444 570.127 447.043 570.723 445.812C571.328 444.572 572.168 443.605 573.242 442.912C574.326 442.209 575.498 441.857 576.758 441.857C578.818 441.857 580.42 442.536 581.562 443.894C582.705 445.251 583.276 447.194 583.276 449.724V450.852H572.539C572.578 452.414 573.032 453.679 573.901 454.646C574.78 455.603 575.894 456.081 577.241 456.081C578.198 456.081 579.009 455.886 579.673 455.495C580.337 455.104 580.918 454.587 581.416 453.942L583.071 455.231C581.743 457.272 579.751 458.293 577.095 458.293ZM576.758 444.084C575.664 444.084 574.746 444.484 574.004 445.285C573.262 446.076 572.803 447.189 572.627 448.625H580.566V448.42C580.488 447.043 580.117 445.979 579.453 445.227C578.789 444.465 577.891 444.084 576.758 444.084ZM589.37 458H586.66V435.5H589.37V458ZM603.506 456.433C602.451 457.673 600.903 458.293 598.862 458.293C597.173 458.293 595.884 457.805 594.995 456.828C594.116 455.842 593.672 454.387 593.662 452.463V442.15H596.372V452.39C596.372 454.792 597.349 455.993 599.302 455.993C601.372 455.993 602.749 455.222 603.433 453.679V442.15H606.143V458H603.564L603.506 456.433ZM613.218 458H610.508V435.5H613.218V458ZM627.354 458C627.197 457.688 627.07 457.131 626.973 456.33C625.713 457.639 624.209 458.293 622.461 458.293C620.898 458.293 619.614 457.854 618.608 456.975C617.612 456.086 617.114 454.963 617.114 453.605C617.114 451.955 617.739 450.676 618.989 449.768C620.249 448.85 622.017 448.391 624.292 448.391H626.929V447.146C626.929 446.198 626.646 445.446 626.079 444.89C625.513 444.323 624.678 444.04 623.574 444.04C622.607 444.04 621.797 444.284 621.143 444.772C620.488 445.261 620.161 445.852 620.161 446.545H617.437C617.437 445.754 617.715 444.992 618.271 444.26C618.838 443.518 619.6 442.932 620.557 442.502C621.523 442.072 622.583 441.857 623.735 441.857C625.562 441.857 626.992 442.316 628.027 443.234C629.062 444.143 629.6 445.397 629.639 446.999V454.294C629.639 455.749 629.824 456.906 630.195 457.766V458H627.354ZM622.856 455.935C623.706 455.935 624.512 455.715 625.273 455.275C626.035 454.836 626.587 454.265 626.929 453.562V450.31H624.805C621.484 450.31 619.824 451.281 619.824 453.225C619.824 454.074 620.107 454.738 620.674 455.217C621.24 455.695 621.968 455.935 622.856 455.935ZM641.548 444.582C641.138 444.514 640.693 444.479 640.215 444.479C638.438 444.479 637.231 445.236 636.597 446.75V458H633.887V442.15H636.523L636.567 443.981C637.456 442.565 638.716 441.857 640.347 441.857C640.874 441.857 641.274 441.926 641.548 442.062V444.582ZM643.965 456.579C643.965 456.11 644.102 455.72 644.375 455.407C644.658 455.095 645.078 454.938 645.635 454.938C646.191 454.938 646.611 455.095 646.895 455.407C647.188 455.72 647.334 456.11 647.334 456.579C647.334 457.028 647.188 457.404 646.895 457.707C646.611 458.01 646.191 458.161 645.635 458.161C645.078 458.161 644.658 458.01 644.375 457.707C644.102 457.404 643.965 457.028 643.965 456.579ZM643.979 443.645C643.979 443.176 644.116 442.785 644.39 442.473C644.673 442.16 645.093 442.004 645.649 442.004C646.206 442.004 646.626 442.16 646.909 442.473C647.202 442.785 647.349 443.176 647.349 443.645C647.349 444.094 647.202 444.47 646.909 444.772C646.626 445.075 646.206 445.227 645.649 445.227C645.093 445.227 644.673 445.075 644.39 444.772C644.116 444.47 643.979 444.094 643.979 443.645Z" fill="black"/>
<path d="M484.531 582.142H475.288V589.7H486.025V592H472.476V570.672H485.879V572.986H475.288V579.842H484.531V582.142ZM491.65 576.15L491.724 577.908C492.886 576.541 494.453 575.857 496.426 575.857C498.643 575.857 500.151 576.707 500.952 578.406C501.479 577.645 502.163 577.029 503.003 576.561C503.853 576.092 504.854 575.857 506.006 575.857C509.482 575.857 511.25 577.698 511.309 581.38V592H508.599V581.541C508.599 580.408 508.34 579.563 507.822 579.007C507.305 578.44 506.436 578.157 505.215 578.157C504.209 578.157 503.374 578.46 502.71 579.065C502.046 579.661 501.66 580.467 501.553 581.482V592H498.828V581.614C498.828 579.31 497.7 578.157 495.444 578.157C493.667 578.157 492.451 578.914 491.797 580.428V592H489.087V576.15H491.65ZM525.195 592C525.039 591.688 524.912 591.131 524.814 590.33C523.555 591.639 522.051 592.293 520.303 592.293C518.74 592.293 517.456 591.854 516.45 590.975C515.454 590.086 514.956 588.963 514.956 587.605C514.956 585.955 515.581 584.676 516.831 583.768C518.091 582.85 519.858 582.391 522.134 582.391H524.771V581.146C524.771 580.198 524.487 579.446 523.921 578.89C523.354 578.323 522.52 578.04 521.416 578.04C520.449 578.04 519.639 578.284 518.984 578.772C518.33 579.261 518.003 579.852 518.003 580.545H515.278C515.278 579.754 515.557 578.992 516.113 578.26C516.68 577.518 517.441 576.932 518.398 576.502C519.365 576.072 520.425 575.857 521.577 575.857C523.403 575.857 524.834 576.316 525.869 577.234C526.904 578.143 527.441 579.397 527.48 580.999V588.294C527.48 589.749 527.666 590.906 528.037 591.766V592H525.195ZM520.698 589.935C521.548 589.935 522.354 589.715 523.115 589.275C523.877 588.836 524.429 588.265 524.771 587.562V584.31H522.646C519.326 584.31 517.666 585.281 517.666 587.225C517.666 588.074 517.949 588.738 518.516 589.217C519.082 589.695 519.81 589.935 520.698 589.935ZM534.673 592H531.963V576.15H534.673V592ZM531.743 571.946C531.743 571.507 531.875 571.136 532.139 570.833C532.412 570.53 532.812 570.379 533.34 570.379C533.867 570.379 534.268 570.53 534.541 570.833C534.814 571.136 534.951 571.507 534.951 571.946C534.951 572.386 534.814 572.752 534.541 573.045C534.268 573.338 533.867 573.484 533.34 573.484C532.812 573.484 532.412 573.338 532.139 573.045C531.875 572.752 531.743 572.386 531.743 571.946ZM541.968 592H539.258V569.5H541.968V592ZM546.23 590.579C546.23 590.11 546.367 589.72 546.641 589.407C546.924 589.095 547.344 588.938 547.9 588.938C548.457 588.938 548.877 589.095 549.16 589.407C549.453 589.72 549.6 590.11 549.6 590.579C549.6 591.028 549.453 591.404 549.16 591.707C548.877 592.01 548.457 592.161 547.9 592.161C547.344 592.161 546.924 592.01 546.641 591.707C546.367 591.404 546.23 591.028 546.23 590.579ZM546.245 577.645C546.245 577.176 546.382 576.785 546.655 576.473C546.938 576.16 547.358 576.004 547.915 576.004C548.472 576.004 548.892 576.16 549.175 576.473C549.468 576.785 549.614 577.176 549.614 577.645C549.614 578.094 549.468 578.47 549.175 578.772C548.892 579.075 548.472 579.227 547.915 579.227C547.358 579.227 546.938 579.075 546.655 578.772C546.382 578.47 546.245 578.094 546.245 577.645Z" fill="black"/>
<rect x="470.5" y="608.5" width="499" height="48" fill="white" stroke="black"/>
<rect x="470.5" y="468.5" width="499" height="48" fill="white" stroke="black"/>
<rect x="570" y="704" width="300" height="74" fill="#656565"/>
<path d="M660.104 746.32H649.381L646.973 753H643.492L653.266 727.406H656.219L666.01 753H662.547L660.104 746.32ZM650.4 743.543H659.102L654.742 731.572L650.4 743.543ZM668.154 743.332C668.154 740.414 668.846 738.07 670.229 736.301C671.611 734.52 673.422 733.629 675.66 733.629C677.887 733.629 679.65 734.391 680.951 735.914V726H684.203V753H681.215L681.057 750.961C679.756 752.555 677.945 753.352 675.625 753.352C673.422 753.352 671.623 752.449 670.229 750.645C668.846 748.84 668.154 746.484 668.154 743.578V743.332ZM671.406 743.701C671.406 745.857 671.852 747.545 672.742 748.764C673.633 749.982 674.863 750.592 676.434 750.592C678.496 750.592 680.002 749.666 680.951 747.814V739.078C679.979 737.285 678.484 736.389 676.469 736.389C674.875 736.389 673.633 737.004 672.742 738.234C671.852 739.465 671.406 741.287 671.406 743.701ZM692.799 753H689.547V733.98H692.799V753ZM689.283 728.936C689.283 728.408 689.441 727.963 689.758 727.6C690.086 727.236 690.566 727.055 691.199 727.055C691.832 727.055 692.312 727.236 692.641 727.6C692.969 727.963 693.133 728.408 693.133 728.936C693.133 729.463 692.969 729.902 692.641 730.254C692.312 730.605 691.832 730.781 691.199 730.781C690.566 730.781 690.086 730.605 689.758 730.254C689.441 729.902 689.283 729.463 689.283 728.936ZM705.648 750.697C706.809 750.697 707.822 750.346 708.689 749.643C709.557 748.939 710.037 748.061 710.131 747.006H713.207C713.148 748.096 712.773 749.133 712.082 750.117C711.391 751.102 710.465 751.887 709.305 752.473C708.156 753.059 706.938 753.352 705.648 753.352C703.059 753.352 700.996 752.49 699.461 750.768C697.938 749.033 697.176 746.666 697.176 743.666V743.121C697.176 741.27 697.516 739.623 698.195 738.182C698.875 736.74 699.848 735.621 701.113 734.824C702.391 734.027 703.896 733.629 705.631 733.629C707.764 733.629 709.533 734.268 710.939 735.545C712.357 736.822 713.113 738.48 713.207 740.52H710.131C710.037 739.289 709.568 738.281 708.725 737.496C707.893 736.699 706.861 736.301 705.631 736.301C703.979 736.301 702.695 736.898 701.781 738.094C700.879 739.277 700.428 740.994 700.428 743.244V743.859C700.428 746.051 700.879 747.738 701.781 748.922C702.684 750.105 703.973 750.697 705.648 750.697ZM720.396 753H717.145V733.98H720.396V753ZM716.881 728.936C716.881 728.408 717.039 727.963 717.355 727.6C717.684 727.236 718.164 727.055 718.797 727.055C719.43 727.055 719.91 727.236 720.238 727.6C720.566 727.963 720.73 728.408 720.73 728.936C720.73 729.463 720.566 729.902 720.238 730.254C719.91 730.605 719.43 730.781 718.797 730.781C718.164 730.781 717.684 730.605 717.355 730.254C717.039 729.902 716.881 729.463 716.881 728.936ZM724.756 743.314C724.756 741.451 725.119 739.775 725.846 738.287C726.584 736.799 727.604 735.65 728.904 734.842C730.217 734.033 731.711 733.629 733.387 733.629C735.977 733.629 738.068 734.525 739.662 736.318C741.268 738.111 742.07 740.496 742.07 743.473V743.701C742.07 745.553 741.713 747.217 740.998 748.693C740.295 750.158 739.281 751.301 737.957 752.121C736.645 752.941 735.133 753.352 733.422 753.352C730.844 753.352 728.752 752.455 727.146 750.662C725.553 748.869 724.756 746.496 724.756 743.543V743.314ZM728.025 743.701C728.025 745.811 728.512 747.504 729.484 748.781C730.469 750.059 731.781 750.697 733.422 750.697C735.074 750.697 736.387 750.053 737.359 748.764C738.332 747.463 738.818 745.646 738.818 743.314C738.818 741.229 738.32 739.541 737.324 738.252C736.34 736.951 735.027 736.301 733.387 736.301C731.781 736.301 730.486 736.939 729.502 738.217C728.518 739.494 728.025 741.322 728.025 743.701ZM749.225 733.98L749.33 736.371C750.783 734.543 752.682 733.629 755.025 733.629C759.045 733.629 761.072 735.896 761.107 740.432V753H757.855V740.414C757.844 739.043 757.527 738.029 756.906 737.373C756.297 736.717 755.342 736.389 754.041 736.389C752.986 736.389 752.061 736.67 751.264 737.232C750.467 737.795 749.846 738.533 749.4 739.447V753H746.148V733.98H749.225ZM777.754 753C777.566 752.625 777.414 751.957 777.297 750.996C775.785 752.566 773.98 753.352 771.883 753.352C770.008 753.352 768.467 752.824 767.26 751.77C766.064 750.703 765.467 749.355 765.467 747.727C765.467 745.746 766.217 744.211 767.717 743.121C769.229 742.02 771.35 741.469 774.08 741.469H777.244V739.975C777.244 738.838 776.904 737.936 776.225 737.268C775.545 736.588 774.543 736.248 773.219 736.248C772.059 736.248 771.086 736.541 770.301 737.127C769.516 737.713 769.123 738.422 769.123 739.254H765.854C765.854 738.305 766.188 737.391 766.855 736.512C767.535 735.621 768.449 734.918 769.598 734.402C770.758 733.887 772.029 733.629 773.412 733.629C775.604 733.629 777.32 734.18 778.562 735.281C779.805 736.371 780.449 737.877 780.496 739.799V748.553C780.496 750.299 780.719 751.688 781.164 752.719V753H777.754ZM772.357 750.521C773.377 750.521 774.344 750.258 775.258 749.73C776.172 749.203 776.834 748.518 777.244 747.674V743.771H774.695C770.711 743.771 768.719 744.938 768.719 747.27C768.719 748.289 769.059 749.086 769.738 749.66C770.418 750.234 771.291 750.521 772.357 750.521ZM794.787 736.898C794.295 736.816 793.762 736.775 793.188 736.775C791.055 736.775 789.607 737.684 788.846 739.5V753H785.594V733.98H788.758L788.811 736.178C789.877 734.479 791.389 733.629 793.346 733.629C793.979 733.629 794.459 733.711 794.787 733.875V736.898Z" fill="white"/>
</svg>
