<svg width="1440" height="1024" viewBox="0 0 1440 1024" fill="none" xmlns="http://www.w3.org/2000/svg">
<rect width="1440" height="1024" fill="#E5E5E5"/>
<rect width="1440" height="1024" fill="white"/>
<rect x="520" y="200" width="400" height="567" fill="#C4C4C4"/>
<rect width="1440" height="60" fill="#C4C4C4"/>
<rect y="964" width="1440" height="60" fill="#C4C4C4"/>
<path d="M58.7969 33.8789C58.4805 36.5859 57.4785 38.6777 55.791 40.1543C54.1152 41.6191 51.8828 42.3516 49.0938 42.3516C46.0703 42.3516 43.6445 41.2676 41.8164 39.0996C40 36.9316 39.0918 34.0312 39.0918 30.3984V27.9375C39.0918 25.5586 39.5137 23.4668 40.3574 21.6621C41.2129 19.8574 42.4199 18.4746 43.9785 17.5137C45.5371 16.541 47.3418 16.0547 49.3926 16.0547C52.1113 16.0547 54.291 16.8164 55.9316 18.3398C57.5723 19.8516 58.5273 21.9492 58.7969 24.6328H55.4043C55.1113 22.5938 54.4727 21.1172 53.4883 20.2031C52.5156 19.2891 51.1504 18.832 49.3926 18.832C47.2363 18.832 45.543 19.6289 44.3125 21.2227C43.0938 22.8164 42.4844 25.084 42.4844 28.0254V30.5039C42.4844 33.2812 43.0645 35.4902 44.2246 37.1309C45.3848 38.7715 47.0078 39.5918 49.0938 39.5918C50.9688 39.5918 52.4043 39.1699 53.4004 38.3262C54.4082 37.4707 55.0762 35.9883 55.4043 33.8789H58.7969ZM62.0488 32.3145C62.0488 30.4512 62.4121 28.7754 63.1387 27.2871C63.877 25.7988 64.8965 24.6504 66.1973 23.8418C67.5098 23.0332 69.0039 22.6289 70.6797 22.6289C73.2695 22.6289 75.3613 23.5254 76.9551 25.3184C78.5605 27.1113 79.3633 29.4961 79.3633 32.4727V32.7012C79.3633 34.5527 79.0059 36.2168 78.291 37.6934C77.5879 39.1582 76.5742 40.3008 75.25 41.1211C73.9375 41.9414 72.4258 42.3516 70.7148 42.3516C68.1367 42.3516 66.0449 41.4551 64.4395 39.6621C62.8457 37.8691 62.0488 35.4961 62.0488 32.543V32.3145ZM65.3184 32.7012C65.3184 34.8105 65.8047 36.5039 66.7773 37.7812C67.7617 39.0586 69.0742 39.6973 70.7148 39.6973C72.3672 39.6973 73.6797 39.0527 74.6523 37.7637C75.625 36.4629 76.1113 34.6465 76.1113 32.3145C76.1113 30.2285 75.6133 28.541 74.6172 27.252C73.6328 25.9512 72.3203 25.3008 70.6797 25.3008C69.0742 25.3008 67.7793 25.9395 66.7949 27.2168C65.8105 28.4941 65.3184 30.3223 65.3184 32.7012ZM86.5176 22.9805L86.623 25.3711C88.0762 23.543 89.9746 22.6289 92.3184 22.6289C96.3379 22.6289 98.3652 24.8965 98.4004 29.4316V42H95.1484V29.4141C95.1367 28.043 94.8203 27.0293 94.1992 26.373C93.5898 25.7168 92.6348 25.3887 91.334 25.3887C90.2793 25.3887 89.3535 25.6699 88.5566 26.2324C87.7598 26.7949 87.1387 27.5332 86.6934 28.4473V42H83.4414V22.9805H86.5176ZM107.717 18.375V22.9805H111.268V25.4941H107.717V37.2891C107.717 38.0508 107.875 38.625 108.191 39.0117C108.508 39.3867 109.047 39.5742 109.809 39.5742C110.184 39.5742 110.699 39.5039 111.355 39.3633V42C110.5 42.2344 109.668 42.3516 108.859 42.3516C107.406 42.3516 106.311 41.9121 105.572 41.0332C104.834 40.1543 104.465 38.9062 104.465 37.2891V25.4941H101.002V22.9805H104.465V18.375H107.717ZM126.824 42C126.637 41.625 126.484 40.957 126.367 39.9961C124.855 41.5664 123.051 42.3516 120.953 42.3516C119.078 42.3516 117.537 41.8242 116.33 40.7695C115.135 39.7031 114.537 38.3555 114.537 36.7266C114.537 34.7461 115.287 33.2109 116.787 32.1211C118.299 31.0195 120.42 30.4688 123.15 30.4688H126.314V28.9746C126.314 27.8379 125.975 26.9355 125.295 26.2676C124.615 25.5879 123.613 25.248 122.289 25.248C121.129 25.248 120.156 25.541 119.371 26.127C118.586 26.7129 118.193 27.4219 118.193 28.2539H114.924C114.924 27.3047 115.258 26.3906 115.926 25.5117C116.605 24.6211 117.52 23.918 118.668 23.4023C119.828 22.8867 121.1 22.6289 122.482 22.6289C124.674 22.6289 126.391 23.1797 127.633 24.2812C128.875 25.3711 129.52 26.877 129.566 28.7988V37.5527C129.566 39.2988 129.789 40.6875 130.234 41.7188V42H126.824ZM121.428 39.5215C122.447 39.5215 123.414 39.2578 124.328 38.7305C125.242 38.2031 125.904 37.5176 126.314 36.6738V32.7715H123.766C119.781 32.7715 117.789 33.9375 117.789 36.2695C117.789 37.2891 118.129 38.0859 118.809 38.6602C119.488 39.2344 120.361 39.5215 121.428 39.5215ZM139.076 18.375V22.9805H142.627V25.4941H139.076V37.2891C139.076 38.0508 139.234 38.625 139.551 39.0117C139.867 39.3867 140.406 39.5742 141.168 39.5742C141.543 39.5742 142.059 39.5039 142.715 39.3633V42C141.859 42.2344 141.027 42.3516 140.219 42.3516C138.766 42.3516 137.67 41.9121 136.932 41.0332C136.193 40.1543 135.824 38.9062 135.824 37.2891V25.4941H132.361V22.9805H135.824V18.375H139.076ZM145.229 32.3145C145.229 30.4512 145.592 28.7754 146.318 27.2871C147.057 25.7988 148.076 24.6504 149.377 23.8418C150.689 23.0332 152.184 22.6289 153.859 22.6289C156.449 22.6289 158.541 23.5254 160.135 25.3184C161.74 27.1113 162.543 29.4961 162.543 32.4727V32.7012C162.543 34.5527 162.186 36.2168 161.471 37.6934C160.768 39.1582 159.754 40.3008 158.43 41.1211C157.117 41.9414 155.605 42.3516 153.895 42.3516C151.316 42.3516 149.225 41.4551 147.619 39.6621C146.025 37.8691 145.229 35.4961 145.229 32.543V32.3145ZM148.498 32.7012C148.498 34.8105 148.984 36.5039 149.957 37.7812C150.941 39.0586 152.254 39.6973 153.895 39.6973C155.547 39.6973 156.859 39.0527 157.832 37.7637C158.805 36.4629 159.291 34.6465 159.291 32.3145C159.291 30.2285 158.793 28.541 157.797 27.252C156.812 25.9512 155.5 25.3008 153.859 25.3008C152.254 25.3008 150.959 25.9395 149.975 27.2168C148.99 28.4941 148.498 30.3223 148.498 32.7012ZM177.695 36.9551C177.695 36.0762 177.361 35.3965 176.693 34.916C176.037 34.4238 174.883 34.002 173.23 33.6504C171.59 33.2988 170.283 32.877 169.311 32.3848C168.35 31.8926 167.635 31.3066 167.166 30.627C166.709 29.9473 166.48 29.1387 166.48 28.2012C166.48 26.6426 167.137 25.3242 168.449 24.2461C169.773 23.168 171.461 22.6289 173.512 22.6289C175.668 22.6289 177.414 23.1855 178.75 24.2988C180.098 25.4121 180.771 26.8359 180.771 28.5703H177.502C177.502 27.6797 177.121 26.9121 176.359 26.2676C175.609 25.623 174.66 25.3008 173.512 25.3008C172.328 25.3008 171.402 25.5586 170.734 26.0742C170.066 26.5898 169.732 27.2637 169.732 28.0957C169.732 28.8809 170.043 29.4727 170.664 29.8711C171.285 30.2695 172.404 30.6504 174.021 31.0137C175.65 31.377 176.969 31.8105 177.977 32.3145C178.984 32.8184 179.729 33.4277 180.209 34.1426C180.701 34.8457 180.947 35.707 180.947 36.7266C180.947 38.4258 180.268 39.791 178.908 40.8223C177.549 41.8418 175.785 42.3516 173.617 42.3516C172.094 42.3516 170.746 42.082 169.574 41.543C168.402 41.0039 167.482 40.2539 166.814 39.293C166.158 38.3203 165.83 37.2715 165.83 36.1465H169.082C169.141 37.2363 169.574 38.1035 170.383 38.748C171.203 39.3809 172.281 39.6973 173.617 39.6973C174.848 39.6973 175.832 39.4512 176.57 38.959C177.32 38.4551 177.695 37.7871 177.695 36.9551ZM185.254 40.2949C185.254 39.7324 185.418 39.2637 185.746 38.8887C186.086 38.5137 186.59 38.3262 187.258 38.3262C187.926 38.3262 188.43 38.5137 188.77 38.8887C189.121 39.2637 189.297 39.7324 189.297 40.2949C189.297 40.834 189.121 41.2852 188.77 41.6484C188.43 42.0117 187.926 42.1934 187.258 42.1934C186.59 42.1934 186.086 42.0117 185.746 41.6484C185.418 41.2852 185.254 40.834 185.254 40.2949ZM202.305 39.6973C203.465 39.6973 204.479 39.3457 205.346 38.6426C206.213 37.9395 206.693 37.0605 206.787 36.0059H209.863C209.805 37.0957 209.43 38.1328 208.738 39.1172C208.047 40.1016 207.121 40.8867 205.961 41.4727C204.812 42.0586 203.594 42.3516 202.305 42.3516C199.715 42.3516 197.652 41.4902 196.117 39.7676C194.594 38.0332 193.832 35.666 193.832 32.666V32.1211C193.832 30.2695 194.172 28.623 194.852 27.1816C195.531 25.7402 196.504 24.6211 197.77 23.8242C199.047 23.0273 200.553 22.6289 202.287 22.6289C204.42 22.6289 206.189 23.2676 207.596 24.5449C209.014 25.8223 209.77 27.4805 209.863 29.5195H206.787C206.693 28.2891 206.225 27.2812 205.381 26.4961C204.549 25.6992 203.518 25.3008 202.287 25.3008C200.635 25.3008 199.352 25.8984 198.438 27.0938C197.535 28.2773 197.084 29.9941 197.084 32.2441V32.8594C197.084 35.0508 197.535 36.7383 198.438 37.9219C199.34 39.1055 200.629 39.6973 202.305 39.6973ZM212.658 32.3145C212.658 30.4512 213.021 28.7754 213.748 27.2871C214.486 25.7988 215.506 24.6504 216.807 23.8418C218.119 23.0332 219.613 22.6289 221.289 22.6289C223.879 22.6289 225.971 23.5254 227.564 25.3184C229.17 27.1113 229.973 29.4961 229.973 32.4727V32.7012C229.973 34.5527 229.615 36.2168 228.9 37.6934C228.197 39.1582 227.184 40.3008 225.859 41.1211C224.547 41.9414 223.035 42.3516 221.324 42.3516C218.746 42.3516 216.654 41.4551 215.049 39.6621C213.455 37.8691 212.658 35.4961 212.658 32.543V32.3145ZM215.928 32.7012C215.928 34.8105 216.414 36.5039 217.387 37.7812C218.371 39.0586 219.684 39.6973 221.324 39.6973C222.977 39.6973 224.289 39.0527 225.262 37.7637C226.234 36.4629 226.721 34.6465 226.721 32.3145C226.721 30.2285 226.223 28.541 225.227 27.252C224.242 25.9512 222.93 25.3008 221.289 25.3008C219.684 25.3008 218.389 25.9395 217.404 27.2168C216.42 28.4941 215.928 30.3223 215.928 32.7012ZM237.109 22.9805L237.197 25.0898C238.592 23.4492 240.473 22.6289 242.84 22.6289C245.5 22.6289 247.311 23.6484 248.271 25.6875C248.904 24.7734 249.725 24.0352 250.732 23.4727C251.752 22.9102 252.953 22.6289 254.336 22.6289C258.508 22.6289 260.629 24.8379 260.699 29.2559V42H257.447V29.4492C257.447 28.0898 257.137 27.0762 256.516 26.4082C255.895 25.7285 254.852 25.3887 253.387 25.3887C252.18 25.3887 251.178 25.752 250.381 26.4785C249.584 27.1934 249.121 28.1602 248.992 29.3789V42H245.723V29.5371C245.723 26.7715 244.369 25.3887 241.662 25.3887C239.529 25.3887 238.07 26.2969 237.285 28.1133V42H234.033V22.9805H237.109Z" fill="black"/>
<path d="M694.531 249.142H685.288V256.7H696.025V259H682.476V237.672H695.879V239.986H685.288V246.842H694.531V249.142ZM701.665 243.15L701.753 245.143C702.964 243.619 704.546 242.857 706.499 242.857C709.849 242.857 711.538 244.747 711.567 248.526V259H708.857V248.512C708.848 247.369 708.584 246.524 708.066 245.978C707.559 245.431 706.763 245.157 705.679 245.157C704.8 245.157 704.028 245.392 703.364 245.86C702.7 246.329 702.183 246.944 701.812 247.706V259H699.102V243.15H701.665ZM719.331 239.312V243.15H722.29V245.245H719.331V255.074C719.331 255.709 719.463 256.188 719.727 256.51C719.99 256.822 720.439 256.979 721.074 256.979C721.387 256.979 721.816 256.92 722.363 256.803V259C721.65 259.195 720.957 259.293 720.283 259.293C719.072 259.293 718.159 258.927 717.544 258.194C716.929 257.462 716.621 256.422 716.621 255.074V245.245H713.735V243.15H716.621V239.312H719.331ZM733.13 245.582C732.72 245.514 732.275 245.479 731.797 245.479C730.02 245.479 728.813 246.236 728.179 247.75V259H725.469V243.15H728.105L728.149 244.981C729.038 243.565 730.298 242.857 731.929 242.857C732.456 242.857 732.856 242.926 733.13 243.062V245.582ZM744.834 259C744.678 258.688 744.551 258.131 744.453 257.33C743.193 258.639 741.689 259.293 739.941 259.293C738.379 259.293 737.095 258.854 736.089 257.975C735.093 257.086 734.595 255.963 734.595 254.605C734.595 252.955 735.22 251.676 736.47 250.768C737.729 249.85 739.497 249.391 741.772 249.391H744.409V248.146C744.409 247.198 744.126 246.446 743.56 245.89C742.993 245.323 742.158 245.04 741.055 245.04C740.088 245.04 739.277 245.284 738.623 245.772C737.969 246.261 737.642 246.852 737.642 247.545H734.917C734.917 246.754 735.195 245.992 735.752 245.26C736.318 244.518 737.08 243.932 738.037 243.502C739.004 243.072 740.063 242.857 741.216 242.857C743.042 242.857 744.473 243.316 745.508 244.234C746.543 245.143 747.08 246.397 747.119 247.999V255.294C747.119 256.749 747.305 257.906 747.676 258.766V259H744.834ZM740.337 256.935C741.187 256.935 741.992 256.715 742.754 256.275C743.516 255.836 744.067 255.265 744.409 254.562V251.31H742.285C738.965 251.31 737.305 252.281 737.305 254.225C737.305 255.074 737.588 255.738 738.154 256.217C738.721 256.695 739.448 256.935 740.337 256.935ZM759.028 245.582C758.618 245.514 758.174 245.479 757.695 245.479C755.918 245.479 754.712 246.236 754.077 247.75V259H751.367V243.15H754.004L754.048 244.981C754.937 243.565 756.196 242.857 757.827 242.857C758.354 242.857 758.755 242.926 759.028 243.062V245.582Z" fill="black"/>
<rect x="570.5" y="315.5" width="299" height="59" fill="white" stroke="black"/>
<path d="M582.109 300.785H574.407V307.083H583.354V309H572.063V291.227H583.232V293.155H574.407V298.868H582.109V300.785ZM588.042 295.792L588.103 297.257C589.071 296.118 590.378 295.548 592.021 295.548C593.869 295.548 595.126 296.256 595.793 297.672C596.233 297.037 596.803 296.524 597.502 296.134C598.21 295.743 599.045 295.548 600.005 295.548C602.902 295.548 604.375 297.082 604.424 300.15V309H602.166V300.284C602.166 299.34 601.95 298.636 601.519 298.172C601.087 297.7 600.363 297.464 599.346 297.464C598.507 297.464 597.812 297.717 597.258 298.221C596.705 298.718 596.383 299.389 596.294 300.235V309H594.023V300.345C594.023 298.425 593.083 297.464 591.204 297.464C589.722 297.464 588.709 298.095 588.164 299.356V309H585.906V295.792H588.042ZM615.996 309C615.866 308.74 615.76 308.276 615.679 307.608C614.629 308.699 613.376 309.244 611.919 309.244C610.617 309.244 609.547 308.878 608.708 308.146C607.878 307.405 607.463 306.469 607.463 305.338C607.463 303.963 607.984 302.896 609.026 302.14C610.076 301.375 611.549 300.992 613.445 300.992H615.642V299.955C615.642 299.165 615.406 298.539 614.934 298.075C614.462 297.603 613.766 297.367 612.847 297.367C612.041 297.367 611.366 297.57 610.82 297.977C610.275 298.384 610.002 298.876 610.002 299.454H607.732C607.732 298.795 607.964 298.16 608.428 297.55C608.9 296.931 609.535 296.443 610.332 296.085C611.138 295.727 612.021 295.548 612.981 295.548C614.503 295.548 615.695 295.93 616.558 296.695C617.42 297.452 617.868 298.498 617.9 299.833V305.912C617.9 307.124 618.055 308.089 618.364 308.805V309H615.996ZM612.249 307.279C612.957 307.279 613.628 307.096 614.263 306.729C614.897 306.363 615.357 305.887 615.642 305.301V302.591H613.872C611.105 302.591 609.722 303.401 609.722 305.021C609.722 305.729 609.958 306.282 610.43 306.681C610.902 307.079 611.508 307.279 612.249 307.279ZM623.894 309H621.636V295.792H623.894V309ZM621.453 292.289C621.453 291.922 621.562 291.613 621.782 291.361C622.01 291.109 622.344 290.982 622.783 290.982C623.223 290.982 623.556 291.109 623.784 291.361C624.012 291.613 624.126 291.922 624.126 292.289C624.126 292.655 624.012 292.96 623.784 293.204C623.556 293.448 623.223 293.57 622.783 293.57C622.344 293.57 622.01 293.448 621.782 293.204C621.562 292.96 621.453 292.655 621.453 292.289ZM629.973 309H627.715V290.25H629.973V309ZM633.525 307.816C633.525 307.425 633.639 307.1 633.867 306.839C634.103 306.579 634.453 306.449 634.917 306.449C635.381 306.449 635.731 306.579 635.967 306.839C636.211 307.1 636.333 307.425 636.333 307.816C636.333 308.19 636.211 308.504 635.967 308.756C635.731 309.008 635.381 309.134 634.917 309.134C634.453 309.134 634.103 309.008 633.867 308.756C633.639 308.504 633.525 308.19 633.525 307.816ZM633.538 297.037C633.538 296.646 633.652 296.321 633.879 296.061C634.115 295.8 634.465 295.67 634.929 295.67C635.393 295.67 635.743 295.8 635.979 296.061C636.223 296.321 636.345 296.646 636.345 297.037C636.345 297.411 636.223 297.725 635.979 297.977C635.743 298.229 635.393 298.355 634.929 298.355C634.465 298.355 634.115 298.229 633.879 297.977C633.652 297.725 633.538 297.411 633.538 297.037Z" fill="black"/>
<rect x="570.5" y="426.5" width="299" height="59" fill="white" stroke="black"/>
<path d="M577.3 412.078C575.29 411.5 573.825 410.792 572.905 409.954C571.994 409.107 571.538 408.066 571.538 406.829C571.538 405.429 572.096 404.273 573.21 403.362C574.333 402.442 575.79 401.982 577.581 401.982C578.801 401.982 579.888 402.218 580.84 402.69C581.8 403.162 582.541 403.813 583.062 404.644C583.59 405.474 583.855 406.381 583.855 407.366H581.499C581.499 406.292 581.157 405.449 580.474 404.839C579.79 404.22 578.826 403.911 577.581 403.911C576.425 403.911 575.522 404.167 574.871 404.68C574.228 405.185 573.906 405.889 573.906 406.792C573.906 407.516 574.211 408.131 574.822 408.635C575.44 409.132 576.486 409.587 577.959 410.002C579.44 410.417 580.596 410.877 581.426 411.382C582.264 411.878 582.882 412.46 583.281 413.127C583.688 413.795 583.892 414.58 583.892 415.483C583.892 416.924 583.33 418.079 582.207 418.95C581.084 419.813 579.583 420.244 577.703 420.244C576.482 420.244 575.343 420.012 574.285 419.548C573.227 419.076 572.409 418.433 571.831 417.62C571.261 416.806 570.977 415.882 570.977 414.849H573.333C573.333 415.923 573.727 416.773 574.517 417.4C575.314 418.018 576.376 418.328 577.703 418.328C578.94 418.328 579.888 418.075 580.547 417.571C581.206 417.066 581.536 416.379 581.536 415.508C581.536 414.637 581.23 413.966 580.62 413.494C580.01 413.014 578.903 412.542 577.3 412.078ZM592.034 420.244C590.243 420.244 588.787 419.658 587.664 418.486C586.541 417.306 585.979 415.732 585.979 413.762V413.347C585.979 412.037 586.227 410.869 586.724 409.844C587.228 408.81 587.928 408.005 588.823 407.427C589.727 406.841 590.703 406.548 591.753 406.548C593.47 406.548 594.805 407.113 595.757 408.245C596.709 409.376 597.185 410.995 597.185 413.103V414.043H588.237C588.27 415.345 588.648 416.399 589.373 417.205C590.105 418.002 591.033 418.401 592.156 418.401C592.953 418.401 593.629 418.238 594.182 417.913C594.736 417.587 595.22 417.156 595.635 416.619L597.014 417.693C595.907 419.394 594.247 420.244 592.034 420.244ZM591.753 408.403C590.841 408.403 590.076 408.737 589.458 409.404C588.84 410.063 588.457 410.991 588.311 412.188H594.927V412.017C594.862 410.869 594.552 409.982 593.999 409.355C593.446 408.721 592.697 408.403 591.753 408.403ZM601.946 406.792L602.019 408.452C603.028 407.183 604.347 406.548 605.974 406.548C608.765 406.548 610.173 408.123 610.198 411.272V420H607.939V411.26C607.931 410.308 607.712 409.604 607.28 409.148C606.857 408.692 606.194 408.464 605.291 408.464C604.558 408.464 603.915 408.66 603.362 409.05C602.808 409.441 602.377 409.954 602.068 410.588V420H599.81V406.792H601.946ZM615.862 408.391C616.863 407.162 618.165 406.548 619.768 406.548C622.559 406.548 623.967 408.123 623.992 411.272V420H621.733V411.26C621.725 410.308 621.506 409.604 621.074 409.148C620.651 408.692 619.988 408.464 619.084 408.464C618.352 408.464 617.709 408.66 617.156 409.05C616.602 409.441 616.171 409.954 615.862 410.588V420H613.604V401.25H615.862V408.391ZM635.527 420C635.397 419.74 635.291 419.276 635.21 418.608C634.16 419.699 632.907 420.244 631.45 420.244C630.148 420.244 629.078 419.878 628.24 419.146C627.41 418.405 626.995 417.469 626.995 416.338C626.995 414.963 627.515 413.896 628.557 413.14C629.607 412.375 631.08 411.992 632.976 411.992H635.173V410.955C635.173 410.165 634.937 409.539 634.465 409.075C633.993 408.603 633.298 408.367 632.378 408.367C631.572 408.367 630.897 408.57 630.352 408.977C629.806 409.384 629.534 409.876 629.534 410.454H627.263C627.263 409.795 627.495 409.16 627.959 408.55C628.431 407.931 629.066 407.443 629.863 407.085C630.669 406.727 631.552 406.548 632.512 406.548C634.034 406.548 635.226 406.93 636.089 407.695C636.951 408.452 637.399 409.498 637.432 410.833V416.912C637.432 418.124 637.586 419.089 637.896 419.805V420H635.527ZM631.78 418.279C632.488 418.279 633.159 418.096 633.794 417.729C634.429 417.363 634.889 416.887 635.173 416.301V413.591H633.403C630.636 413.591 629.253 414.401 629.253 416.021C629.253 416.729 629.489 417.282 629.961 417.681C630.433 418.079 631.039 418.279 631.78 418.279ZM640.898 418.816C640.898 418.425 641.012 418.1 641.24 417.839C641.476 417.579 641.826 417.449 642.29 417.449C642.754 417.449 643.104 417.579 643.34 417.839C643.584 418.1 643.706 418.425 643.706 418.816C643.706 419.19 643.584 419.504 643.34 419.756C643.104 420.008 642.754 420.134 642.29 420.134C641.826 420.134 641.476 420.008 641.24 419.756C641.012 419.504 640.898 419.19 640.898 418.816ZM640.911 408.037C640.911 407.646 641.025 407.321 641.252 407.061C641.488 406.8 641.838 406.67 642.302 406.67C642.766 406.67 643.116 406.8 643.352 407.061C643.596 407.321 643.718 407.646 643.718 408.037C643.718 408.411 643.596 408.725 643.352 408.977C643.116 409.229 642.766 409.355 642.302 409.355C641.838 409.355 641.488 409.229 641.252 408.977C641.025 408.725 640.911 408.411 640.911 408.037Z" fill="black"/>
<rect x="569" y="645" width="300" height="60" fill="#656565"/>
<path d="M632.867 617H630.04L619.303 600.564V617H616.476V595.672H619.303L630.069 612.181V595.672H632.867V617ZM647.223 617C647.066 616.688 646.939 616.131 646.842 615.33C645.582 616.639 644.078 617.293 642.33 617.293C640.768 617.293 639.483 616.854 638.478 615.975C637.481 615.086 636.983 613.963 636.983 612.605C636.983 610.955 637.608 609.676 638.858 608.768C640.118 607.85 641.886 607.391 644.161 607.391H646.798V606.146C646.798 605.198 646.515 604.446 645.948 603.89C645.382 603.323 644.547 603.04 643.443 603.04C642.477 603.04 641.666 603.284 641.012 603.772C640.357 604.261 640.03 604.852 640.03 605.545H637.306C637.306 604.754 637.584 603.992 638.141 603.26C638.707 602.518 639.469 601.932 640.426 601.502C641.393 601.072 642.452 600.857 643.604 600.857C645.431 600.857 646.861 601.316 647.896 602.234C648.932 603.143 649.469 604.397 649.508 605.999V613.294C649.508 614.749 649.693 615.906 650.064 616.766V617H647.223ZM642.726 614.935C643.575 614.935 644.381 614.715 645.143 614.275C645.904 613.836 646.456 613.265 646.798 612.562V609.31H644.674C641.354 609.31 639.693 610.281 639.693 612.225C639.693 613.074 639.977 613.738 640.543 614.217C641.109 614.695 641.837 614.935 642.726 614.935ZM649.098 594.969C649.098 596.023 648.795 596.878 648.189 597.532C647.594 598.187 646.847 598.514 645.948 598.514C645.548 598.514 645.201 598.465 644.908 598.367C644.615 598.27 644.229 598.069 643.751 597.767C643.282 597.464 642.94 597.283 642.726 597.225C642.521 597.156 642.281 597.122 642.008 597.122C641.607 597.122 641.266 597.278 640.982 597.591C640.699 597.894 640.558 598.284 640.558 598.763L638.741 598.66C638.741 597.615 639.034 596.751 639.62 596.067C640.216 595.384 640.968 595.042 641.876 595.042C642.218 595.042 642.525 595.091 642.799 595.188C643.072 595.286 643.443 595.477 643.912 595.76C644.381 596.043 644.737 596.229 644.981 596.316C645.235 596.404 645.514 596.448 645.816 596.448C646.236 596.448 646.583 596.282 646.856 595.95C647.14 595.618 647.281 595.232 647.281 594.793L649.098 594.969ZM653.038 608.929C653.038 607.376 653.341 605.979 653.946 604.739C654.562 603.499 655.411 602.542 656.495 601.868C657.589 601.194 658.834 600.857 660.23 600.857C662.389 600.857 664.132 601.604 665.46 603.099C666.798 604.593 667.467 606.58 667.467 609.061V609.251C667.467 610.794 667.169 612.181 666.573 613.411C665.987 614.632 665.143 615.584 664.039 616.268C662.945 616.951 661.686 617.293 660.26 617.293C658.111 617.293 656.368 616.546 655.03 615.052C653.702 613.558 653.038 611.58 653.038 609.119V608.929ZM655.763 609.251C655.763 611.009 656.168 612.42 656.979 613.484C657.799 614.549 658.893 615.081 660.26 615.081C661.637 615.081 662.73 614.544 663.541 613.47C664.352 612.386 664.757 610.872 664.757 608.929C664.757 607.19 664.342 605.784 663.512 604.71C662.691 603.626 661.598 603.084 660.23 603.084C658.893 603.084 657.813 603.616 656.993 604.681C656.173 605.745 655.763 607.269 655.763 609.251ZM681.983 597.312V601.15H684.942V603.245H681.983V613.074C681.983 613.709 682.115 614.188 682.379 614.51C682.643 614.822 683.092 614.979 683.727 614.979C684.039 614.979 684.469 614.92 685.016 614.803V617C684.303 617.195 683.609 617.293 682.936 617.293C681.725 617.293 680.812 616.927 680.196 616.194C679.581 615.462 679.273 614.422 679.273 613.074V603.245H676.388V601.15H679.273V597.312H681.983ZM694.698 617.293C692.55 617.293 690.802 616.59 689.454 615.184C688.106 613.768 687.433 611.878 687.433 609.515V609.017C687.433 607.444 687.73 606.043 688.326 604.812C688.932 603.572 689.771 602.605 690.846 601.912C691.93 601.209 693.102 600.857 694.361 600.857C696.422 600.857 698.023 601.536 699.166 602.894C700.309 604.251 700.88 606.194 700.88 608.724V609.852H690.143C690.182 611.414 690.636 612.679 691.505 613.646C692.384 614.603 693.497 615.081 694.845 615.081C695.802 615.081 696.612 614.886 697.276 614.495C697.94 614.104 698.521 613.587 699.02 612.942L700.675 614.231C699.347 616.272 697.354 617.293 694.698 617.293ZM694.361 603.084C693.268 603.084 692.35 603.484 691.607 604.285C690.865 605.076 690.406 606.189 690.23 607.625H698.17V607.42C698.092 606.043 697.721 604.979 697.057 604.227C696.393 603.465 695.494 603.084 694.361 603.084ZM706.578 601.15L706.651 602.908C707.813 601.541 709.381 600.857 711.354 600.857C713.57 600.857 715.079 601.707 715.88 603.406C716.407 602.645 717.091 602.029 717.931 601.561C718.78 601.092 719.781 600.857 720.934 600.857C724.41 600.857 726.178 602.698 726.236 606.38V617H723.526V606.541C723.526 605.408 723.268 604.563 722.75 604.007C722.232 603.44 721.363 603.157 720.143 603.157C719.137 603.157 718.302 603.46 717.638 604.065C716.974 604.661 716.588 605.467 716.48 606.482V617H713.756V606.614C713.756 604.31 712.628 603.157 710.372 603.157C708.595 603.157 707.379 603.914 706.725 605.428V617H704.015V601.15H706.578ZM744.137 615.081C745.104 615.081 745.948 614.788 746.671 614.202C747.394 613.616 747.794 612.884 747.872 612.005H750.436C750.387 612.913 750.074 613.777 749.498 614.598C748.922 615.418 748.15 616.072 747.184 616.561C746.227 617.049 745.211 617.293 744.137 617.293C741.979 617.293 740.26 616.575 738.98 615.14C737.711 613.694 737.076 611.722 737.076 609.222V608.768C737.076 607.225 737.359 605.853 737.926 604.651C738.492 603.45 739.303 602.518 740.357 601.854C741.422 601.189 742.677 600.857 744.122 600.857C745.899 600.857 747.374 601.39 748.546 602.454C749.728 603.519 750.357 604.9 750.436 606.6H747.872C747.794 605.574 747.403 604.734 746.7 604.08C746.007 603.416 745.147 603.084 744.122 603.084C742.745 603.084 741.676 603.582 740.914 604.578C740.162 605.564 739.786 606.995 739.786 608.87V609.383C739.786 611.209 740.162 612.615 740.914 613.602C741.666 614.588 742.74 615.081 744.137 615.081ZM752.765 608.929C752.765 607.376 753.067 605.979 753.673 604.739C754.288 603.499 755.138 602.542 756.222 601.868C757.315 601.194 758.561 600.857 759.957 600.857C762.115 600.857 763.858 601.604 765.187 603.099C766.524 604.593 767.193 606.58 767.193 609.061V609.251C767.193 610.794 766.896 612.181 766.3 613.411C765.714 614.632 764.869 615.584 763.766 616.268C762.672 616.951 761.412 617.293 759.986 617.293C757.838 617.293 756.095 616.546 754.757 615.052C753.429 613.558 752.765 611.58 752.765 609.119V608.929ZM755.489 609.251C755.489 611.009 755.895 612.42 756.705 613.484C757.525 614.549 758.619 615.081 759.986 615.081C761.363 615.081 762.457 614.544 763.268 613.47C764.078 612.386 764.483 610.872 764.483 608.929C764.483 607.19 764.068 605.784 763.238 604.71C762.418 603.626 761.324 603.084 759.957 603.084C758.619 603.084 757.54 603.616 756.72 604.681C755.899 605.745 755.489 607.269 755.489 609.251ZM773.155 601.15L773.243 603.143C774.454 601.619 776.036 600.857 777.989 600.857C781.339 600.857 783.028 602.747 783.058 606.526V617H780.348V606.512C780.338 605.369 780.074 604.524 779.557 603.978C779.049 603.431 778.253 603.157 777.169 603.157C776.29 603.157 775.519 603.392 774.854 603.86C774.19 604.329 773.673 604.944 773.302 605.706V617H770.592V601.15H773.155ZM790.821 597.312V601.15H793.78V603.245H790.821V613.074C790.821 613.709 790.953 614.188 791.217 614.51C791.48 614.822 791.93 614.979 792.564 614.979C792.877 614.979 793.307 614.92 793.854 614.803V617C793.141 617.195 792.447 617.293 791.773 617.293C790.562 617.293 789.649 616.927 789.034 616.194C788.419 615.462 788.111 614.422 788.111 613.074V603.245H785.226V601.15H788.111V597.312H790.821ZM806.744 617C806.588 616.688 806.461 616.131 806.363 615.33C805.104 616.639 803.6 617.293 801.852 617.293C800.289 617.293 799.005 616.854 797.999 615.975C797.003 615.086 796.505 613.963 796.505 612.605C796.505 610.955 797.13 609.676 798.38 608.768C799.64 607.85 801.407 607.391 803.683 607.391H806.319V606.146C806.319 605.198 806.036 604.446 805.47 603.89C804.903 603.323 804.068 603.04 802.965 603.04C801.998 603.04 801.188 603.284 800.533 603.772C799.879 604.261 799.552 604.852 799.552 605.545H796.827C796.827 604.754 797.105 603.992 797.662 603.26C798.229 602.518 798.99 601.932 799.947 601.502C800.914 601.072 801.974 600.857 803.126 600.857C804.952 600.857 806.383 601.316 807.418 602.234C808.453 603.143 808.99 604.397 809.029 605.999V613.294C809.029 614.749 809.215 615.906 809.586 616.766V617H806.744ZM802.247 614.935C803.097 614.935 803.902 614.715 804.664 614.275C805.426 613.836 805.978 613.265 806.319 612.562V609.31H804.195C800.875 609.31 799.215 610.281 799.215 612.225C799.215 613.074 799.498 613.738 800.064 614.217C800.631 614.695 801.358 614.935 802.247 614.935ZM816.456 610.994C816.476 609.832 816.607 608.914 816.852 608.24C817.096 607.566 817.594 606.819 818.346 605.999L820.265 604.021C821.085 603.094 821.495 602.098 821.495 601.033C821.495 600.008 821.227 599.207 820.689 598.631C820.152 598.045 819.371 597.752 818.346 597.752C817.35 597.752 816.549 598.016 815.943 598.543C815.338 599.07 815.035 599.778 815.035 600.667H812.325C812.345 599.085 812.906 597.811 814.01 596.844C815.123 595.867 816.568 595.379 818.346 595.379C820.191 595.379 821.627 595.877 822.652 596.873C823.688 597.859 824.205 599.217 824.205 600.945C824.205 602.654 823.414 604.339 821.832 605.999L820.235 607.581C819.522 608.372 819.166 609.51 819.166 610.994H816.456ZM816.339 615.638C816.339 615.198 816.471 614.832 816.734 614.539C817.008 614.236 817.408 614.085 817.936 614.085C818.463 614.085 818.863 614.236 819.137 614.539C819.41 614.832 819.547 615.198 819.547 615.638C819.547 616.077 819.41 616.443 819.137 616.736C818.863 617.02 818.463 617.161 817.936 617.161C817.408 617.161 817.008 617.02 816.734 616.736C816.471 616.443 816.339 616.077 816.339 615.638Z" fill="black"/>
<path d="M619.582 676.81H615.407V684H613.051V666.227H618.935C620.937 666.227 622.475 666.682 623.549 667.594C624.631 668.505 625.172 669.832 625.172 671.573C625.172 672.68 624.871 673.644 624.269 674.466C623.675 675.288 622.845 675.903 621.779 676.31L625.954 683.854V684H623.439L619.582 676.81ZM615.407 674.894H619.008C620.172 674.894 621.095 674.592 621.779 673.99C622.471 673.388 622.816 672.582 622.816 671.573C622.816 670.475 622.487 669.632 621.828 669.046C621.177 668.46 620.233 668.163 618.996 668.155H615.407V674.894ZM633.595 684.244C631.805 684.244 630.348 683.658 629.225 682.486C628.102 681.306 627.541 679.732 627.541 677.762V677.347C627.541 676.037 627.789 674.869 628.285 673.844C628.79 672.81 629.49 672.005 630.385 671.427C631.288 670.841 632.265 670.548 633.314 670.548C635.032 670.548 636.366 671.113 637.318 672.245C638.271 673.376 638.747 674.995 638.747 677.103V678.043H629.799C629.831 679.345 630.21 680.399 630.934 681.205C631.667 682.002 632.594 682.401 633.717 682.401C634.515 682.401 635.19 682.238 635.744 681.913C636.297 681.587 636.781 681.156 637.196 680.619L638.576 681.693C637.469 683.394 635.809 684.244 633.595 684.244ZM633.314 672.403C632.403 672.403 631.638 672.737 631.02 673.404C630.401 674.063 630.019 674.991 629.872 676.188H636.488V676.017C636.423 674.869 636.114 673.982 635.561 673.355C635.007 672.721 634.258 672.403 633.314 672.403ZM640.834 677.286C640.834 675.227 641.31 673.591 642.262 672.379C643.214 671.158 644.476 670.548 646.046 670.548C647.658 670.548 648.915 671.118 649.818 672.257L649.928 670.792H651.991V683.683C651.991 685.392 651.483 686.738 650.465 687.723C649.456 688.708 648.097 689.2 646.388 689.2C645.436 689.2 644.504 688.997 643.593 688.59C642.681 688.183 641.986 687.625 641.505 686.917L642.677 685.562C643.646 686.759 644.83 687.357 646.229 687.357C647.328 687.357 648.183 687.048 648.793 686.429C649.411 685.811 649.721 684.94 649.721 683.817V682.682C648.817 683.723 647.584 684.244 646.022 684.244C644.476 684.244 643.222 683.622 642.262 682.376C641.31 681.131 640.834 679.435 640.834 677.286ZM643.104 677.542C643.104 679.032 643.41 680.204 644.02 681.058C644.63 681.904 645.485 682.328 646.583 682.328C648.008 682.328 649.053 681.681 649.721 680.387V674.356C649.029 673.095 647.991 672.464 646.608 672.464C645.509 672.464 644.651 672.892 644.032 673.746C643.414 674.601 643.104 675.866 643.104 677.542ZM657.863 684H655.604V670.792H657.863V684ZM655.421 667.289C655.421 666.922 655.531 666.613 655.751 666.361C655.979 666.109 656.312 665.982 656.752 665.982C657.191 665.982 657.525 666.109 657.753 666.361C657.981 666.613 658.095 666.922 658.095 667.289C658.095 667.655 657.981 667.96 657.753 668.204C657.525 668.448 657.191 668.57 656.752 668.57C656.312 668.57 655.979 668.448 655.751 668.204C655.531 667.96 655.421 667.655 655.421 667.289ZM669.179 680.497C669.179 679.886 668.947 679.414 668.483 679.081C668.027 678.739 667.226 678.446 666.078 678.202C664.939 677.958 664.031 677.665 663.356 677.323C662.689 676.981 662.192 676.574 661.867 676.102C661.549 675.63 661.391 675.069 661.391 674.417C661.391 673.335 661.846 672.42 662.758 671.671C663.677 670.922 664.849 670.548 666.273 670.548C667.771 670.548 668.983 670.934 669.911 671.708C670.847 672.481 671.315 673.469 671.315 674.674H669.044C669.044 674.055 668.78 673.522 668.251 673.075C667.73 672.627 667.071 672.403 666.273 672.403C665.451 672.403 664.809 672.582 664.345 672.94C663.881 673.299 663.649 673.766 663.649 674.344C663.649 674.889 663.865 675.3 664.296 675.577C664.727 675.854 665.504 676.118 666.627 676.371C667.759 676.623 668.674 676.924 669.374 677.274C670.074 677.624 670.591 678.047 670.924 678.543C671.266 679.032 671.437 679.63 671.437 680.338C671.437 681.518 670.965 682.466 670.021 683.182C669.077 683.89 667.852 684.244 666.347 684.244C665.289 684.244 664.353 684.057 663.539 683.683C662.725 683.308 662.086 682.787 661.623 682.12C661.167 681.445 660.939 680.716 660.939 679.935H663.197C663.238 680.692 663.539 681.294 664.101 681.742C664.67 682.181 665.419 682.401 666.347 682.401C667.201 682.401 667.885 682.23 668.397 681.888C668.918 681.538 669.179 681.074 669.179 680.497ZM677.443 667.594V670.792H679.909V672.538H677.443V680.729C677.443 681.257 677.553 681.656 677.772 681.925C677.992 682.185 678.367 682.315 678.896 682.315C679.156 682.315 679.514 682.267 679.97 682.169V684C679.376 684.163 678.798 684.244 678.236 684.244C677.227 684.244 676.466 683.939 675.954 683.329C675.441 682.718 675.185 681.852 675.185 680.729V672.538H672.78V670.792H675.185V667.594H677.443ZM688.942 672.818C688.6 672.761 688.23 672.733 687.831 672.733C686.35 672.733 685.345 673.364 684.816 674.625V684H682.558V670.792H684.755L684.792 672.318C685.532 671.138 686.582 670.548 687.941 670.548C688.38 670.548 688.714 670.605 688.942 670.719V672.818ZM696.266 684.244C694.476 684.244 693.019 683.658 691.896 682.486C690.773 681.306 690.211 679.732 690.211 677.762V677.347C690.211 676.037 690.46 674.869 690.956 673.844C691.461 672.81 692.16 672.005 693.056 671.427C693.959 670.841 694.936 670.548 695.985 670.548C697.702 670.548 699.037 671.113 699.989 672.245C700.941 673.376 701.417 674.995 701.417 677.103V678.043H692.47C692.502 679.345 692.881 680.399 693.605 681.205C694.337 682.002 695.265 682.401 696.388 682.401C697.186 682.401 697.861 682.238 698.415 681.913C698.968 681.587 699.452 681.156 699.867 680.619L701.247 681.693C700.14 683.394 698.48 684.244 696.266 684.244ZM695.985 672.403C695.074 672.403 694.309 672.737 693.69 673.404C693.072 674.063 692.689 674.991 692.543 676.188H699.159V676.017C699.094 674.869 698.785 673.982 698.231 673.355C697.678 672.721 696.929 672.403 695.985 672.403ZM718.397 682.694C717.519 683.727 716.229 684.244 714.528 684.244C713.12 684.244 712.046 683.837 711.305 683.023C710.573 682.201 710.202 680.989 710.194 679.386V670.792H712.453V679.325C712.453 681.327 713.266 682.328 714.894 682.328C716.619 682.328 717.767 681.685 718.336 680.399V670.792H720.595V684H718.446L718.397 682.694ZM726.161 670.792L726.222 672.257C727.191 671.118 728.497 670.548 730.141 670.548C731.988 670.548 733.245 671.256 733.913 672.672C734.352 672.037 734.922 671.524 735.622 671.134C736.33 670.743 737.164 670.548 738.124 670.548C741.021 670.548 742.494 672.082 742.543 675.15V684H740.285V675.284C740.285 674.34 740.069 673.636 739.638 673.172C739.206 672.7 738.482 672.464 737.465 672.464C736.627 672.464 735.931 672.717 735.377 673.221C734.824 673.718 734.503 674.389 734.413 675.235V684H732.143V675.345C732.143 673.425 731.203 672.464 729.323 672.464C727.842 672.464 726.828 673.095 726.283 674.356V684H724.025V670.792H726.161ZM754.115 684C753.985 683.74 753.879 683.276 753.798 682.608C752.748 683.699 751.495 684.244 750.038 684.244C748.736 684.244 747.666 683.878 746.828 683.146C745.998 682.405 745.583 681.469 745.583 680.338C745.583 678.963 746.103 677.896 747.145 677.14C748.195 676.375 749.668 675.992 751.564 675.992H753.761V674.955C753.761 674.165 753.525 673.539 753.053 673.075C752.581 672.603 751.885 672.367 750.966 672.367C750.16 672.367 749.485 672.57 748.939 672.977C748.394 673.384 748.122 673.876 748.122 674.454H745.851C745.851 673.795 746.083 673.16 746.547 672.55C747.019 671.931 747.654 671.443 748.451 671.085C749.257 670.727 750.14 670.548 751.1 670.548C752.622 670.548 753.814 670.93 754.677 671.695C755.539 672.452 755.987 673.498 756.02 674.833V680.912C756.02 682.124 756.174 683.089 756.483 683.805V684H754.115ZM750.368 682.279C751.076 682.279 751.747 682.096 752.382 681.729C753.017 681.363 753.476 680.887 753.761 680.301V677.591H751.991C749.224 677.591 747.841 678.401 747.841 680.021C747.841 680.729 748.077 681.282 748.549 681.681C749.021 682.079 749.627 682.279 750.368 682.279ZM771.059 682.401C771.864 682.401 772.568 682.157 773.17 681.668C773.773 681.18 774.106 680.57 774.171 679.837H776.308C776.267 680.594 776.007 681.314 775.526 681.998C775.046 682.682 774.403 683.227 773.598 683.634C772.8 684.041 771.954 684.244 771.059 684.244C769.26 684.244 767.828 683.646 766.762 682.45C765.704 681.245 765.175 679.601 765.175 677.518V677.14C765.175 675.854 765.411 674.71 765.883 673.709C766.355 672.708 767.03 671.931 767.909 671.378C768.796 670.825 769.842 670.548 771.046 670.548C772.528 670.548 773.756 670.991 774.733 671.878C775.718 672.765 776.243 673.917 776.308 675.333H774.171C774.106 674.479 773.781 673.779 773.195 673.233C772.617 672.68 771.901 672.403 771.046 672.403C769.899 672.403 769.008 672.818 768.373 673.648C767.746 674.47 767.433 675.663 767.433 677.225V677.652C767.433 679.174 767.746 680.346 768.373 681.168C769 681.99 769.895 682.401 771.059 682.401ZM778.249 677.274C778.249 675.98 778.501 674.816 779.005 673.783C779.518 672.749 780.226 671.952 781.129 671.39C782.041 670.829 783.078 670.548 784.242 670.548C786.041 670.548 787.493 671.17 788.6 672.416C789.715 673.661 790.272 675.317 790.272 677.384V677.542C790.272 678.828 790.024 679.984 789.528 681.009C789.04 682.027 788.336 682.82 787.416 683.39C786.505 683.959 785.455 684.244 784.267 684.244C782.476 684.244 781.024 683.622 779.909 682.376C778.802 681.131 778.249 679.483 778.249 677.433V677.274ZM780.519 677.542C780.519 679.007 780.857 680.183 781.532 681.07C782.216 681.957 783.127 682.401 784.267 682.401C785.414 682.401 786.326 681.953 787.001 681.058C787.676 680.155 788.014 678.893 788.014 677.274C788.014 675.825 787.668 674.653 786.977 673.758C786.293 672.855 785.382 672.403 784.242 672.403C783.127 672.403 782.228 672.847 781.544 673.734C780.861 674.621 780.519 675.89 780.519 677.542ZM795.241 670.792L795.314 672.452C796.323 671.183 797.641 670.548 799.269 670.548C802.06 670.548 803.468 672.123 803.493 675.272V684H801.234V675.26C801.226 674.308 801.007 673.604 800.575 673.148C800.152 672.692 799.489 672.464 798.585 672.464C797.853 672.464 797.21 672.66 796.657 673.05C796.103 673.441 795.672 673.954 795.363 674.588V684H793.104V670.792H795.241ZM809.962 667.594V670.792H812.428V672.538H809.962V680.729C809.962 681.257 810.072 681.656 810.292 681.925C810.512 682.185 810.886 682.315 811.415 682.315C811.675 682.315 812.034 682.267 812.489 682.169V684C811.895 684.163 811.317 684.244 810.756 684.244C809.747 684.244 808.986 683.939 808.473 683.329C807.96 682.718 807.704 681.852 807.704 680.729V672.538H805.299V670.792H807.704V667.594H809.962ZM823.231 684C823.101 683.74 822.995 683.276 822.914 682.608C821.864 683.699 820.611 684.244 819.154 684.244C817.852 684.244 816.782 683.878 815.944 683.146C815.114 682.405 814.699 681.469 814.699 680.338C814.699 678.963 815.22 677.896 816.261 677.14C817.311 676.375 818.784 675.992 820.68 675.992H822.877V674.955C822.877 674.165 822.641 673.539 822.169 673.075C821.697 672.603 821.002 672.367 820.082 672.367C819.276 672.367 818.601 672.57 818.056 672.977C817.51 673.384 817.238 673.876 817.238 674.454H814.967C814.967 673.795 815.199 673.16 815.663 672.55C816.135 671.931 816.77 671.443 817.567 671.085C818.373 670.727 819.256 670.548 820.216 670.548C821.738 670.548 822.93 670.93 823.793 671.695C824.656 672.452 825.103 673.498 825.136 674.833V680.912C825.136 682.124 825.29 683.089 825.6 683.805V684H823.231ZM819.484 682.279C820.192 682.279 820.863 682.096 821.498 681.729C822.133 681.363 822.593 680.887 822.877 680.301V677.591H821.107C818.34 677.591 816.957 678.401 816.957 680.021C816.957 680.729 817.193 681.282 817.665 681.681C818.137 682.079 818.743 682.279 819.484 682.279Z" fill="white"/>
<rect x="659" y="514" width="120" height="40" fill="#656565"/>
<path d="M697.109 536.785H689.407V543.083H698.354V545H687.063V527.227H698.232V529.155H689.407V534.868H697.109V536.785ZM703.054 531.792L703.127 533.452C704.137 532.183 705.455 531.548 707.083 531.548C709.874 531.548 711.282 533.123 711.306 536.272V545H709.048V536.26C709.04 535.308 708.82 534.604 708.389 534.148C707.965 533.692 707.302 533.464 706.399 533.464C705.667 533.464 705.024 533.66 704.47 534.05C703.917 534.441 703.486 534.954 703.176 535.588V545H700.918V531.792H703.054ZM717.776 528.594V531.792H720.242V533.538H717.776V541.729C717.776 542.257 717.886 542.656 718.105 542.925C718.325 543.185 718.7 543.315 719.229 543.315C719.489 543.315 719.847 543.267 720.303 543.169V545C719.709 545.163 719.131 545.244 718.569 545.244C717.56 545.244 716.799 544.939 716.287 544.329C715.774 543.718 715.518 542.852 715.518 541.729V533.538H713.113V531.792H715.518V528.594H717.776ZM729.275 533.818C728.933 533.761 728.563 533.733 728.164 533.733C726.683 533.733 725.678 534.364 725.149 535.625V545H722.891V531.792H725.088L725.125 533.318C725.865 532.138 726.915 531.548 728.274 531.548C728.713 531.548 729.047 531.605 729.275 531.719V533.818ZM739.028 545C738.898 544.74 738.792 544.276 738.711 543.608C737.661 544.699 736.408 545.244 734.951 545.244C733.649 545.244 732.579 544.878 731.741 544.146C730.911 543.405 730.496 542.469 730.496 541.338C730.496 539.963 731.016 538.896 732.058 538.14C733.108 537.375 734.581 536.992 736.477 536.992H738.674V535.955C738.674 535.165 738.438 534.539 737.966 534.075C737.494 533.603 736.799 533.367 735.879 533.367C735.073 533.367 734.398 533.57 733.853 533.977C733.307 534.384 733.035 534.876 733.035 535.454H730.764C730.764 534.795 730.996 534.16 731.46 533.55C731.932 532.931 732.567 532.443 733.364 532.085C734.17 531.727 735.053 531.548 736.013 531.548C737.535 531.548 738.727 531.93 739.59 532.695C740.452 533.452 740.9 534.498 740.933 535.833V541.912C740.933 543.124 741.087 544.089 741.396 544.805V545H739.028ZM735.281 543.279C735.989 543.279 736.66 543.096 737.295 542.729C737.93 542.363 738.389 541.887 738.674 541.301V538.591H736.904C734.137 538.591 732.754 539.401 732.754 541.021C732.754 541.729 732.99 542.282 733.462 542.681C733.934 543.079 734.54 543.279 735.281 543.279ZM750.857 533.818C750.515 533.761 750.145 533.733 749.746 533.733C748.265 533.733 747.26 534.364 746.731 535.625V545H744.473V531.792H746.67L746.707 533.318C747.447 532.138 748.497 531.548 749.856 531.548C750.295 531.548 750.629 531.605 750.857 531.719V533.818Z" fill="white"/>
</svg>
