<svg width="1440" height="1024" viewBox="0 0 1440 1024" fill="none" xmlns="http://www.w3.org/2000/svg">
<rect width="1440" height="1024" fill="#E5E5E5"/>
<rect width="1440" height="1024" fill="white"/>
<rect width="1440" height="60" fill="#C4C4C4"/>
<rect y="964" width="1440" height="60" fill="#C4C4C4"/>
<path d="M58.7969 33.8789C58.4805 36.5859 57.4785 38.6777 55.791 40.1543C54.1152 41.6191 51.8828 42.3516 49.0938 42.3516C46.0703 42.3516 43.6445 41.2676 41.8164 39.0996C40 36.9316 39.0918 34.0312 39.0918 30.3984V27.9375C39.0918 25.5586 39.5137 23.4668 40.3574 21.6621C41.2129 19.8574 42.4199 18.4746 43.9785 17.5137C45.5371 16.541 47.3418 16.0547 49.3926 16.0547C52.1113 16.0547 54.291 16.8164 55.9316 18.3398C57.5723 19.8516 58.5273 21.9492 58.7969 24.6328H55.4043C55.1113 22.5938 54.4727 21.1172 53.4883 20.2031C52.5156 19.2891 51.1504 18.832 49.3926 18.832C47.2363 18.832 45.543 19.6289 44.3125 21.2227C43.0938 22.8164 42.4844 25.084 42.4844 28.0254V30.5039C42.4844 33.2812 43.0645 35.4902 44.2246 37.1309C45.3848 38.7715 47.0078 39.5918 49.0938 39.5918C50.9688 39.5918 52.4043 39.1699 53.4004 38.3262C54.4082 37.4707 55.0762 35.9883 55.4043 33.8789H58.7969ZM62.0488 32.3145C62.0488 30.4512 62.4121 28.7754 63.1387 27.2871C63.877 25.7988 64.8965 24.6504 66.1973 23.8418C67.5098 23.0332 69.0039 22.6289 70.6797 22.6289C73.2695 22.6289 75.3613 23.5254 76.9551 25.3184C78.5605 27.1113 79.3633 29.4961 79.3633 32.4727V32.7012C79.3633 34.5527 79.0059 36.2168 78.291 37.6934C77.5879 39.1582 76.5742 40.3008 75.25 41.1211C73.9375 41.9414 72.4258 42.3516 70.7148 42.3516C68.1367 42.3516 66.0449 41.4551 64.4395 39.6621C62.8457 37.8691 62.0488 35.4961 62.0488 32.543V32.3145ZM65.3184 32.7012C65.3184 34.8105 65.8047 36.5039 66.7773 37.7812C67.7617 39.0586 69.0742 39.6973 70.7148 39.6973C72.3672 39.6973 73.6797 39.0527 74.6523 37.7637C75.625 36.4629 76.1113 34.6465 76.1113 32.3145C76.1113 30.2285 75.6133 28.541 74.6172 27.252C73.6328 25.9512 72.3203 25.3008 70.6797 25.3008C69.0742 25.3008 67.7793 25.9395 66.7949 27.2168C65.8105 28.4941 65.3184 30.3223 65.3184 32.7012ZM86.5176 22.9805L86.623 25.3711C88.0762 23.543 89.9746 22.6289 92.3184 22.6289C96.3379 22.6289 98.3652 24.8965 98.4004 29.4316V42H95.1484V29.4141C95.1367 28.043 94.8203 27.0293 94.1992 26.373C93.5898 25.7168 92.6348 25.3887 91.334 25.3887C90.2793 25.3887 89.3535 25.6699 88.5566 26.2324C87.7598 26.7949 87.1387 27.5332 86.6934 28.4473V42H83.4414V22.9805H86.5176ZM107.717 18.375V22.9805H111.268V25.4941H107.717V37.2891C107.717 38.0508 107.875 38.625 108.191 39.0117C108.508 39.3867 109.047 39.5742 109.809 39.5742C110.184 39.5742 110.699 39.5039 111.355 39.3633V42C110.5 42.2344 109.668 42.3516 108.859 42.3516C107.406 42.3516 106.311 41.9121 105.572 41.0332C104.834 40.1543 104.465 38.9062 104.465 37.2891V25.4941H101.002V22.9805H104.465V18.375H107.717ZM126.824 42C126.637 41.625 126.484 40.957 126.367 39.9961C124.855 41.5664 123.051 42.3516 120.953 42.3516C119.078 42.3516 117.537 41.8242 116.33 40.7695C115.135 39.7031 114.537 38.3555 114.537 36.7266C114.537 34.7461 115.287 33.2109 116.787 32.1211C118.299 31.0195 120.42 30.4688 123.15 30.4688H126.314V28.9746C126.314 27.8379 125.975 26.9355 125.295 26.2676C124.615 25.5879 123.613 25.248 122.289 25.248C121.129 25.248 120.156 25.541 119.371 26.127C118.586 26.7129 118.193 27.4219 118.193 28.2539H114.924C114.924 27.3047 115.258 26.3906 115.926 25.5117C116.605 24.6211 117.52 23.918 118.668 23.4023C119.828 22.8867 121.1 22.6289 122.482 22.6289C124.674 22.6289 126.391 23.1797 127.633 24.2812C128.875 25.3711 129.52 26.877 129.566 28.7988V37.5527C129.566 39.2988 129.789 40.6875 130.234 41.7188V42H126.824ZM121.428 39.5215C122.447 39.5215 123.414 39.2578 124.328 38.7305C125.242 38.2031 125.904 37.5176 126.314 36.6738V32.7715H123.766C119.781 32.7715 117.789 33.9375 117.789 36.2695C117.789 37.2891 118.129 38.0859 118.809 38.6602C119.488 39.2344 120.361 39.5215 121.428 39.5215ZM139.076 18.375V22.9805H142.627V25.4941H139.076V37.2891C139.076 38.0508 139.234 38.625 139.551 39.0117C139.867 39.3867 140.406 39.5742 141.168 39.5742C141.543 39.5742 142.059 39.5039 142.715 39.3633V42C141.859 42.2344 141.027 42.3516 140.219 42.3516C138.766 42.3516 137.67 41.9121 136.932 41.0332C136.193 40.1543 135.824 38.9062 135.824 37.2891V25.4941H132.361V22.9805H135.824V18.375H139.076ZM145.229 32.3145C145.229 30.4512 145.592 28.7754 146.318 27.2871C147.057 25.7988 148.076 24.6504 149.377 23.8418C150.689 23.0332 152.184 22.6289 153.859 22.6289C156.449 22.6289 158.541 23.5254 160.135 25.3184C161.74 27.1113 162.543 29.4961 162.543 32.4727V32.7012C162.543 34.5527 162.186 36.2168 161.471 37.6934C160.768 39.1582 159.754 40.3008 158.43 41.1211C157.117 41.9414 155.605 42.3516 153.895 42.3516C151.316 42.3516 149.225 41.4551 147.619 39.6621C146.025 37.8691 145.229 35.4961 145.229 32.543V32.3145ZM148.498 32.7012C148.498 34.8105 148.984 36.5039 149.957 37.7812C150.941 39.0586 152.254 39.6973 153.895 39.6973C155.547 39.6973 156.859 39.0527 157.832 37.7637C158.805 36.4629 159.291 34.6465 159.291 32.3145C159.291 30.2285 158.793 28.541 157.797 27.252C156.812 25.9512 155.5 25.3008 153.859 25.3008C152.254 25.3008 150.959 25.9395 149.975 27.2168C148.99 28.4941 148.498 30.3223 148.498 32.7012ZM177.695 36.9551C177.695 36.0762 177.361 35.3965 176.693 34.916C176.037 34.4238 174.883 34.002 173.23 33.6504C171.59 33.2988 170.283 32.877 169.311 32.3848C168.35 31.8926 167.635 31.3066 167.166 30.627C166.709 29.9473 166.48 29.1387 166.48 28.2012C166.48 26.6426 167.137 25.3242 168.449 24.2461C169.773 23.168 171.461 22.6289 173.512 22.6289C175.668 22.6289 177.414 23.1855 178.75 24.2988C180.098 25.4121 180.771 26.8359 180.771 28.5703H177.502C177.502 27.6797 177.121 26.9121 176.359 26.2676C175.609 25.623 174.66 25.3008 173.512 25.3008C172.328 25.3008 171.402 25.5586 170.734 26.0742C170.066 26.5898 169.732 27.2637 169.732 28.0957C169.732 28.8809 170.043 29.4727 170.664 29.8711C171.285 30.2695 172.404 30.6504 174.021 31.0137C175.65 31.377 176.969 31.8105 177.977 32.3145C178.984 32.8184 179.729 33.4277 180.209 34.1426C180.701 34.8457 180.947 35.707 180.947 36.7266C180.947 38.4258 180.268 39.791 178.908 40.8223C177.549 41.8418 175.785 42.3516 173.617 42.3516C172.094 42.3516 170.746 42.082 169.574 41.543C168.402 41.0039 167.482 40.2539 166.814 39.293C166.158 38.3203 165.83 37.2715 165.83 36.1465H169.082C169.141 37.2363 169.574 38.1035 170.383 38.748C171.203 39.3809 172.281 39.6973 173.617 39.6973C174.848 39.6973 175.832 39.4512 176.57 38.959C177.32 38.4551 177.695 37.7871 177.695 36.9551ZM185.254 40.2949C185.254 39.7324 185.418 39.2637 185.746 38.8887C186.086 38.5137 186.59 38.3262 187.258 38.3262C187.926 38.3262 188.43 38.5137 188.77 38.8887C189.121 39.2637 189.297 39.7324 189.297 40.2949C189.297 40.834 189.121 41.2852 188.77 41.6484C188.43 42.0117 187.926 42.1934 187.258 42.1934C186.59 42.1934 186.086 42.0117 185.746 41.6484C185.418 41.2852 185.254 40.834 185.254 40.2949ZM202.305 39.6973C203.465 39.6973 204.479 39.3457 205.346 38.6426C206.213 37.9395 206.693 37.0605 206.787 36.0059H209.863C209.805 37.0957 209.43 38.1328 208.738 39.1172C208.047 40.1016 207.121 40.8867 205.961 41.4727C204.812 42.0586 203.594 42.3516 202.305 42.3516C199.715 42.3516 197.652 41.4902 196.117 39.7676C194.594 38.0332 193.832 35.666 193.832 32.666V32.1211C193.832 30.2695 194.172 28.623 194.852 27.1816C195.531 25.7402 196.504 24.6211 197.77 23.8242C199.047 23.0273 200.553 22.6289 202.287 22.6289C204.42 22.6289 206.189 23.2676 207.596 24.5449C209.014 25.8223 209.77 27.4805 209.863 29.5195H206.787C206.693 28.2891 206.225 27.2812 205.381 26.4961C204.549 25.6992 203.518 25.3008 202.287 25.3008C200.635 25.3008 199.352 25.8984 198.438 27.0938C197.535 28.2773 197.084 29.9941 197.084 32.2441V32.8594C197.084 35.0508 197.535 36.7383 198.438 37.9219C199.34 39.1055 200.629 39.6973 202.305 39.6973ZM212.658 32.3145C212.658 30.4512 213.021 28.7754 213.748 27.2871C214.486 25.7988 215.506 24.6504 216.807 23.8418C218.119 23.0332 219.613 22.6289 221.289 22.6289C223.879 22.6289 225.971 23.5254 227.564 25.3184C229.17 27.1113 229.973 29.4961 229.973 32.4727V32.7012C229.973 34.5527 229.615 36.2168 228.9 37.6934C228.197 39.1582 227.184 40.3008 225.859 41.1211C224.547 41.9414 223.035 42.3516 221.324 42.3516C218.746 42.3516 216.654 41.4551 215.049 39.6621C213.455 37.8691 212.658 35.4961 212.658 32.543V32.3145ZM215.928 32.7012C215.928 34.8105 216.414 36.5039 217.387 37.7812C218.371 39.0586 219.684 39.6973 221.324 39.6973C222.977 39.6973 224.289 39.0527 225.262 37.7637C226.234 36.4629 226.721 34.6465 226.721 32.3145C226.721 30.2285 226.223 28.541 225.227 27.252C224.242 25.9512 222.93 25.3008 221.289 25.3008C219.684 25.3008 218.389 25.9395 217.404 27.2168C216.42 28.4941 215.928 30.3223 215.928 32.7012ZM237.109 22.9805L237.197 25.0898C238.592 23.4492 240.473 22.6289 242.84 22.6289C245.5 22.6289 247.311 23.6484 248.271 25.6875C248.904 24.7734 249.725 24.0352 250.732 23.4727C251.752 22.9102 252.953 22.6289 254.336 22.6289C258.508 22.6289 260.629 24.8379 260.699 29.2559V42H257.447V29.4492C257.447 28.0898 257.137 27.0762 256.516 26.4082C255.895 25.7285 254.852 25.3887 253.387 25.3887C252.18 25.3887 251.178 25.752 250.381 26.4785C249.584 27.1934 249.121 28.1602 248.992 29.3789V42H245.723V29.5371C245.723 26.7715 244.369 25.3887 241.662 25.3887C239.529 25.3887 238.07 26.2969 237.285 28.1133V42H234.033V22.9805H237.109Z" fill="black"/>
<rect x="520" y="229" width="400" height="534" fill="#C4C4C4"/>
<path d="M602.298 311.372H597.288V320H594.461V298.672H601.521C603.924 298.672 605.77 299.219 607.059 300.312C608.357 301.406 609.007 302.998 609.007 305.088C609.007 306.416 608.646 307.573 607.923 308.56C607.21 309.546 606.214 310.283 604.935 310.771L609.944 319.824V320H606.927L602.298 311.372ZM597.288 309.072H601.609C603.006 309.072 604.114 308.711 604.935 307.988C605.765 307.266 606.18 306.299 606.18 305.088C606.18 303.77 605.784 302.759 604.993 302.056C604.212 301.353 603.079 300.996 601.595 300.986H597.288V309.072ZM619.114 320.293C616.966 320.293 615.218 319.59 613.87 318.184C612.522 316.768 611.849 314.878 611.849 312.515V312.017C611.849 310.444 612.146 309.043 612.742 307.812C613.348 306.572 614.188 305.605 615.262 304.912C616.346 304.209 617.518 303.857 618.777 303.857C620.838 303.857 622.439 304.536 623.582 305.894C624.725 307.251 625.296 309.194 625.296 311.724V312.852H614.559C614.598 314.414 615.052 315.679 615.921 316.646C616.8 317.603 617.913 318.081 619.261 318.081C620.218 318.081 621.028 317.886 621.692 317.495C622.356 317.104 622.938 316.587 623.436 315.942L625.091 317.231C623.763 319.272 621.771 320.293 619.114 320.293ZM618.777 306.084C617.684 306.084 616.766 306.484 616.023 307.285C615.281 308.076 614.822 309.189 614.646 310.625H622.586V310.42C622.508 309.043 622.137 307.979 621.473 307.227C620.809 306.465 619.91 306.084 618.777 306.084ZM627.801 311.943C627.801 309.473 628.372 307.51 629.515 306.055C630.657 304.59 632.171 303.857 634.056 303.857C635.989 303.857 637.498 304.541 638.582 305.908L638.714 304.15H641.189V319.619C641.189 321.67 640.579 323.286 639.358 324.468C638.147 325.649 636.517 326.24 634.466 326.24C633.323 326.24 632.205 325.996 631.111 325.508C630.018 325.02 629.183 324.351 628.606 323.501L630.013 321.875C631.175 323.311 632.596 324.028 634.275 324.028C635.594 324.028 636.619 323.657 637.352 322.915C638.094 322.173 638.465 321.128 638.465 319.78V318.418C637.381 319.668 635.901 320.293 634.026 320.293C632.171 320.293 630.667 319.546 629.515 318.052C628.372 316.558 627.801 314.521 627.801 311.943ZM630.525 312.251C630.525 314.038 630.892 315.444 631.624 316.47C632.356 317.485 633.382 317.993 634.7 317.993C636.409 317.993 637.664 317.217 638.465 315.664V308.428C637.635 306.914 636.39 306.157 634.729 306.157C633.411 306.157 632.381 306.67 631.639 307.695C630.896 308.721 630.525 310.239 630.525 312.251ZM648.235 320H645.525V304.15H648.235V320ZM645.306 299.946C645.306 299.507 645.438 299.136 645.701 298.833C645.975 298.53 646.375 298.379 646.902 298.379C647.43 298.379 647.83 298.53 648.104 298.833C648.377 299.136 648.514 299.507 648.514 299.946C648.514 300.386 648.377 300.752 648.104 301.045C647.83 301.338 647.43 301.484 646.902 301.484C646.375 301.484 645.975 301.338 645.701 301.045C645.438 300.752 645.306 300.386 645.306 299.946ZM661.814 315.796C661.814 315.063 661.536 314.497 660.979 314.097C660.433 313.687 659.471 313.335 658.094 313.042C656.727 312.749 655.638 312.397 654.827 311.987C654.026 311.577 653.431 311.089 653.04 310.522C652.659 309.956 652.469 309.282 652.469 308.501C652.469 307.202 653.016 306.104 654.109 305.205C655.213 304.307 656.619 303.857 658.328 303.857C660.125 303.857 661.58 304.321 662.693 305.249C663.816 306.177 664.378 307.363 664.378 308.809H661.653C661.653 308.066 661.336 307.427 660.701 306.89C660.076 306.353 659.285 306.084 658.328 306.084C657.342 306.084 656.57 306.299 656.014 306.729C655.457 307.158 655.179 307.72 655.179 308.413C655.179 309.067 655.438 309.561 655.955 309.893C656.473 310.225 657.405 310.542 658.753 310.845C660.11 311.147 661.209 311.509 662.049 311.929C662.889 312.349 663.509 312.856 663.909 313.452C664.319 314.038 664.524 314.756 664.524 315.605C664.524 317.021 663.958 318.159 662.825 319.019C661.692 319.868 660.223 320.293 658.416 320.293C657.146 320.293 656.023 320.068 655.047 319.619C654.07 319.17 653.304 318.545 652.747 317.744C652.2 316.934 651.927 316.06 651.927 315.122H654.637C654.686 316.03 655.047 316.753 655.721 317.29C656.404 317.817 657.303 318.081 658.416 318.081C659.441 318.081 660.262 317.876 660.877 317.466C661.502 317.046 661.814 316.489 661.814 315.796ZM671.731 300.312V304.15H674.69V306.245H671.731V316.074C671.731 316.709 671.863 317.188 672.127 317.51C672.391 317.822 672.84 317.979 673.475 317.979C673.787 317.979 674.217 317.92 674.764 317.803V320C674.051 320.195 673.357 320.293 672.684 320.293C671.473 320.293 670.56 319.927 669.944 319.194C669.329 318.462 669.021 317.422 669.021 316.074V306.245H666.136V304.15H669.021V300.312H671.731ZM685.53 306.582C685.12 306.514 684.676 306.479 684.197 306.479C682.42 306.479 681.214 307.236 680.579 308.75V320H677.869V304.15H680.506L680.55 305.981C681.438 304.565 682.698 303.857 684.329 303.857C684.856 303.857 685.257 303.926 685.53 304.062V306.582ZM694.319 320.293C692.171 320.293 690.423 319.59 689.075 318.184C687.728 316.768 687.054 314.878 687.054 312.515V312.017C687.054 310.444 687.352 309.043 687.947 307.812C688.553 306.572 689.393 305.605 690.467 304.912C691.551 304.209 692.723 303.857 693.982 303.857C696.043 303.857 697.645 304.536 698.787 305.894C699.93 307.251 700.501 309.194 700.501 311.724V312.852H689.764C689.803 314.414 690.257 315.679 691.126 316.646C692.005 317.603 693.118 318.081 694.466 318.081C695.423 318.081 696.233 317.886 696.897 317.495C697.562 317.104 698.143 316.587 698.641 315.942L700.296 317.231C698.968 319.272 696.976 320.293 694.319 320.293ZM693.982 306.084C692.889 306.084 691.971 306.484 691.229 307.285C690.486 308.076 690.027 309.189 689.852 310.625H697.791V310.42C697.713 309.043 697.342 307.979 696.678 307.227C696.014 306.465 695.115 306.084 693.982 306.084ZM720.32 315.796C720.32 315.063 720.042 314.497 719.485 314.097C718.938 313.687 717.977 313.335 716.6 313.042C715.232 312.749 714.144 312.397 713.333 311.987C712.532 311.577 711.937 311.089 711.546 310.522C711.165 309.956 710.975 309.282 710.975 308.501C710.975 307.202 711.521 306.104 712.615 305.205C713.719 304.307 715.125 303.857 716.834 303.857C718.631 303.857 720.086 304.321 721.199 305.249C722.322 306.177 722.884 307.363 722.884 308.809H720.159C720.159 308.066 719.842 307.427 719.207 306.89C718.582 306.353 717.791 306.084 716.834 306.084C715.848 306.084 715.076 306.299 714.52 306.729C713.963 307.158 713.685 307.72 713.685 308.413C713.685 309.067 713.943 309.561 714.461 309.893C714.979 310.225 715.911 310.542 717.259 310.845C718.616 311.147 719.715 311.509 720.555 311.929C721.395 312.349 722.015 312.856 722.415 313.452C722.825 314.038 723.03 314.756 723.03 315.605C723.03 317.021 722.464 318.159 721.331 319.019C720.198 319.868 718.729 320.293 716.922 320.293C715.652 320.293 714.529 320.068 713.553 319.619C712.576 319.17 711.81 318.545 711.253 317.744C710.706 316.934 710.433 316.06 710.433 315.122H713.143C713.191 316.03 713.553 316.753 714.227 317.29C714.91 317.817 715.809 318.081 716.922 318.081C717.947 318.081 718.768 317.876 719.383 317.466C720.008 317.046 720.32 316.489 720.32 315.796ZM736.346 318.433C735.291 319.673 733.743 320.293 731.702 320.293C730.013 320.293 728.724 319.805 727.835 318.828C726.956 317.842 726.512 316.387 726.502 314.463V304.15H729.212V314.39C729.212 316.792 730.188 317.993 732.142 317.993C734.212 317.993 735.589 317.222 736.272 315.679V304.15H738.982V320H736.404L736.346 318.433ZM752.898 320C752.742 319.688 752.615 319.131 752.518 318.33C751.258 319.639 749.754 320.293 748.006 320.293C746.443 320.293 745.159 319.854 744.153 318.975C743.157 318.086 742.659 316.963 742.659 315.605C742.659 313.955 743.284 312.676 744.534 311.768C745.794 310.85 747.562 310.391 749.837 310.391H752.474V309.146C752.474 308.198 752.19 307.446 751.624 306.89C751.058 306.323 750.223 306.04 749.119 306.04C748.152 306.04 747.342 306.284 746.688 306.772C746.033 307.261 745.706 307.852 745.706 308.545H742.981C742.981 307.754 743.26 306.992 743.816 306.26C744.383 305.518 745.145 304.932 746.102 304.502C747.068 304.072 748.128 303.857 749.28 303.857C751.106 303.857 752.537 304.316 753.572 305.234C754.607 306.143 755.145 307.397 755.184 308.999V316.294C755.184 317.749 755.369 318.906 755.74 319.766V320H752.898ZM748.401 317.935C749.251 317.935 750.057 317.715 750.818 317.275C751.58 316.836 752.132 316.265 752.474 315.562V312.31H750.35C747.029 312.31 745.369 313.281 745.369 315.225C745.369 316.074 745.652 316.738 746.219 317.217C746.785 317.695 747.513 317.935 748.401 317.935ZM773.23 318.081C774.197 318.081 775.042 317.788 775.765 317.202C776.487 316.616 776.888 315.884 776.966 315.005H779.529C779.48 315.913 779.168 316.777 778.592 317.598C778.016 318.418 777.244 319.072 776.277 319.561C775.32 320.049 774.305 320.293 773.23 320.293C771.072 320.293 769.354 319.575 768.074 318.14C766.805 316.694 766.17 314.722 766.17 312.222V311.768C766.17 310.225 766.453 308.853 767.02 307.651C767.586 306.45 768.396 305.518 769.451 304.854C770.516 304.189 771.771 303.857 773.216 303.857C774.993 303.857 776.468 304.39 777.64 305.454C778.821 306.519 779.451 307.9 779.529 309.6H776.966C776.888 308.574 776.497 307.734 775.794 307.08C775.101 306.416 774.241 306.084 773.216 306.084C771.839 306.084 770.77 306.582 770.008 307.578C769.256 308.564 768.88 309.995 768.88 311.87V312.383C768.88 314.209 769.256 315.615 770.008 316.602C770.76 317.588 771.834 318.081 773.23 318.081ZM781.858 311.929C781.858 310.376 782.161 308.979 782.767 307.739C783.382 306.499 784.231 305.542 785.315 304.868C786.409 304.194 787.654 303.857 789.051 303.857C791.209 303.857 792.952 304.604 794.28 306.099C795.618 307.593 796.287 309.58 796.287 312.061V312.251C796.287 313.794 795.989 315.181 795.394 316.411C794.808 317.632 793.963 318.584 792.859 319.268C791.766 319.951 790.506 320.293 789.08 320.293C786.932 320.293 785.188 319.546 783.851 318.052C782.522 316.558 781.858 314.58 781.858 312.119V311.929ZM784.583 312.251C784.583 314.009 784.988 315.42 785.799 316.484C786.619 317.549 787.713 318.081 789.08 318.081C790.457 318.081 791.551 317.544 792.361 316.47C793.172 315.386 793.577 313.872 793.577 311.929C793.577 310.19 793.162 308.784 792.332 307.71C791.512 306.626 790.418 306.084 789.051 306.084C787.713 306.084 786.634 306.616 785.813 307.681C784.993 308.745 784.583 310.269 784.583 312.251ZM802.249 304.15L802.337 306.143C803.548 304.619 805.13 303.857 807.083 303.857C810.433 303.857 812.122 305.747 812.151 309.526V320H809.441V309.512C809.432 308.369 809.168 307.524 808.65 306.978C808.143 306.431 807.347 306.157 806.263 306.157C805.384 306.157 804.612 306.392 803.948 306.86C803.284 307.329 802.767 307.944 802.396 308.706V320H799.686V304.15H802.249ZM819.915 300.312V304.15H822.874V306.245H819.915V316.074C819.915 316.709 820.047 317.188 820.311 317.51C820.574 317.822 821.023 317.979 821.658 317.979C821.971 317.979 822.4 317.92 822.947 317.803V320C822.234 320.195 821.541 320.293 820.867 320.293C819.656 320.293 818.743 319.927 818.128 319.194C817.513 318.462 817.205 317.422 817.205 316.074V306.245H814.319V304.15H817.205V300.312H819.915ZM835.838 320C835.682 319.688 835.555 319.131 835.457 318.33C834.197 319.639 832.693 320.293 830.945 320.293C829.383 320.293 828.099 319.854 827.093 318.975C826.097 318.086 825.599 316.963 825.599 315.605C825.599 313.955 826.224 312.676 827.474 311.768C828.733 310.85 830.501 310.391 832.776 310.391H835.413V309.146C835.413 308.198 835.13 307.446 834.563 306.89C833.997 306.323 833.162 306.04 832.059 306.04C831.092 306.04 830.281 306.284 829.627 306.772C828.973 307.261 828.646 307.852 828.646 308.545H825.921C825.921 307.754 826.199 306.992 826.756 306.26C827.322 305.518 828.084 304.932 829.041 304.502C830.008 304.072 831.067 303.857 832.22 303.857C834.046 303.857 835.477 304.316 836.512 305.234C837.547 306.143 838.084 307.397 838.123 308.999V316.294C838.123 317.749 838.309 318.906 838.68 319.766V320H835.838ZM831.341 317.935C832.19 317.935 832.996 317.715 833.758 317.275C834.52 316.836 835.071 316.265 835.413 315.562V312.31H833.289C829.969 312.31 828.309 313.281 828.309 315.225C828.309 316.074 828.592 316.738 829.158 317.217C829.725 317.695 830.452 317.935 831.341 317.935ZM842.283 318.579C842.283 318.11 842.42 317.72 842.693 317.407C842.977 317.095 843.396 316.938 843.953 316.938C844.51 316.938 844.93 317.095 845.213 317.407C845.506 317.72 845.652 318.11 845.652 318.579C845.652 319.028 845.506 319.404 845.213 319.707C844.93 320.01 844.51 320.161 843.953 320.161C843.396 320.161 842.977 320.01 842.693 319.707C842.42 319.404 842.283 319.028 842.283 318.579ZM842.298 305.645C842.298 305.176 842.435 304.785 842.708 304.473C842.991 304.16 843.411 304.004 843.968 304.004C844.524 304.004 844.944 304.16 845.228 304.473C845.521 304.785 845.667 305.176 845.667 305.645C845.667 306.094 845.521 306.47 845.228 306.772C844.944 307.075 844.524 307.227 843.968 307.227C843.411 307.227 842.991 307.075 842.708 306.772C842.435 306.47 842.298 306.094 842.298 305.645Z" fill="black"/>
<rect x="570.5" y="407.5" width="299" height="59" fill="white" stroke="black"/>
<path d="M582.109 392.785H574.407V399.083H583.354V401H572.063V383.227H583.232V385.155H574.407V390.868H582.109V392.785ZM588.042 387.792L588.103 389.257C589.071 388.118 590.378 387.548 592.021 387.548C593.869 387.548 595.126 388.256 595.793 389.672C596.233 389.037 596.803 388.524 597.502 388.134C598.21 387.743 599.045 387.548 600.005 387.548C602.902 387.548 604.375 389.082 604.424 392.15V401H602.166V392.284C602.166 391.34 601.95 390.636 601.519 390.172C601.087 389.7 600.363 389.464 599.346 389.464C598.507 389.464 597.812 389.717 597.258 390.221C596.705 390.718 596.383 391.389 596.294 392.235V401H594.023V392.345C594.023 390.425 593.083 389.464 591.204 389.464C589.722 389.464 588.709 390.095 588.164 391.356V401H585.906V387.792H588.042ZM615.996 401C615.866 400.74 615.76 400.276 615.679 399.608C614.629 400.699 613.376 401.244 611.919 401.244C610.617 401.244 609.547 400.878 608.708 400.146C607.878 399.405 607.463 398.469 607.463 397.338C607.463 395.963 607.984 394.896 609.026 394.14C610.076 393.375 611.549 392.992 613.445 392.992H615.642V391.955C615.642 391.165 615.406 390.539 614.934 390.075C614.462 389.603 613.766 389.367 612.847 389.367C612.041 389.367 611.366 389.57 610.82 389.977C610.275 390.384 610.002 390.876 610.002 391.454H607.732C607.732 390.795 607.964 390.16 608.428 389.55C608.9 388.931 609.535 388.443 610.332 388.085C611.138 387.727 612.021 387.548 612.981 387.548C614.503 387.548 615.695 387.93 616.558 388.695C617.42 389.452 617.868 390.498 617.9 391.833V397.912C617.9 399.124 618.055 400.089 618.364 400.805V401H615.996ZM612.249 399.279C612.957 399.279 613.628 399.096 614.263 398.729C614.897 398.363 615.357 397.887 615.642 397.301V394.591H613.872C611.105 394.591 609.722 395.401 609.722 397.021C609.722 397.729 609.958 398.282 610.43 398.681C610.902 399.079 611.508 399.279 612.249 399.279ZM623.894 401H621.636V387.792H623.894V401ZM621.453 384.289C621.453 383.922 621.562 383.613 621.782 383.361C622.01 383.109 622.344 382.982 622.783 382.982C623.223 382.982 623.556 383.109 623.784 383.361C624.012 383.613 624.126 383.922 624.126 384.289C624.126 384.655 624.012 384.96 623.784 385.204C623.556 385.448 623.223 385.57 622.783 385.57C622.344 385.57 622.01 385.448 621.782 385.204C621.562 384.96 621.453 384.655 621.453 384.289ZM629.973 401H627.715V382.25H629.973V401ZM633.525 399.816C633.525 399.425 633.639 399.1 633.867 398.839C634.103 398.579 634.453 398.449 634.917 398.449C635.381 398.449 635.731 398.579 635.967 398.839C636.211 399.1 636.333 399.425 636.333 399.816C636.333 400.19 636.211 400.504 635.967 400.756C635.731 401.008 635.381 401.134 634.917 401.134C634.453 401.134 634.103 401.008 633.867 400.756C633.639 400.504 633.525 400.19 633.525 399.816ZM633.538 389.037C633.538 388.646 633.652 388.321 633.879 388.061C634.115 387.8 634.465 387.67 634.929 387.67C635.393 387.67 635.743 387.8 635.979 388.061C636.223 388.321 636.345 388.646 636.345 389.037C636.345 389.411 636.223 389.725 635.979 389.977C635.743 390.229 635.393 390.355 634.929 390.355C634.465 390.355 634.115 390.229 633.879 389.977C633.652 389.725 633.538 389.411 633.538 389.037Z" fill="black"/>
<rect x="570.5" y="518.5" width="299" height="59" fill="white" stroke="black"/>
<path d="M577.3 504.078C575.29 503.5 573.825 502.792 572.905 501.954C571.994 501.107 571.538 500.066 571.538 498.829C571.538 497.429 572.096 496.273 573.21 495.362C574.333 494.442 575.79 493.982 577.581 493.982C578.801 493.982 579.888 494.218 580.84 494.69C581.8 495.162 582.541 495.813 583.062 496.644C583.59 497.474 583.855 498.381 583.855 499.366H581.499C581.499 498.292 581.157 497.449 580.474 496.839C579.79 496.22 578.826 495.911 577.581 495.911C576.425 495.911 575.522 496.167 574.871 496.68C574.228 497.185 573.906 497.889 573.906 498.792C573.906 499.516 574.211 500.131 574.822 500.635C575.44 501.132 576.486 501.587 577.959 502.002C579.44 502.417 580.596 502.877 581.426 503.382C582.264 503.878 582.882 504.46 583.281 505.127C583.688 505.795 583.892 506.58 583.892 507.483C583.892 508.924 583.33 510.079 582.207 510.95C581.084 511.813 579.583 512.244 577.703 512.244C576.482 512.244 575.343 512.012 574.285 511.548C573.227 511.076 572.409 510.433 571.831 509.62C571.261 508.806 570.977 507.882 570.977 506.849H573.333C573.333 507.923 573.727 508.773 574.517 509.4C575.314 510.018 576.376 510.328 577.703 510.328C578.94 510.328 579.888 510.075 580.547 509.571C581.206 509.066 581.536 508.379 581.536 507.508C581.536 506.637 581.23 505.966 580.62 505.494C580.01 505.014 578.903 504.542 577.3 504.078ZM592.034 512.244C590.243 512.244 588.787 511.658 587.664 510.486C586.541 509.306 585.979 507.732 585.979 505.762V505.347C585.979 504.037 586.227 502.869 586.724 501.844C587.228 500.81 587.928 500.005 588.823 499.427C589.727 498.841 590.703 498.548 591.753 498.548C593.47 498.548 594.805 499.113 595.757 500.245C596.709 501.376 597.185 502.995 597.185 505.103V506.043H588.237C588.27 507.345 588.648 508.399 589.373 509.205C590.105 510.002 591.033 510.401 592.156 510.401C592.953 510.401 593.629 510.238 594.182 509.913C594.736 509.587 595.22 509.156 595.635 508.619L597.014 509.693C595.907 511.394 594.247 512.244 592.034 512.244ZM591.753 500.403C590.841 500.403 590.076 500.737 589.458 501.404C588.84 502.063 588.457 502.991 588.311 504.188H594.927V504.017C594.862 502.869 594.552 501.982 593.999 501.355C593.446 500.721 592.697 500.403 591.753 500.403ZM601.946 498.792L602.019 500.452C603.028 499.183 604.347 498.548 605.974 498.548C608.765 498.548 610.173 500.123 610.198 503.272V512H607.939V503.26C607.931 502.308 607.712 501.604 607.28 501.148C606.857 500.692 606.194 500.464 605.291 500.464C604.558 500.464 603.915 500.66 603.362 501.05C602.808 501.441 602.377 501.954 602.068 502.588V512H599.81V498.792H601.946ZM615.862 500.391C616.863 499.162 618.165 498.548 619.768 498.548C622.559 498.548 623.967 500.123 623.992 503.272V512H621.733V503.26C621.725 502.308 621.506 501.604 621.074 501.148C620.651 500.692 619.988 500.464 619.084 500.464C618.352 500.464 617.709 500.66 617.156 501.05C616.602 501.441 616.171 501.954 615.862 502.588V512H613.604V493.25H615.862V500.391ZM635.527 512C635.397 511.74 635.291 511.276 635.21 510.608C634.16 511.699 632.907 512.244 631.45 512.244C630.148 512.244 629.078 511.878 628.24 511.146C627.41 510.405 626.995 509.469 626.995 508.338C626.995 506.963 627.515 505.896 628.557 505.14C629.607 504.375 631.08 503.992 632.976 503.992H635.173V502.955C635.173 502.165 634.937 501.539 634.465 501.075C633.993 500.603 633.298 500.367 632.378 500.367C631.572 500.367 630.897 500.57 630.352 500.977C629.806 501.384 629.534 501.876 629.534 502.454H627.263C627.263 501.795 627.495 501.16 627.959 500.55C628.431 499.931 629.066 499.443 629.863 499.085C630.669 498.727 631.552 498.548 632.512 498.548C634.034 498.548 635.226 498.93 636.089 499.695C636.951 500.452 637.399 501.498 637.432 502.833V508.912C637.432 510.124 637.586 511.089 637.896 511.805V512H635.527ZM631.78 510.279C632.488 510.279 633.159 510.096 633.794 509.729C634.429 509.363 634.889 508.887 635.173 508.301V505.591H633.403C630.636 505.591 629.253 506.401 629.253 508.021C629.253 508.729 629.489 509.282 629.961 509.681C630.433 510.079 631.039 510.279 631.78 510.279ZM640.898 510.816C640.898 510.425 641.012 510.1 641.24 509.839C641.476 509.579 641.826 509.449 642.29 509.449C642.754 509.449 643.104 509.579 643.34 509.839C643.584 510.1 643.706 510.425 643.706 510.816C643.706 511.19 643.584 511.504 643.34 511.756C643.104 512.008 642.754 512.134 642.29 512.134C641.826 512.134 641.476 512.008 641.24 511.756C641.012 511.504 640.898 511.19 640.898 510.816ZM640.911 500.037C640.911 499.646 641.025 499.321 641.252 499.061C641.488 498.8 641.838 498.67 642.302 498.67C642.766 498.67 643.116 498.8 643.352 499.061C643.596 499.321 643.718 499.646 643.718 500.037C643.718 500.411 643.596 500.725 643.352 500.977C643.116 501.229 642.766 501.355 642.302 501.355C641.838 501.355 641.488 501.229 641.252 500.977C641.025 500.725 640.911 500.411 640.911 500.037Z" fill="black"/>
<rect x="650" y="606" width="140" height="50" fill="#656565"/>
<path d="M678.582 632.81H674.407V640H672.051V622.227H677.935C679.937 622.227 681.475 622.682 682.549 623.594C683.631 624.505 684.172 625.832 684.172 627.573C684.172 628.68 683.871 629.644 683.269 630.466C682.675 631.288 681.845 631.903 680.779 632.31L684.954 639.854V640H682.439L678.582 632.81ZM674.407 630.894H678.008C679.172 630.894 680.095 630.592 680.779 629.99C681.471 629.388 681.816 628.582 681.816 627.573C681.816 626.475 681.487 625.632 680.828 625.046C680.177 624.46 679.233 624.163 677.996 624.155H674.407V630.894ZM692.595 640.244C690.805 640.244 689.348 639.658 688.225 638.486C687.102 637.306 686.541 635.732 686.541 633.762V633.347C686.541 632.037 686.789 630.869 687.285 629.844C687.79 628.81 688.49 628.005 689.385 627.427C690.288 626.841 691.265 626.548 692.314 626.548C694.032 626.548 695.366 627.113 696.318 628.245C697.271 629.376 697.747 630.995 697.747 633.103V634.043H688.799C688.831 635.345 689.21 636.399 689.934 637.205C690.667 638.002 691.594 638.401 692.717 638.401C693.515 638.401 694.19 638.238 694.744 637.913C695.297 637.587 695.781 637.156 696.196 636.619L697.576 637.693C696.469 639.394 694.809 640.244 692.595 640.244ZM692.314 628.403C691.403 628.403 690.638 628.737 690.02 629.404C689.401 630.063 689.019 630.991 688.872 632.188H695.488V632.017C695.423 630.869 695.114 629.982 694.561 629.355C694.007 628.721 693.258 628.403 692.314 628.403ZM699.834 633.286C699.834 631.227 700.31 629.591 701.262 628.379C702.214 627.158 703.476 626.548 705.046 626.548C706.658 626.548 707.915 627.118 708.818 628.257L708.928 626.792H710.991V639.683C710.991 641.392 710.483 642.738 709.465 643.723C708.456 644.708 707.097 645.2 705.388 645.2C704.436 645.2 703.504 644.997 702.593 644.59C701.681 644.183 700.986 643.625 700.505 642.917L701.677 641.562C702.646 642.759 703.83 643.357 705.229 643.357C706.328 643.357 707.183 643.048 707.793 642.429C708.411 641.811 708.721 640.94 708.721 639.817V638.682C707.817 639.723 706.584 640.244 705.022 640.244C703.476 640.244 702.222 639.622 701.262 638.376C700.31 637.131 699.834 635.435 699.834 633.286ZM702.104 633.542C702.104 635.032 702.41 636.204 703.02 637.058C703.63 637.904 704.485 638.328 705.583 638.328C707.008 638.328 708.053 637.681 708.721 636.387V630.356C708.029 629.095 706.991 628.464 705.608 628.464C704.509 628.464 703.651 628.892 703.032 629.746C702.414 630.601 702.104 631.866 702.104 633.542ZM716.863 640H714.604V626.792H716.863V640ZM714.421 623.289C714.421 622.922 714.531 622.613 714.751 622.361C714.979 622.109 715.312 621.982 715.752 621.982C716.191 621.982 716.525 622.109 716.753 622.361C716.981 622.613 717.095 622.922 717.095 623.289C717.095 623.655 716.981 623.96 716.753 624.204C716.525 624.448 716.191 624.57 715.752 624.57C715.312 624.57 714.979 624.448 714.751 624.204C714.531 623.96 714.421 623.655 714.421 623.289ZM728.179 636.497C728.179 635.886 727.947 635.414 727.483 635.081C727.027 634.739 726.226 634.446 725.078 634.202C723.939 633.958 723.031 633.665 722.356 633.323C721.689 632.981 721.192 632.574 720.867 632.102C720.549 631.63 720.391 631.069 720.391 630.417C720.391 629.335 720.846 628.42 721.758 627.671C722.677 626.922 723.849 626.548 725.273 626.548C726.771 626.548 727.983 626.934 728.911 627.708C729.847 628.481 730.315 629.469 730.315 630.674H728.044C728.044 630.055 727.78 629.522 727.251 629.075C726.73 628.627 726.071 628.403 725.273 628.403C724.451 628.403 723.809 628.582 723.345 628.94C722.881 629.299 722.649 629.766 722.649 630.344C722.649 630.889 722.865 631.3 723.296 631.577C723.727 631.854 724.504 632.118 725.627 632.371C726.759 632.623 727.674 632.924 728.374 633.274C729.074 633.624 729.591 634.047 729.924 634.543C730.266 635.032 730.437 635.63 730.437 636.338C730.437 637.518 729.965 638.466 729.021 639.182C728.077 639.89 726.852 640.244 725.347 640.244C724.289 640.244 723.353 640.057 722.539 639.683C721.725 639.308 721.086 638.787 720.623 638.12C720.167 637.445 719.939 636.716 719.939 635.935H722.197C722.238 636.692 722.539 637.294 723.101 637.742C723.67 638.181 724.419 638.401 725.347 638.401C726.201 638.401 726.885 638.23 727.397 637.888C727.918 637.538 728.179 637.074 728.179 636.497ZM736.443 623.594V626.792H738.909V628.538H736.443V636.729C736.443 637.257 736.553 637.656 736.772 637.925C736.992 638.185 737.367 638.315 737.896 638.315C738.156 638.315 738.514 638.267 738.97 638.169V640C738.376 640.163 737.798 640.244 737.236 640.244C736.227 640.244 735.466 639.939 734.954 639.329C734.441 638.718 734.185 637.852 734.185 636.729V628.538H731.78V626.792H734.185V623.594H736.443ZM747.942 628.818C747.6 628.761 747.23 628.733 746.831 628.733C745.35 628.733 744.345 629.364 743.816 630.625V640H741.558V626.792H743.755L743.792 628.318C744.532 627.138 745.582 626.548 746.941 626.548C747.38 626.548 747.714 626.605 747.942 626.719V628.818ZM757.695 640C757.565 639.74 757.459 639.276 757.378 638.608C756.328 639.699 755.075 640.244 753.618 640.244C752.316 640.244 751.246 639.878 750.408 639.146C749.578 638.405 749.163 637.469 749.163 636.338C749.163 634.963 749.683 633.896 750.725 633.14C751.775 632.375 753.248 631.992 755.144 631.992H757.341V630.955C757.341 630.165 757.105 629.539 756.633 629.075C756.161 628.603 755.465 628.367 754.546 628.367C753.74 628.367 753.065 628.57 752.52 628.977C751.974 629.384 751.702 629.876 751.702 630.454H749.431C749.431 629.795 749.663 629.16 750.127 628.55C750.599 627.931 751.234 627.443 752.031 627.085C752.837 626.727 753.72 626.548 754.68 626.548C756.202 626.548 757.394 626.93 758.257 627.695C759.119 628.452 759.567 629.498 759.6 630.833V636.912C759.6 638.124 759.754 639.089 760.063 639.805V640H757.695ZM753.948 638.279C754.656 638.279 755.327 638.096 755.962 637.729C756.597 637.363 757.056 636.887 757.341 636.301V633.591H755.571C752.804 633.591 751.421 634.401 751.421 636.021C751.421 636.729 751.657 637.282 752.129 637.681C752.601 638.079 753.207 638.279 753.948 638.279ZM769.524 628.818C769.182 628.761 768.812 628.733 768.413 628.733C766.932 628.733 765.927 629.364 765.398 630.625V640H763.14V626.792H765.337L765.374 628.318C766.114 627.138 767.164 626.548 768.523 626.548C768.962 626.548 769.296 626.605 769.524 626.719V628.818Z" fill="white"/>
</svg>
